/* XPM */
static char * connect_dialog_xpm[] = {
/* width height num_colors chars_per_pixel */
"32 32 9 1",
/* colors */
" 	s None	c None",
".	c #808080",
"X	c #c0c0c0",
"o	c black",
"O	c white",
"+	c #808000",
"@	c #008000",
"#	c yellow",
"$	c blue",
/* pixels */
"                                ",
"                                ",
"                .............   ",
"               .XXXXXXXXXXXX.o  ",
"              .XXXXXXXXXXXX..o  ",
"             .XXXXXXXXXXXX...o  ",
"            .OOOOOOOOOOOO....o  ",
"            .XXXXXXXXXXXX....o  ",
"            .XXXXXXXX+++X....o  ",
"            .XXXXXXXX@++X....o  ",
"            .XXXXXXXXXXXX....o  ",
"            .XXXXXXXXXXXX....o  ",
"            .X..........X....o  ",
"            .XXX.XXXXXXXX....o  ",
"            .XX.XoXXXXXXX....o  ",
"     ..........OOXoXXXXXX....o  ",
"    .OOOOOOOO.OOOOXo....X....o  ",
"   .O#X#X#X#.OOO$OOXoXXXX....o  ",
"  .O#X#X#X#.OOO$O$OOXoXXX....o  ",
"  .OX#X#X#.OOO$O$O$OOXoXX....o  ",
"  .O#X#X#.OOO$O$O$O$OOXoX....o  ",
"  .OX#X#.OOO$O$O$O$O$OOXo....o  ",
" ...................O$OOXo...o  ",
".OOOOOOOOOOOOOOOOOO.$O$OOXo..o  ",
".#X#X#X#X#X#X#X#X#X#.oO$OOXo.o  ",
".X#X#X#X#X#X#X#X#X#X.o$OOOo..o  ",
" .X#X#X#X#X#X#X#X#X#X#oOOo..o   ",
" .#X#X#X#X#X#X#X#X#X#XoOo..o    ",
"  .#X#X#X#X#X#X#X#X#X#+oX.o     ",
"  .X#X#X#X#X#X#X#X#X#X+ooo      ",
"   .+++++++++++++++++++o        ",
"    ooooooooooooooooooo         "};
