/* XPM */
static char * earth2_xpm[] = {
"40 40 9 1",
" 	s None	c None",
".	c green",
"X	c blue",
"o	c #000077",
"O	c #000022",
"+	c #777777",
"@	c #9999CC",
"#	c #0033CC",
"$	c #0033FF",
"                                        ",
"                                        ",
"                                        ",
"                                        ",
"                                        ",
"                                        ",
"                                        ",
"                                        ",
"                                        ",
"                 .XX..X                 ",
"              ...XXX.XXX.               ",
"            X....XXXXXXXX...            ",
"            .....XXXXXXXX.X.            ",
"            ....XXXXXXXXX.XX            ",
"           X...XXXXXXXXXX...X           ",
"          XXXXXXXXXXXXXXX.....          ",
"     oooo XXX.X.XXXXXXXXX.....          ",
"     oOO XXXX.XXXXXXXXXXX......         ",
"     +OOOXXXXX...XXXXXXXXX.....         ",
"      O +OoXXX....XXXXXXXX.....         ",
"         XOOoX.........XXXXXX..         ",
"         XXXOOO........XXXXXX..   @     ",
"         XXXXXoOo#....XXXXXXX..    @    ",
"          XXXXXX#oOo$.XXXXXXX.      @   ",
"          XXXXXX...#oOo#$XXX.X      +   ",
"           XXXXX...XXX$#ooooo+@@@@+++   ",
"            XXXX..XXXXXXXXX####ooo++@   ",
"            XXXXXXXXXXXXXXXX            ",
"             XXXXXXXXXXXXXX             ",
"               XXXXXXXXXX               ",
"                 X.XXXX                 ",
"                                        ",
"                                        ",
"                                        ",
"                                        ",
"                                        ",
"                                        ",
"                                        ",
"                                        ",
"                                        "};
