/* XPM */
static char * earth5_xpm[] = {
"40 40 8 1",
" 	s None	c None",
".	c blue",
"X	c green",
"o	c #9999CC",
"O	c #000022",
"+	c #0033CC",
"@	c #000077",
"#	c #777777",
"                                        ",
"                                        ",
"                                        ",
"                                        ",
"                                        ",
"                                        ",
"                                        ",
"                                        ",
"                                        ",
"                 ......                 ",
"              ....XXXXXXX               ",
"            .....XXXXXXXXXX             ",
"   oO+OO@@@+...XX..XXXXXXXXX            ",
"   O@oooo###...X....XXXXXXXX            ",
"   O       ....XX.....XXXXXXX           ",
"   oO     ....XXXXXXXX.XXXXXXX          ",
"    oO    ....XXXXXXXXXXX....X          ",
"     oO  ....XXXXXXXXXXX......X         ",
"         ....XXXXXXXXXXXX......         ",
"         .....X.XXXXXXXXX......         ",
"         XX......XXXXXX........OoO      ",
"         XX......XXXXXX........oOOo     ",
"         XX......XXXXXX.X...... OOO     ",
"          X......XXXXXX.X.....          ",
"          X.......XXXX........          ",
"           X.......XX........           ",
"            ................            ",
"            ................            ",
"             ..............             ",
"               ..........               ",
"                 .XXXXX                 ",
"                                        ",
"                                        ",
"                                        ",
"                                        ",
"                                        ",
"                                        ",
"                                        ",
"                                        ",
"                                        "};
