/* XPM */
static char * earth9_xpm[] = {
"40 40 9 1",
" 	s None	c None",
".	c green",
"X	c blue",
"o	c #9999CC",
"O	c #000022",
"+	c #0033CC",
"@	c #000077",
"#	c #777777",
"$	c #6699FF",
"                                        ",
"                                        ",
"                                        ",
"                                        ",
"                                        ",
"                                        ",
"                                        ",
"                                        ",
"                                        ",
"                 .X....                 ",
"              X..........               ",
"            .............XX             ",
"   oO+OO@@@+.............XXX            ",
"   O@oooo###...........XX.XX            ",
"   O       .............XXXXX           ",
"   oO     ...X..........XXXXXX          ",
"    oO    ....XX.XXX..XXXXXXXX          ",
"     oO# #..XXXX.XXX...XXXXXXXX         ",
"       OO$..XXXX.XXXXX.XXXXXXXX         ",
"       o#O@.XXXXXXXXXXXXXXXXXXX         ",
"         $OO@XXXXXXXXXXXXXXXXXX         ",
"         ..+OOOXXXXXXXXXXXXXXXX         ",
"         ...X+@O@XXXXXXXX..XXXX         ",
"          ..XXX++@XXXXXXX...XX          ",
"          X.XXXXXXXXXXX.....XX          ",
"           XXXXXXXXXXXX.....X           ",
"            XXXXXXXXXXXXXX.X            ",
"            XXXXXXXXXXXXXXXX            ",
"             XXXXXXXXXXXXXX             ",
"               XXXXXXXXXX               ",
"                 ......                 ",
"                                        ",
"                                        ",
"                                        ",
"                                        ",
"                                        ",
"                                        ",
"                                        ",
"                                        ",
"                                        "};
