/* XPM */
static char * earth1_xpm[] = {
"40 40 8 1",
" 	s None	c None",
".	c blue",
"X	c green",
"o	c #000022",
"O	c #000077",
"+	c #0033CC",
"@	c #9999CC",
"#	c #777777",
"                                        ",
"                                        ",
"                                        ",
"                                        ",
"                                        ",
"                                        ",
"                                        ",
"                                        ",
"                                        ",
"                 ....XX                 ",
"              ..XXXXXXXXX               ",
"            ..XXXXXXXXXXXXX             ",
"       oOOO+X.XXXXXXXXXXXXXX            ",
"       @@###...XXXXXXXXXXXXX            ",
"           .X...XXXXXXXXXXXX.           ",
"          .XXXX.XX.XXXXXXXXX..          ",
"          XXXXXX.XXX...XXXXX..          ",
"         .XXXXXXX......X..XX...         ",
"         .XXXXXXXX...........X.         ",
"         .X.XXXXX..............         ",
"         ...XXXX...............o@       ",
"         ...XXXX...............@oo@     ",
"         ...XXXX.X...........XX   o@    ",
"          ..XXXX......OOOO...X     o@   ",
"          ...XX.......Ooo...XX      o   ",
"           ...X.......Oo+oOOX#@@@@##o   ",
"            ...........o...+OO+OOO#o#   ",
"            ................            ",
"             ..............             ",
"               ..........               ",
"                 XXXXXX                 ",
"                                        ",
"                                        ",
"                                        ",
"                                        ",
"                                        ",
"                                        ",
"                                        ",
"                                        ",
"                                        "};
