/* XPM */
static char * tb_disconnect_xpm[] = {
/* width height num_colors chars_per_pixel */
"16 16 7 1",
/* colors */
" 	s None	c None",
".	c #808080",
"X	c black",
"o	c #800000",
"O	c white",
"+	c #c0c0c0",
"@	c green",
/* pixels */
"       .XXXXXXX ",
"ooo   .O++++o+.X",
"oooo .OOOOoo+..X",
" oooo.O++oo++..X",
"   oooO+oo+@@..X",
"    ooooo++++..X",
"     ooo+++++..X",
"    ooooo++++..X",
"   oooOooo+++..X",
"  oooXXXXoo++..X",
" ooooOXOOXoo+..X",
"XoooOOX++XXoXXXX",
"XXoXO+X++XXXoXXX",
"   X++X++X+++.X ",
"    XXXXX XXXo  ",
"                "};
