/* XPM */
static char * tb_refresh_xpm[] = {
"16 16 3 1",
" 	s None	c None",
".	c #808080",
"X	c black",
"                ",
"     ..XXX.     ",
"    .XXXXXXX    ",
"   .XX.    .X   ",
"   XX.          ",
"  XXX       X   ",
"XXXXXXX    XXX  ",
" XXXXX    XXXXX ",
"  XXX    XXXXXXX",
"   X       XXX  ",
"          .XX   ",
"   X.    .XX.   ",
"    XXXXXXX.    ",
"     .XXX..     ",
"                ",
"                "};
