/* XPM */
static char * tb_separator_xpm[] = {
/* width height num_colors chars_per_pixel */
"4 20 3 1",
/* colors */
" 	s None	c None",
".	c #808080",
"X	c white",
/* pixels */
" .X ",
" .X ",
" .X ",
" .X ",
" .X ",
" .X ",
" .X ",
" .X ",
" .X ",
" .X ",
" .X ",
" .X ",
" .X ",
" .X ",
" .X ",
" .X ",
" .X ",
" .X ",
" .X ",
" .X "};
