/* XPM */
static char * tbu_refresh_xpm[] = {
"16 16 3 1",
" 	s None	c None",
".	c #808080",
"X	c white",
"                ",
"       ...      ",
"     .......    ",
"    ..XXXXXX.   ",
"   ..XX     XX  ",
"  ...X      .   ",
".......    ...  ",
" .....XX  ..... ",
"  ...XX  .......",
"   .XX     ...XX",
"    X      ..XX ",
"   .      ..XX  ",
"    .......XX   ",
"     X...XXX    ",
"       XXX      ",
"                "};
