/* XPM */
static char * tbu_delete_xpm[] = {
"16 16 3 1",
" 	s None	c None",
".	c #808080",
"X	c white",
"                ",
"  ...         . ",
"  ....      .. X",
"   ....    ..XX ",
"    X...  ..XX  ",
"      .....XX   ",
"       ...XX    ",
"      .....     ",
"     ...XX..    ",
"    ...XX  ..   ",
"   ...XX    .X  ",
"  ....X      .  ",
"  ...XX       X ",
"   .XX        . ",
"    X          X",
"                "};
