/* XPM */
static char * tbu_list_xpm[] = {
"16 16 3 1",
" 	s None	c None",
".	c #808080",
"X	c white",
"                ",
"..      ..      ",
".X. ... .X. ... ",
"...X XXX...X XXX",
" XXX     XXX    ",
"                ",
"..      ..      ",
".X. ... .X. ... ",
"...X XXX...X XXX",
" XXX     XXX    ",
"                ",
"..      ..      ",
".X. ... .X. ... ",
"...X XXX...X XXX",
" XXX     XXX    ",
"                "};
