/* XPM */
static char * tbu_bigicons_xpm[] = {
"16 16 3 1",
" 	s None	c None",
".	c #808080",
"X	c white",
"                ",
"  ...           ",
"  .X..          ",
"  .XX.X         ",
"  .XX.X         ",
"  ....X         ",
"   XXXX         ",
" ......   ...   ",
"  XXXXXX  .X..  ",
"          .XX.X ",
"          .XX.X ",
"          ....X ",
"           XXXX ",
"         ...... ",
"          XXXXXX",
"                "};
