/* XPM */
static char * warning_xpm[] = {
/* width height num_colors chars_per_pixel */
"128 32 240 3",
/* colors */
"   	c #dc1f1d",
".  	c #d4221f",
"X  	c #cc2623",
"o  	c #bc2a2c",
"O  	c #a43735",
"+  	c #340304",
"@  	c #1a0204",
"#  	c black",
"$  	c #270304",
"%  	c #4c0204",
"&  	c #bc2e2a",
"*  	c #9c3b37",
"=  	c #580204",
"-  	c #b4312e",
";  	c #c42a27",
":  	c #943e3d",
">  	c #d42622",
",  	c #cc2a0c",
"<  	c #c43007",
"1  	c #b43519",
"2  	c #a43929",
"3  	c #8c4818",
"4  	c #ac3915",
"5  	c #bc320d",
"6  	c #a43e18",
"7  	c #d42712",
"8  	c #b43608",
"9  	c #cc2e05",
"0  	c #fc8e3d",
"q  	c #fc962c",
"w  	c #f4a219",
"e  	c #eaa41f",
"r  	c #e4a234",
"t  	c #846008",
"y  	c #a49625",
"u  	c #9f9a1e",
"i  	c #9c963a",
"p  	c #686620",
"a  	c #9c9627",
"s  	c #ac9614",
"d  	c #b89326",
"f  	c #d47a3c",
"g  	c #fcc62c",
"h  	c #fcc94b",
"j  	c #d45609",
"k  	c #bc5634",
"l  	c #c48b24",
"z  	c #b49216",
"x  	c #a49a10",
"c  	c #84800c",
"v  	c #3c3a04",
"b  	c #a49234",
"n  	c #b49a14",
"m  	c #d4ae24",
"M  	c #dcaa1c",
"N  	c #f49c2c",
"B  	c #e14a1f",
"V  	c #f49e1e",
"C  	c #fc9435",
"Z  	c #eca22c",
"A  	c #c4920c",
"S  	c #3d3604",
"D  	c #b49048",
"F  	c #d4aa3c",
"G  	c #f46a2c",
"H  	c #d46e04",
"J  	c #fcb93c",
"K  	c #fcce51",
"L  	c #fbbf31",
"P  	c #544e05",
"I  	c #fcac29",
"U  	c #fcd532",
"Y  	c #fcdd22",
"T  	c #fcdc32",
"R  	c #7c6014",
"E  	c #251f04",
"W  	c #ece247",
"Q  	c #ece537",
"!  	c #9c924c",
"~  	c #f4de37",
"^  	c #fadb46",
"/  	c #ec7424",
"(  	c #c44a04",
")  	c #fcce3f",
"_  	c #fce316",
"`  	c #581604",
"'  	c #94761c",
"]  	c #bcb124",
"[  	c #ece62b",
"{  	c #d5ca27",
"}  	c #b4af37",
"|  	c #1c1a04",
" . 	c #ecce2c",
"...	c #fce225",
"X..	c #dc6813",
"o..	c #cc5b08",
"O..	c #b85e14",
"+..	c #e49e44",
"@..	c #bc960c",
"#..	c #dc9e4c",
"$..	c #f8b228",
"%..	c #fc9a24",
"&..	c #cc860c",
"*..	c #bc7a08",
"=..	c #ac8008",
"-..	c #c46204",
";..	c #f4e527",
":..	c #1a0b04",
">..	c #0c0a04",
",..	c #6c6805",
"<..	c #ece61c",
"1..	c #fcd457",
"2..	c #b43e04",
"3..	c #d98108",
"4..	c #5d5204",
"5..	c #e4e25e",
"6..	c #ccc654",
"7..	c #94470e",
"8..	c #cc7504",
"9..	c #974123",
"0..	c #f4e718",
"q..	c #b43a04",
"w..	c #a74604",
"e..	c #bd3804",
"r..	c #e47a1c",
"t..	c #ac4006",
"y..	c #2a0a04",
"u..	c #796c04",
"i..	c #fcd347",
"p..	c #695604",
"a..	c #f4d20c",
"s..	c #f4e24c",
"d..	c #3c3008",
"f..	c #a44007",
"g..	c #e4621c",
"h..	c #fcbf3c",
"j..	c #c47608",
"k..	c #dcce04",
"l..	c #d4c83a",
"z..	c #341e04",
"x..	c #c42e1c",
"c..	c #fcc154",
"v..	c #e4de70",
"b..	c #9c4706",
"n..	c #847e1f",
"m..	c #ecde61",
"M..	c #c8a01c",
"N..	c #c84404",
"B..	c #e4ae04",
"V..	c #d99b04",
"C..	c #f4b620",
"Z..	c #f4e237",
"A..	c #6f4907",
"S..	c #cc8e04",
"D..	c #e45e24",
"F..	c #9c4204",
"G..	c #fca534",
"H..	c #e1da8f",
"J..	c #949256",
"K..	c #8c8006",
"L..	c #e8b830",
"P..	c #f9812c",
"I..	c #c47a04",
"U..	c #b46a04",
"Y..	c #9c560c",
"T..	c #683204",
"R..	c #a43a1c",
"E..	c #eca313",
"W..	c #ece254",
"Q..	c #e4de64",
"!..	c #644e07",
"~..	c #d16d17",
"^..	c #dc7e18",
"/..	c #fcb24c",
"(..	c #9c7a14",
")..	c #f4b644",
"_..	c #e4920c",
"`..	c #d46624",
"'..	c #fcd367",
"]..	c #ccaa34",
"[..	c #ccc640",
"{..	c #b74f04",
"}..	c #cc560c",
"|..	c #c46d34",
" X.	c #6c4e04",
".X.	c #985c10",
"XXX	c #ec8c19",
"oXX	c #d47206",
"OXX	c #ac5604",
"+XX	c #c4b20c",
"@XX	c #986204",
"#XX	c #844904",
"$XX	c #f4da60",
"%XX	c #846a04",
"&XX	c #e4c61c",
"*XX	c #d49a1c",
"=XX	c #a44e04",
"-XX	c #2c2604",
";XX	c #a46e0c",
":XX	c #fcce14",
">XX	c #985004",
",XX	c #e46614",
"<XX	c #fcc968",
"1XX	c #4c3a04",
"2XX	c #fcce5c",
"3XX	c #a47404",
"4XX	c #845604",
"5XX	c #340f04",
"6XX	c #b87038",
"7XX	c #b47204",
"8XX	c #ecd604",
"9XX	c #fcba50",
"0XX	c #8c5004",
"qXX	c #bcb604",
"wXX	c #cc6a2c",
"eXX	c #e4c204",
"rXX	c #dcc244",
"tXX	c #dc6224",
"yXX	c #c48630",
"uXX	c #cc2a22",
"iXX	c #402004",
"pXX	c #dc921c",
"aXX	c #ec5d28",
"sXX	c #d47e24",
"dXX	c #c44224",
"fXX	c #cc3e1c",
"gXX	c #dc361c",
"hXX	c #d4a644",
"jXX	c #fc8e54",
"kXX	c #e4dd7f",
"lXX	c #4c4a1c",
"zXX	c #fcb868",
"xXX	c #fcb274",
"cXX	c #fcd28c",
"vXX	c #fcbf61",
"bXX	c #f45a2c",
"nXX	c #c45a24",
"mXX	c #8c4a08",
"MXX	c #ac3234",
"NXX	c #8c4142",
/* pixels */
"               .                 .     X  o  O  +  @  #  #  #  #  #  #  #  #  #  #  #  #  #  #  $  %  o  .                                   .  .  &  *  +  @  #  #  #  #  #  #  #  #  #  #  #  #  #  #  #  #  $  =  -  .                                .     X  &  O  +  @  #  #  #  #  #  #  #  #  #  #  #  #  #  #  #  #  $  %  o  .                       .        .     X  o  *  +  @  #  ",
"            .              .        .  ;  -  :  $  #  #  #  #  #  #  #  #  #  #  #  #  #  #  $  +  O  ;  .  .                                .  ;  -  :  $  #  #  #  #  #  #  #  #  #  #  #  #  #  #  #  #  $  +  O  ;  X                          .        .  ;  -  :  $  #  #  #  #  #  #  #  #  #  #  #  #  #  #  #  #  $  +  O  ;  .  .                 .           .  .  X  -  :  $  #  #  ",
"                           .     .  X  o  *  +  @  #  #  #  #  #  #  #  #  #  #  #  #  #  $  +  O  o  >  .           .           .     .  .  X  o  *  +  @  #  #  #  #  #  #  #  #  #  #  #  #  #  #  #  $  +  O  o  X        .                       .  .  X  o  *  +  @  #  #  #  #  #  #  #  #  #  #  #  #  #  #  #  $  +  O  o  >  .           .                 .  .  X  o  *  +  @  #  #  ",
"                  .        .  .  X  o  O  +  $  #  #  #  #  #  #  #  #  #  #  #  #  #  @  +  *  o  X  .                                .  X  o  O  +  @  #  #  #  #  #  #  #  #  #  #  #  #  #  #  #  @  +  O  o  X     .                       .     .  X  o  O  +  @  #  #  #  #  #  #  #  #  #  #  #  #  #  #  #  @  +  *  o  .  .                          .     .  X  o  O  +  @  #  #  #  ",
"         .           .     .  X  o  *  +  @  #  #  #  #  #  #  #  #  #  #  #  #  #  $  +  O  o  X              .           .        .  X  &  O  +  @  @  #  #  #  #  #  #  #  #  #  #  #  #  #  #  $  +  *  o  X  .                 .              .  X  o  O  +  @  #  #  #  #  #  #  #  #  #  #  #  #  #  #  #  $  +  O  o  X  .        .                    .  .  X  o  O  +  @  @  #  #  #  ",
"                  .     .  X  o  O  +  $  #  #  #  #  #  #  #  #  #  #  #  #  #  @  +  *  o  X     .     .                       .  X  o  O  +  @  #  #  #  #  #  #  #  #  #  #  #  #  #  #  #  $  +  O  o  X     .                          .  .  X  o  O  +  @  @  #  #  #  #  #  #  #  #  #  #  #  #  #  #  @  +  *  o  X  .  .                       .     .  X  o  O  +  @  #  #  #  #  #  ",
"                     .  X  o  O  +  @  #  #  #  #  #  #  #  #  #  #  #  #  #  $  +  *  o  X     .                    .     .  .  X  o  O  +  @  @  #  #  #  #  #  #  #  #  #  #  #  #  #  #  @  +  O  o  X  .                             .  .  X  o  O  +  @  #  #  #  #  #  #  #  #  #  #  #  #  #  #  #  $  +  O  o  X  .                    .        .  .  X  o  O  +  @  @  #  #  #  #  #  ",
"   .  .  ,  ,  <  <  <  1  2  +  $  #  #  #  #  #  #  #  #  #  #  #  #  #  @  +  *  o  X  .  .  .  ,  ,  <  .  .  .     .  .  X  &  2  %  @  @  #  #  #  #  #  #  #  #  #  #  #  #  #  #  @  +  3  4  ;  .        .  .  ,  ,  ,  ,  ,  ,  ,  ;  5  6  +  $  @  #  #  #  #  #  #  #  #  #  #  #  #  #  #  @  $  3  4  <  7  .  .        .  ,  ,  ,  <  ,  <  <  8  6  +  $  #  #  #  #  #  #  #  ",
"   .  9  0  q  w  e  e  r  t  @  #  #  #  y  u  i  #  #  #  #  p  a  u  s  d  f  1  ,  .     7  5  q  g  h  j  ,        .  X  &  k  l  z  s  x  u  a  u  u  u  c  v  #  #  #  #  #  p  b  n  m  M  N  <  .     .  .  B  0  V  V  N  0  j  j  C  Z  A  z  s  a  a  S  S  i  u  x  u  u  S  #  #  #  #  @  D  F  M  Z  C  G  ,  .     .  ,  5  H  V  J  h  h  h  K  L  s  P  #  #  #  #  #  #  #  ",
"   7  ,  0  I  U  Y  T  d  R  #  #  #  E  W  Q  W  v  #  #  #  !  y  ~  ^  r  /  ,  .  .     ,  (  )  _  Y  q  <  X  .  X  o  2  `  '  ]  Q  [  {  x  u  }  W  W  W  }  |  #  #  @  R  d   . ...Y  U  X..,  7        B  q  L  U  g  C  o..O..+..@..W  Y  [  x  i  S  S  a  ]  [  [  Q  u  #  #  #  @  +  #..$..U  )  %..G  ,  .  .  ,  j  J  )  )  $..&..*..=..n  ~  W  i  #  #  #  #  #  #  #  ",
"      .  <  -..U  Y  ;..:..>..#  #  #  ,..Q  <..Q  ,..#  #  #  >..:..1..J  2..<  .  .        ,  3..U  _  Y  g  2..,  X  o  O  +  $  @  P  Q  [  a  >..#  #  4..5..[  Q  6..>..#  @  +  7..M  _  _  Y  L  (  ,     .  7  <  X..)  8..8  4  9..+  $  W  ;..Q  >..#  #  #  #  4..Q  0..0..Q  P  @  @  +  2  q..w..h  C  e..,  .     <  H  )  U  )  r..q..t..9..y..@  u..5..i  #  #  #  #  #  #  #  ",
"      .  <  t..i.._  Q  P  #  #  #  #  }  [  0..<..]  #  #  #  @  p..1..C  5  >           .  <  I  Y  a..Y  U  3..5  &  O  +  @  #  #  P  [  ;..a  #  #  #  >..c  ;..[  s..d..$  +  O  f..e  Y  a..Y  U  V  <  7        ,  g..h..j..4  O  +  @  @  W  [  Q  #  #  #  #  #  P  Q  k..0..[  l..z..+  *  o  x..2..c..0  <  7  7  ,  j  U  Y  U  3..8  -  *  +  $  #  S  v..i  #  #  #  #  #  #  #  ",
"   .  X  &  b..l  ...[  n..#  #  #  >..m..{  [  0..Q  >..@  @  y..M..i..X..,  .        .  7  N..g  B..V..Y  Y  C..f..O  +  @  @  #  #  P  Z..[  a  >..#  #  #  4..[  0..W  A..+  O  -  e..e  Y  S..U  Y  U  X..,  7  7  ,  D..h  *..9..+  @  @  >..5..;..Q  #  #  #  #  #  P  5..u..<..0..Z..@..F..&  X  ,  2..c..0  <  7  7  5  G..Y  Y  I  t..4  2  +  @  #  #  #  H..J..#  #  #  #  #  #  #  ",
".  X  o  2  +  t  ~  ;..}  >..#  #  4..W  K..x  0..Q  P  @  +  3  L..)  N..7  .        7  ,  P..h  I..U..)  Y  T  Y..+  @  #  #  #  #  P  Q  ;..u  #  #  #  #  P  Q  _  ^  T..R..o  X  <  E..U  w..G..Y  Y  J  N..,  .  ,  g..h  =..+  $  #  #  >..W..<..Q  #  #  #  #  #  P  Q..!..u..~  0..U  ~..5  7  ,  q..c..0  <  7  ,  o..)  Y  Y  ^..4  2  +  @  #  #  #  >..#  #  #  #  #  #  #  #  #  ",
"X  o  *  +  $  z..Q  <..W  E  #  #  x  W  S  4..[  Y  s  +  R..f..U  L  <     .        ,  e../..c..w..2..J  Y  ...(..$  #  #  #  #  #  P  Q  [  a  >..#  #  >..u  [  Y  )..t..&  X  .  <  E..)  e..(  U  _  Y  _..<  7  <  `..'..p..@  #  #  #  @  5..0..Q  >..#  #  #  #  P  Q..!..y..]..;..Y  J  q..,  ,  q..c..0  <  7  ,  3..Y  _  Y  O..*  +  $  #  #  #  #  #  #  #  #  #  #  #  #  #  #  ",
"-  O  +  @  #  #  {  [  Q  4..#  >..W  W  #  @  Q  ;..i..7..4  X..)  w  <              ,  o..c..C  2..2..^..Y  ;..[..@  #  #  #  #  #  P  [  ;..u  >..>..#  P  W  ~  L  {..5  ,  .     <  w  )  <  <  r..U  Y  U  }..5  1  |..1..!..#  #  #  #  >..5..;..Q  #  #  #  #  #  P  m.. X.+  .X.T  Y  U  XXX<  9  q..c..0  <  ,  ,  V  Y  _  T  7..+  @  #  #  #  #  #  #  #  #  #  #  #  #  #  #  @  ",
":  +  @  @  #  #  x  Q  ;..x  >..S  5..x  #  >..]  T  ^  U..2..P..h  oXX,              <  _..)  o..e..t..OXXT  0..W  v  #  #  #  #  #  P  [  ;..{  x  x  {  Q  +XX@XXb..5  X  .        ,  E..)  9  7  e..G..Y  Y  J  w..7..#XX$XX4..#  #  #  #  >..W  [  Q  #  #  #  #  #  P  $XX#XXf..8  3..U  Y  U  j  e..2..c..0  <  7  <  w  Y  _  ;..y..@  @  #  #  d..P  4..4..4..4..P  S  #  #  #  @  $  ",
"$  $  #  #  #  #  P  Q  [  {  >..n..5..4..@  @  %XXT  U  V..w..G..c..(  ,        .  .  <  )  U  H  `..|..#XX&XX;..[  c  #  #  #  #  #  P  [  <..{  x  ]  W  ;..Y  *XX=XX,  .        .  <  V  )  <  .  ,  N..U  Y  U  M..+  A..m..4..#  #  #  #  >..5..;..Q  #  #  #  #  #  !..1..*..5  x..e..G..Y  Y  J  2..w..c..0  <  7  <  w  Y  _  Q  @  #  #  #  #  J..v..W..W  W  W..v..J..#  @  @  +  :  ",
"@  #  #  #  #  #  E  W  [  ;..-XX6..m..@  $  +  ;XXi..Y  :XX>XXc../..e..,        .  ,  ,XX)  T  K  <XX'..$XXW  [  0..W  >..#  #  #  #  P  [  0..x  >..#  z..{  T  T  $..<  .  .        ,  E..)  9     7  <  3..U  _  T  1XXP  m..P  #  #  #  #  >..W  [  Q  >..#  #  #  $  A..2XX8..<  .  ,  N..U  Y  U  V..=XXc..0  e..,  ,  &..Y  _  [  S  #  #  #  #  #  #  ,..Q  [  }  >..#  #  $  +  O  -  ",
"#  #  #  #  #  #  >..}  0..<..u..W..b  $  +  9..f..L  Y  _  S..)  C  <  7        7  <  q  )  3XX4XX5XX:..>..:..W  0..[  P  #  #  #  #  P  Q  [  a  @  $  +  ;XXU  _  U  }..7  .        <  w  )  <     .  <  f..h.._  [  {  4..W  4..#  #  #  #  #  5..;..Q  #  #  #  @  +  6XXK  H  ,  .     <  XXXY  Y  Y  7XXg  C  5  ;  8  U..U  ;..;..,..#  #  #  #  #  #  P  Z..[  y  #  @  @  +  *  o  X  ",
"#  #  #  #  #  #  #  c  Z..0..0..~  R  +  2  -  e..XXXY  _  8XXU  ,XX,  .        ,  {..h  9XX0XXy..@  #  #  >..a  [  ;..}  #  #  #  #  P  Q  ;..y  $  +  9..w..L  Y  Y  q  <  7        <  E..g  <  .  X  o  9..T..Z..;..[  qXXW  P  #  #  #  #  >..W  [  Z..>..#  $  +  9..wXXh  H  9        ,  e..J  Y  _  eXXU  C  q..1  R..+  rXX;..[  ]  >..#  #  #  #  #  P  [  [  y  @  @  +  O  o  X  .  ",
"#  #  #  #  #  #  #  P  [  0..0..T  `  2  o  ,  ,  tXXY  0.._  U  N..7     .  .  9  3..i..yXX+  @  #  #  #  #  P  [  [  W  E  #  #  #  P  Q  Y  z  +  2  1  8  P..Y  Y  L  q..,  .  .  <  w  )  5  uXXo  2  +  $  K..Q  0..;..Q  4..#  #  #  #  >..W..0..Q  @  $  +  *  4  X..h  H  9  .        ,  j  U  _  _  Y  N  f..2  +  @  P  Q  ;..W  ,..#  #  #  #  #  P  Q  ;..y  $  +  *  o  X  .     ",
"#  #  #  #  #  #  #  #  Q  0..0..M  f..&  X  .  .  5  U  _  _  g  <  .     .  7  e..C..^  iXX@  #  #  #  #  #  >..{  0..Q  ,..>..#  #  4..[  Y  @..b..8  ;  ,  j  U  _  Y  3..<  ,  ,  e..E..U  2..1  *  +  @  @  #  [..[  0..Q  P  #  #  #  #  >..W  <..~  $  +  2  1  8  X..)  8..<  7     .     <  XXXY  _  Y  r  7..+  $  #  #  K..W  [  Z..,..>..#  #  >..P  [  ;..z  +  2  o  X           ",
"#  #  #  #  #  #  #  #  ]  T  U  pXX5  X  .        9  V  U  :XXV  ,  .     ,  B  ~..i..~  !..d..#  #  #  #  |  P  ]  Q  Q  [..P  S  P  y  ~  T  h..~..D..,  7  <  %..U  U  )  /  aXXaXXX..L  i..sXX|..+  @  #  #  #  S  W  Q  W  4..#  #  |  P  ,..W  ;..T  t  |..dXXfXXg..C  h  V  g..gXX7        ,  e..J  T  T  hXX+  @  #  #  #  #  ,..W  W  W  6..n..P  P  c  ~  ^  yXXf..o  .  .  .        ",
"#  #  #  #  #  #  #  #  t  1..<XXj  ,              ,  ,XXc..c..,XX,     .  ;  jXX<XX1..Q..kXX!  #  #  #  #  lXXH..Q..5..W..Q..kXXi  v..$XX1..h  h  zXXxXX,  .  ,  <  P..g  h  h..c..9XXc..h  i..2XXcXX@  #  #  #  #  #  n..v..kXXP  #  #  lXXH..v..m..$XX1..2XXvXXD..bXXzXXc..h..c..xXXbXX7        7  <  }..2XX1..D  @  #  #  #  #  #  #  |  n..v..5..Q..Q..Q..m..rXXl  nXX&  ,                 ",
"#  #  #  #  #  #  #  $  +  F..8  ,  .  .           .  9  <  <  ,  .  .  X  -  7..5XX:..>..>..#  #  #  #  #  #  #  >..>..>..>..>..@  $  +  b..t..2..e..<  ,     .  7  9  e..(  (  2..2..w..b..0XX5XX@  #  #  #  #  #  #  #  #  #  #  #  #  #  #  @  $  +  F..t..e..<  ,  e..2..2..e..5  ,  .     .  .  X  1  mXX5XX@  #  #  #  #  #  #  #  #  #  >..S  4..P  !..$  +  6  5  X  .           .     ",
"#  #  #  #  #  #  $  +  2  &  ,  ,  .                 7  7  7  7  .  ,  o  2  +  @  #  #  #  #  #  #  #  #  #  #  #  #  #  #  @  @  +  R..5  ,  ,  7  7  7     .     7  ,  ,  ,  ,  5  4  9..+  @  #  #  #  #  #  #  #  #  #  #  #  #  #  #  @  @  +  4  5  ,  ,  .  7  7  7  ,  7  7  7  .     .  X  &  *  +  @  #  #  #  #  #  #  #  #  #  #  #  #  #  @  $  +  4  &  X  .                    ",
"#  #  #  #  #  @  +  *  o  X  .                 .           .  .  X  o  O  +  $  #  #  #  #  #  #  #  #  #  #  #  #  #  #  #  @  +  O  &  X     .                             .  X  o  O  +  @  #  #  #  #  #  #  #  #  #  #  #  #  #  #  #  @  +  O  o  .  .     .                          .  X  o  O  +  @  #  #  #  #  #  #  #  #  #  #  #  #  #  #  @  +  *  o  X     .                    ",
"#  #  #  #  $  +  O  o  X     .                          .     X  o  O  +  @  #  #  #  #  #  #  #  #  #  #  #  #  #  #  #  $  +  O  o  X  .                                .  X  o  O  +  @  @  #  #  #  #  #  #  #  #  #  #  #  #  #  #  $  +  O  o  X  .                 .     .     .  .  X  o  O  +  @  @  #  #  #  #  #  #  #  #  #  #  #  #  #  $  +  O  o  X                             ",
"#  #  #  $  +  O  o  .  .  .                             .  X  o  O  +  @  #  #  #  #  #  #  #  #  #  #  #  #  #  #  #  $  +  O  &  X     .                             .  X  o  O  +  @  #  #  #  #  #  #  #  #  #  #  #  #  #  #  #  $  +  O  o  X  .        .                       .  X  o  O  +  @  #  #  #  #  #  #  #  #  #  #  #  #  #  #  $  +  O  o  X     .                          ",
"#  #  @  +  O  o  X  .                             .  .  .  ;  O  +  $  #  #  #  #  #  #  #  #  #  #  #  #  #  #  #  @  +  O  o  X  .           .                    .  .  o  O  +  $  #  #  #  #  #  #  #  #  #  #  #  #  #  #  #  @  +  O  o  X                    .              .  .  ;  MXX+  $  #  #  #  #  #  #  #  #  #  #  #  #  #  #  @  +  O  o  X  .                             .  ",
"#  #  $  NXX-  X  .              .                       X  o  =  $  #  #  #  #  #  #  #  #  #  #  #  #  #  #  #  #  $  :  MXXX     .                                .  X  o  =  $  #  #  #  #  #  #  #  #  #  #  #  #  #  #  #  #  $  NXX-  X     .                                .  X  o  =  $  #  #  #  #  #  #  #  #  #  #  #  #  #  #  #  $  NXX-  X     .                          .     "};
