/* XPM */
static char * newwindowbutton_xpm[] = {
"16 16 7 1",
" 	s iconColor6	m white	c yellow",
".	s None	m none	c None",
"X	c #808080",
"o	c white",
"O	c #c0c0c0",
"+	s iconColor1	m black	c black",
"@	c #000080",
" ..X ..X........",
"X .Xo.X XXXXXXXX",
".X X X OOOOOOOX+",
".OX oXXXX@@@@@X+",
"XXXo  X@o+o+o+X+",
"..oXooXXXXXXXXX+",
"XOoX oooooooooX+",
"XOoXooooooooooX+",
"XOooooooooooooX+",
"XOooooooooooooX+",
"XOooooooooooooX+",
"XOooooooooooooX+",
"XOooooooooooooX+",
"XXXXXXXXXXXXXXX+",
"++++++++++++++++",
"................"};
