/* XPM */
static char * nextwindowbutton_xpm[] = {
/* width height num_colors chars_per_pixel */
"16 16 5 1",
/* colors */
" 	s None	m none	c None",
".	c #808080",
"X	s iconColor1	m black	c black",
"o	c white",
"O	c #000080",
/* pixels */
"    .........   ",
"    .........   ",
"    XoooooooX   ",
"    XoooooooX   ",
" ........oooX   ",
" ........oooX   ",
" Xoooooo.....   ",
" XoooOOOOOOOOOO ",
" XoooOOOOOOOOOO ",
" XoooXooooooooX ",
" XXXXXooooooooX ",
"     XooooooooX ",
"     XooooooooX ",
"     XooooooooX ",
"     XXXXXXXXXX ",
"                "};
