/* XPM */
static char * trcorner_xpm[] = {
"7 7 3 1",
" 	c black",
".	c #808080",
"X	s None	c None",
"       ",
" ..... ",
"     . ",
"XXXX . ",
"XXXX . ",
"XXXX . ",
"XXXX   "};
