/* XPM */
static char * menubarpix_xpm[] = {
/* width height num_colors chars_per_pixel */
"100 22 2 1",
/* colors */
" 	c #c3c3c3",
".	s iconColor1	m black	c black",
/* pixels */
"                                                                                                    ",
"                                                                                                    ",
"                                                                                                    ",
"                                                                                                    ",
"                                                                                                    ",
"                                                                                                    ",
"      .       .                           .....                                                     ",
"      ..     ..                           .    .                                                    ",
"      ..     ..   ...   . ..   .   .      .    .   ...   . .                                        ",
"      . .   . .  .   .  ..  .  .   .      .    .  .   .  ..                                         ",
"      . .   . .  .   .  .   .  .   .      .....       .  .                                          ",
"      .  . .  .  .....  .   .  .   .      .    .   ....  .                                          ",
"      .  . .  .  .      .   .  .   .      .    .  .   .  .                                          ",
"      .   .   .  .   .  .   .  .  ..      .    .  .   .  .                                          ",
"      .   .   .   ...   .   .   .. .      .....    ... . .                                          ",
"                                                                                                    ",
"                                                                                                    ",
"                                                                                                    ",
"                                                                                                    ",
"                                                                                                    ",
"                                                                                                    ",
"                                                                                                    "};
