/* XPM */
static char * brcorner_xpm[] = {
"7 7 3 1",
" 	s None	c None",
".	c black",
"X	c #808080",
"    ...",
"    .X.",
"    .X.",
"    .X.",
".....X.",
".XXXXX.",
"......."};
