/* XPM */
static char * explorerbutton_xpm[] = {
"16 16 8 1",
" 	s None	c None",
".	c #808080",
"X	c #c0c0c0",
"o	c yellow",
"O	c white",
"+	c black",
"@	c cyan",
"#	c blue",
"                ",
"  .....         ",
" .XoXoX.        ",
".XoXoXoX......  ",
".OOOOOOOOOOOO.+ ",
".OoX+++XoXoXo.+ ",
".OX+@o@+XoXoX.+ ",
".O+@o@o@+XoXo.+ ",
".O+o@o@o+oXoX.+ ",
".O+@o@o@+XoXo.+ ",
".OX+@o@+#oXoX.+ ",
".OoX++++##oXo.+ ",
"........+##...+ ",
" +++++++++##+++ ",
"          +##   ",
"           +.   "};
