/* XPM */
static char * viewwindowbutton_xpm[] = {
"16 16 8 1",
" 	s None	m none	c None",
".	c #808080",
"X	c #c0c0c0",
"o	s iconColor1	m black	c black",
"O	c #000080",
"+	c white",
"@	c cyan",
"#	s iconColor5	m black	c blue",
"                ",
"................",
".XXXXXXXXXXXXX.o",
".XOOOOOOOOOOOO.o",
".XOOOOOO+o+o+o.o",
".X..ooo........o",
".X+o@+@o++++++.o",
".Xo@+@+@o+++++.o",
".Xo+@+@+o+++++.o",
".Xo@+@+@o+++++.o",
".X+o@+@o#+++++.o",
".X++oooo##++++.o",
".X++++++o##+++.o",
".........o##...o",
"ooooooooooo##ooo",
"           oo   "};
