/* XPM */
static char * Digit6_t_xpm[] = {
"10 15 3 1",
" 	c None",
".	c green",
"X	s None	c None",
" ........ ",
". ......XX",
"..XXXXXXXX",
"..XXXXXXXX",
"..XXXXXXXX",
"..XXXXXXXX",
".X......XX",
"X........X",
".X......X.",
"..XXXXXX..",
"..XXXXXX..",
"..XXXXXX..",
"..XXXXXX..",
".X......X.",
"X........X"};
