/* XPM */
static char * Digit4_t_xpm[] = {
"10 15 3 1",
" 	c None",
".	s None	c None",
"X	c green",
" ........ ",
"X .......X",
"XX......XX",
"XX......XX",
"XX......XX",
"XX......XX",
"X.XXXXXX.X",
".XXXXXXXX.",
"..XXXXXX.X",
"........XX",
"........XX",
"........XX",
"........XX",
".........X",
".........."};
