/* XPM */
static char * Digit5_t_xpm[] = {
"10 15 3 1",
" 	c None",
".	c green",
"X	s None	c None",
" ........ ",
". ......XX",
"..XXXXXXXX",
"..XXXXXXXX",
"..XXXXXXXX",
"..XXXXXXXX",
".X......XX",
"X........X",
"XX......X.",
"XXXXXXXX..",
"XXXXXXXX..",
"XXXXXXXX..",
"XXXXXXXX..",
"XX......X.",
"X........X"};
