/* XPM */
static char * Digit9_t_xpm[] = {
"10 15 3 1",
" 	c None",
".	c green",
"X	s None	c None",
" ........ ",
". ......X.",
"..XXXXXX..",
"..XXXXXX..",
"..XXXXXX..",
"..XXXXXX..",
".X......X.",
"X........X",
"XX......X.",
"XXXXXXXX..",
"XXXXXXXX..",
"XXXXXXXX..",
"XXXXXXXX..",
"XX......X.",
"X........X"};
