/* XPM */
static char * Digit2_t_xpm[] = {
"10 15 3 1",
" 	c None",
".	c green",
"X	s None	c None",
" ........ ",
"X ......X.",
"XXXXXXXX..",
"XXXXXXXX..",
"XXXXXXXX..",
"XXXXXXXX..",
"XX......X.",
"X........X",
".X......XX",
"..XXXXXXXX",
"..XXXXXXXX",
"..XXXXXXXX",
"..XXXXXXXX",
".X......XX",
"X........X"};
