/* XPM */
static char * Digit1_t_xpm[] = {
"10 15 3 1",
" 	c None",
".	s None	c None",
"X	c green",
" ........ ",
". .......X",
"........XX",
"........XX",
"........XX",
"........XX",
".........X",
"..........",
".........X",
"........XX",
"........XX",
"........XX",
"........XX",
".........X",
".........."};
