/* XPM */
static char * Percent_t_xpm[] = {
"16 16 2 1",
" 	s None	c None",
".	c green",
"                ",
"                ",
"   ....     ..  ",
"  ... .......   ",
" ...   .  ..    ",
" ..    .  .     ",
" ..   .  ..     ",
" ... .. ..      ",
"  ...  .. ....  ",
"      .. ... .. ",
"      .. ..   . ",
"     .. ..    . ",
"    ..  ..   .  ",
"   ..   ... ..  ",
"   ..    ...    ",
"                "};
