/* XPM */
static char * help_next_xpm[] = {
"24 24 7 1",
" 	s None	m none	c None",
".	c #808080",
"X	c #008000",
"o	c #c0c0c0",
"O	c green",
"+	c white",
"@	s iconColor1	m black	c black",
"                        ",
"                        ",
"                        ",
"             ..         ",
"             XX.        ",
"             XoX.       ",
"             XOoX.      ",
"             XoOoX.     ",
"  O+O+O+O+O+OXOoOoX.    ",
"  +OoOoOoOoOoOoOoOoX.   ",
"  OoOoOoOoOoOoOoOoOoX.  ",
"  +OoOoOoOoOoOoOoOoOoX. ",
"  X..................X. ",
"  .X.X.X.X.X.XXXXXXX.@  ",
"  X.X.X.X.X.XXXXXXX.@   ",
"  .@@@@@@@@@@@XXXX.@    ",
"             @XXX.@     ",
"             @XX.@      ",
"             @X.@       ",
"             @.@        ",
"             @@         ",
"                        ",
"                        ",
"                        "};
