/* XPM */
static char *XCP_rbutton_off[] = {
"12 12 5 1",
" 	c None s None", /* #c0c0c0 */
".	c #808080 s FrameShadowColor",
"X	c black",
"o	c white s DocumentBgndColor",
"v	c white s FrameHiliteColor",
"    ....    ",
"  ..XXXX..  ",
" .XXooooXXv ",
" .Xoooooo v ",
".Xoooooooo v",
".Xoooooooo v",
".Xoooooooo v",
".Xoooooooo v",
" .Xoooooo v ",
" .  oooo  v ",
"  vv    vv  ",
"    vvvv    "};
