/* XPM */
static char * gtb_zoomin_xpm[] = {
"16 16 4 1",
" 	s None	c None",
".	c #808080",
"X	c black",
"o	c white",
"   .XXX.        ",
"  X.   .X       ",
" X  oo   X      ",
".. o     ..     ",
"X o       X     ",
"X o       X     ",
"X o       X     ",
"..       ..     ",
" X       X.     ",
"  X.   .XXX     ",
"   .XXX..XXX    ",
"  X       XXX   ",
"  X        XXX  ",
"XXXXX       XXX ",
"  X          XX ",
"  X             "};
