/* XPM */
static char *printerIconData[] = {
/* width height num_colors chars_per_pixel */
"32 34 7 1",
/* colors */
" 	s None	c None",
".	c #808080",
"X	c white",
"o	c black",
"O	c #c0c0c0",
"+	c green",
"@	c red",
/* pixels */
"                    ...         ",
"                   .XXX..       ",
"                  .XXXXXX..     ",
"                 .XXooXXXXX..   ",
"                .XXXXXooXXOoo   ",
"               .XXooXXXXXOo     ",
"             ...XXXXooXXOo      ",
"           ..X.XXooXXXXOo       ",
"         ..XOO.XXXXooXOo        ",
"       ..XOO..XXooXXXXo...      ",
"     ..XOO...ooXXXooXOo.OO..    ",
"   ..XOO....OOOooXXXXoOO..OO.o  ",
" ..XOO..OO..OOOOOooXOo..OO...o  ",
" .XX..OO++OO..OOOOOo..OO.....o  ",
" .XO.XXOOO@@OO..OO..OO.......o  ",
" .XO.OOXXOOOOOOO..OO.........o  ",
" .XO.OOOOXXOOO..OO...........o  ",
" .XO.OOOOOOX..OO.............o  ",
" .XO.OOOOOOO.X..............oo  ",
" ..O.OOOOOOO.O............ooo   ",
"   ..OOOOOOO.O..........oo      ",
"     ..OOOOO.O........oo.ooo    ",
"       ..OOO.O......oo .X...oo  ",
"         ..O.O....oo ..XXXXX..o ",
"           ..O..oo ..XXXooXXXX.O",
"             .oo  ..XooXXXooXOoO",
"                 ..XXXXooXXOOoOo",
"                ..XooXXXXXOooOo ",
"               ..XXXXooXXOoOOo  ",
"               OO..XXXXXOoOoo   ",
"               ..OO..XXOoOo     ",
"                 ..OO.OoOo      ",
"                   ..OoOo       ",
"                     ..o        "};
