/* XPM */
static char * multiwin_xpm[] = {
"40 40 6 1",
" 	s None	c None",
".	c #808080",
"X	c black",
"o	c #c0c0c0",
"O	c #000080",
"+	c white",
"                                        ",
" ..............................X        ",
" .oooooooooooooooooooooooooooo.X        ",
" .oOOOOOOOOOOOOOOOOOOOOOOOOOOO.X        ",
" .oOOOOOOOOOOOOOOOOOOOOOOOOooX.X        ",
" .oOOOOOOOOOOOOOOOOOOOOOOOOooX.X        ",
" .oOOOOOOOOOOOOOOOOOOOOOOOOXXX.X        ",
" .o++++++++++++++++++++++++++++X        ",
" .o++++++++++++++++++++++++++++X        ",
" .o++++++++++++++++++++++++++++X        ",
" .o++++++++++++++++++++++++++++X        ",
" .o++++++..............................X",
" .o++++++.oooooooooooooooooooooooooooo.X",
" .o++++++.oOOOOOOOOOOOOOOOOOOOOOOOOOOO.X",
" .o++++++.oOOOOOOOOOOOOOOOOOOOOOOOOooX.X",
" .o++++++.oOOOOOOOOOOOOOOOOOOOOOOOOooX.X",
" .o++++++.oOOOOOOOOOOOOOOOOOOOOOOOOXXX.X",
" .o++++++.o+++++++++++++++++++++++++++.X",
" .o++++++.o+++++++++++++++++++++++++++.X",
" .o++++++.o+++++++++++++++++++++++++++.X",
" .o++.....................X+++++++++++.X",
" .o++.ooooooooooooooooooo.X+++++++++++.X",
" .o++.oOOOOOOOOOOOOOOOOOO.X+++++++++++.X",
" .o++.oOOOOOOOOOOOOOOOooX.X+++++++++++.X",
" .ooo.oOOOOOOOOOOOOOOOooX.X+++++++++++.X",
" XXXX.oOOOOOOOOOOOOOOOXXX.X+++++++++++.X",
"     .o++++++++++++++++++.X+++++++++++.X",
"     .o++++++++++++++++++.X+++++++++++.X",
"     .o++++++++++++++++++.X+++++++++++.X",
"     .o++++++++++++++++++.X+++++++++++.X",
"     .o++++++++++++++++++.X+++++++++++.X",
"     .o++++++++++++++++++.Xooooooooooo.X",
"     .o++++++++++++++++++.X............X",
"     .o++++++++++++++++++.XXXXXXXXXXXXXX",
"     .o++++++++++++++++++.X             ",
"     .ooooooooooooooooooo.X             ",
"     .....................X             ",
"     XXXXXXXXXXXXXXXXXXXXXX             ",
"                                        ",
"                                        "};
