/* XPM */
static char * tb-details_xpm[] = {
"16 16 3 1",
" 	c None s None",
".	c black",
"X	c #000080",
"                ",
"                ",
"   .... ... ... ",
"                ",
"XXXXXXXXXXXXXXXX",
"                ",
"X  .... ... ... ",
"                ",
"X  .... ... ... ",
"                ",
"X  .... ... ... ",
"                ",
"X  .... ... ... ",
"                ",
"X  .... ... ... ",
"                "};
