/* XPM */
static char * bclose_xpm[] = {
"11 10 2 1",
" 	s None	c None",
".	c black",
"           ",
"  ..    .. ",
"   ..  ..  ",
"    ....   ",
"     ..    ",
"    ....   ",
"   ..  ..  ",
"  ..    .. ",
"           ",
"           "};
