/* XPM */
static char *es[] = {
"71 42 9 1",
". c #000000",
"# c #000078",
"a c #0000f8",
"b c #007800",
"c c #787800",
"d c #806058",
"e c None s None",
"f c #f8fc00",
"g c #f8fcf8",
"eeeeeeeeeeeeeeeeeeeeeeeeeeeeaabbbbbbaaaaaaeeeeeeeeeeeeeeeeeeeeeeeeeeeee",
"eeeeeeeeeeeeeeeeeeeeeeeeeaaaaaaa#bbbb#aaaaaaaaeeeeeeeeeeeeeeeeeeeeeeeee",
"eeeeeeeeeeeeeeeeeeeeeeeaaaaaaaaaa#bbbb#aaaaaaaaaeeeeeeeeeeeeeeeeeeeeeee",
"eeeeeeeeeeeeeeeeeeeeaaaaaaaaaaaaaabbbbbbaaaaaaaaaaaeeeeeeeeeeeeeeeeeeee",
"eeeeeeeeeeeeeeeeeeaaaaaaaaaaaaaaaaabbbb#aaaaaaaaaaaaaeeeeeeeeeeeeeeeeee",
"eeeeeeeeeeeeeeeeeaaaaaaaaaaaaaaaaaaabbb#aaaaaaaaaaaaaaeeeeeeeeeeeeeeeee",
"eeeeeeeeeeeeeeeaaaaaaaaaaaaaaaaaaaaaaabaaaaaaaaaaaaaaaaaeeeeeeeeeeeeeee",
"eeeeeeeeeeeeeeaaaaaaaaaaaaabaaaaaaaaaaaaaaaaaaaaaaaaaaaaaeeeeeeeeeeeeee",
"eeeeeeeeeeeeeaaabbbbaabaaaabbaaaaaaaaaaaaaaaaaaaaaaaaaaaaaeeeeeeeeeeeee",
"eeeeeeeeeeeeaabbbbbbbbbbabbbbbaaaaaaaaaaaaaaaaaaaaaaaaabbbbeeeeeeeeeeee",
"eeeeeeeeeeeaaabbbbbbbbbbbbbbaaabaaaaaaaaaaaaaaaaaaaaaabbbbbbeeeeeeeeeee",
"eeeeeeeeeeaaabbbbbbbbbbbbbbbaaabb#aaaaaaaaaaaaaaaaaabbbb#aaaaeeeeeeeeee",
"eeeeeeeeeaaabbbaabbbbbbbbbbbaaabbb#aaaaaaaaaaaaaaa#bbb##aaaaaaeeeeeeeee",
"eeeeeeeeaaabbbaaaaabbbbbbbbbb#a#bbb#aaaaaaaaaaaaaaffb#aaaaaaabaeeeeeeee",
"eeeeeeeaaaabaaaaaaabbbbbbbbbbb#bbbbb#aaaaaaaaaaaaagf#aaaaaaabaabeeeeeee",
"eeeeeeeaaaaaaaaaaaabbbbbbbbbbbbbbbbbbaaaaaaaaaaaagfgfaaaaababaaabeeeeee",
"eeeeeeaaaaaaaaaaaaaabbbbbbbbbbbbbbb#aaaaaaaaaaaaaffffaaaaaaaaaaabeeeeee",
"eeeeeaaaaaaaaaaaaaaaabbbbbbbbbbbbbbbaaaaaaaaaaaafg#affaaaaaaaabbbaeeeee",
"eeeeebaaaaaaaaaaaaaabbbbbbbbbbbbbbbbaaaaaaaaaaaagfaaffaaaaaaabbbaaeeeee",
"eeeeabbaaaaaaaaaaaaabbbbbbbbbbbbbbbaaaaaaaaaaaaaffaagfaaaaaaabb##bbeeee",
"eeeebaabaaaaaaaaaaaabbbbbbbbbbbbbbaaaaaaaaaaaaafg#aa#.aaaafa###bbbbeeee",
"eeebbaabaaaaaaaaaaaabbbbbbbbbbbbb#aaa#aaaaaaaaaff#aa#.aaaafabbbbbbbeeee",
"eeebbbaaaaaaaaaaaaaabbbbbbbbbbbbbbaaaafffffffffff#aa#fffffffffffbbbbeee",
"eeebbbaaaaaaaaaaaaaabbbbbbbbbbbbb#aaaafgfgfgfgfgf#aa#fgfgfgfgfgfbbbbeee",
"eebbbbbaaaaafffaaaaaabbbbbbbbbbbbaaaaa#agf.d#a#aaaaaaaabbbd.ffcbbbbbbee",
"eebbbbbaaaaff#faaaaaaabbbbbbbb#b#afffcafafgdaaaffff#aabbbbbgfcbbbbbbbee",
"ebbbbbbaaaffa#faaaaaababfffbaaaaaffafaffaaffafff###aa#bbbbffbbbbbbbbbee",
"ebbbbbbaaffaa.ffa#aaaaaffafbafaagfafaffaafagff##aaaaabbbcfg.bbbbbbbbbbe",
"ebb#bbaaffa.ffaadf#faaffaffbfffafaffffaagfffggcaaaaaabbcff.bbbbbbbbbbbe",
"bbb#aaaaffaff#adffgfaafaffaffafafffaafffff#acffaaaaaabbgfcbbbbbbbbbbbbe",
"bbbbaaaff#ffa#df#.ggaafffaffafffgfaaaaaff#aaafffa#aa##gfgbbbbbbbbbbbbbe",
"bbbbbaafgffaadfa.faf#fgfaffagfafffaaaafgf#aaagf#aaaa#abffcbbbbbbbbbbbbb",
"bbbffffgf#aaf.aaffafffafgfaafaffafaa#gffaaaagf#aaaddaa#b.gbbbbbbbbbbbbb",
"bbaggggffaaff.aaf#a#faaaaaaaaffaffaaffafaa##ffa.##ffdd##ff####bbbbbbbbb",
"bb#a####gfffbaff#aaaaaaaaaaagfafgaaffaffaaagf#aaf.##ffaabbfaaa##bbbbbbb",
"abbaaaaafff#aa##aaaaaaaaaaaafaffaaafaffaaaaffacff.aa##ffbbfaaaaa#bbbbbb",
"aab#aaaa###aaaaaaaaaaaaaaaaaffgbaaafffaabbaf.aafaaaaaagfbbffaaaa#bbbbbb",
"aa#baaaaaaaaaaaaaaaaaaaaaaaaaaaabaaaaaabbbffaffaaaaaaaafgbffa#aa#bbbbbb",
"aaab#aaaaaaaaaaaaaaaaaaaaaaaaaaabb#bbbbbbbf#ffaaaaaaaaaaff#ff#aa#bbbbbb",
"ab##bb.aa#aaaaaaaaaaaaaaaaaaaaaaaabcbbbbbffff##aa#aaaaaaagfgfa#aaaabaaa",
"abbbaaaaaaaaaaaaaaaaaaaaaaaaaaaaabbbbbbb#ffbbbaaab#aaaaaaaaffaaaaaaaaaa",
"aaaaaaaaaaaaaaaaaaaaaaaaaaaaaaaaabbbbbbbbbbbbbb###aaaaaaaaaaaaaaaaaaaaa"
};
