/* XPM */
static char *onyx3232[] = {
/* width height num_colors chars_per_pixel */
"    32    32      252            2",
/* colors */
".. c #540614",
".# c #348644",
".a c #39470c",
".b c #9e8a36",
".c c #a1c56c",
".d c #894509",
".e c #9ca24c",
".f c #406a10",
".g c #876317",
".h c #d4852f",
".i c #6c021c",
".j c #84b24c",
".k c #d8a448",
".l c #9e8470",
".m c #d4c576",
".n c #74883c",
".o c #684410",
".p c #6a6519",
".q c #b97119",
".r c #e0e9b9",
".s c #78a044",
".t c #a7a391",
".u c #866b5a",
".v c #704440",
".w c #6a6546",
".x c #ab9737",
".y c #884434",
".z c #6f2b1c",
".A c #303a18",
".B c #8a886a",
".C c #62540b",
".D c #703312",
".E c #9cbe54",
".F c #877927",
".G c #9c9476",
".H c #f9f4dd",
".I c #d6c8b9",
".J c #687454",
".K c #4f2609",
".L c #b78549",
".M c #875707",
".N c #888634",
".O c #afb59f",
".P c #8a7355",
".Q c #4c3c04",
".R c #d0a47c",
".S c #744204",
".T c #717124",
".U c #b4966c",
".V c #d48768",
".W c #bbb45b",
".X c #a46214",
".Y c #d0b268",
".Z c #ba9452",
".0 c #86543a",
".1 c #8f916a",
".2 c #dadac6",
".3 c #8d243f",
".4 c #78531f",
".5 c #9a5707",
".6 c #b7bc67",
".7 c #7b754b",
".8 c #843a04",
".9 c #89925c",
"#. c #541614",
"## c #365428",
"#a c #47793f",
"#b c #f8e4cc",
"#c c #f7f4ed",
"#d c #5e280f",
"#e c #e9a54c",
"#f c #a4764c",
"#g c #a7854f",
"#h c #bac3ac",
"#i c #8d6532",
"#j c #d49a44",
"#k c #6c5234",
"#l c #9c761c",
"#m c #a4948c",
"#n c #c2a55c",
"#o c #604c23",
"#p c #a1944f",
"#q c #777361",
"#r c #94cd94",
"#s c #bb8c4d",
"#t c #bcb290",
"#u c #a05442",
"#v c #4f9d5f",
"#w c #766617",
"#x c #b8aa9c",
"#y c #776b41",
"#z c #762433",
"#A c #981530",
"#B c #bc8264",
"#C c #dcd784",
"#D c #e9e5dc",
"#E c #94886e",
"#F c #88776c",
"#G c #c0a474",
"#H c #ba793c",
"#I c #665c11",
"#J c #dbd0b7",
"#K c #888250",
"#L c #7c7226",
"#M c #602a2c",
"#N c #a48d4c",
"#O c #795638",
"#P c #a99d52",
"#Q c #57671c",
"#R c #7cb476",
"#S c #cead60",
"#T c #72342c",
"#U c #865426",
"#V c #c4b65c",
"#W c #e6dcd1",
"#X c #98542c",
"#Y c #c4be68",
"#Z c #545214",
"#0 c #fcfdf6",
"#1 c #c8d0c4",
"#2 c #a57433",
"#3 c #c48b49",
"#4 c #984a04",
"#5 c #728f42",
"#6 c #a7655c",
"#7 c #794822",
"#8 c #bab36e",
"#9 c #648a34",
"a. c #cc9e5c",
"a# c #eb9e32",
"aa c #8e343c",
"ab c #bec266",
"ac c #b4665c",
"ad c #649961",
"ae c #5f161c",
"af c #d47a2c",
"ag c #80dc9c",
"ah c #504708",
"ai c #71161f",
"aj c #83c587",
"ak c #e4c264",
"al c #623c06",
"am c #ccb2ac",
"an c #799b6c",
"ao c #a4623c",
"ap c #47632f",
"aq c #ce8a47",
"ar c #57723c",
"as c #b48c90",
"at c #620812",
"au c #8eac54",
"av c #a07c78",
"aw c #c19a87",
"ax c #4c5b37",
"ay c #dfbd64",
"az c #443a1a",
"aA c #a0ac8c",
"aB c #872b3f",
"aC c #768557",
"aD c #548250",
"aE c #512b24",
"aF c #845a54",
"aG c #c3b9ac",
"aH c #79665d",
"aI c #7c5858",
"aJ c #4c8a4f",
"aK c #796531",
"aL c #613a29",
"aM c #d48e3c",
"aN c #9cb27c",
"aO c #a19c6c",
"aP c #4c2114",
"aQ c #605c3e",
"aR c #a59c8e",
"aS c #a45b41",
"aT c #b98b77",
"aU c #a47e3c",
"aV c #9c6e60",
"aW c #8a3c37",
"aX c #8e8f85",
"aY c #543a34",
"aZ c #e8c494",
"a0 c #aca65c",
"a1 c #947e34",
"a2 c #e4d680",
"a3 c #c47a50",
"a4 c #daae54",
"a5 c #644e0a",
"a6 c #8c4e3c",
"a7 c #677e54",
"a8 c #b1bd99",
"a9 c #8f7d57",
"b. c #b69b54",
"b# c #f8edde",
"ba c #e4ae5c",
"bb c #8a6d32",
"bc c #bbac5f",
"bd c #772d2f",
"be c #b9ab6f",
"bf c #3c6e3c",
"bg c #5c7e4c",
"bh c #64a66c",
"bi c #844428",
"bj c #82a972",
"bk c #8c1c30",
"bl c #cc9e8c",
"bm c #c4863c",
"bn c #acab9c",
"bo c #ac8e3c",
"bp c #949151",
"bq c #c4aaac",
"br c #4f0f0c",
"bs c #866c1c",
"bt c #9f8b6f",
"bu c #6c6c40",
"bv c #6f3d06",
"bw c #785c1d",
"bx c #787c48",
"by c #5f310d",
"bz c #641f27",
"bA c #5c121c",
"bB c #944e2c",
"bC c #92ab70",
"bD c #b47244",
"bE c #646234",
"bF c #946654",
"bG c #7c4539",
"bH c #8a887e",
"bI c #847c38",
"bJ c #94873f",
"bK c #6c4c1c",
"bL c #d4d29c",
"bM c #947a74",
"bN c #948652",
"bO c #dcae64",
"bP c #4c4624",
"bQ c #84a274",
"bR c #648a5c",
"bS c #6f0d24",
"bT c #fcfbe4",
"bU c #4c3214",
"bV c #7a4b0c",
"bW c #a16d0c",
"bX c #787c60",
"bY c #c0bc98",
"bZ c #855c27",
"b0 c #945e24",
"b1 c #515b1f",
"b2 c #9c6e2c",
"b3 c #ece6cc",
"b4 c #6c5204",
"b5 c #e4c8b8",
/* pixels */
"aTbB#u#X#Oawawaw.P.4.gbZbwbw.x.x.xbs.T.pbEb1ar#R#R#R#R#abh#v#vag",
".y#B.V.V.y#faF#Ubb.R#n#n#P.Q.b.x.x#IaOaO.eaO##bC#R#Radadajaj.#ag",
"#X.V.V.V#U#sa..k.4b.#Lbw.F#V#I.bbJ#Z.7bubEbxara7anadbfajajaj#vaJ",
"bB.V.Va3#2bOa4bOa1a5#n.m#V#LbIbpaObxbY.r.2bn.A##bgbRaDajajajaJ#r",
"aSa3#H.8babaa4baa4.gbc.T#Kbp.r.r.r.rbX.2.1a7bnaXbgbQ####bf#aaJ#r",
"bD.d#H#3bWa4baa4.YaUah#J.H.1.r.r.r.r.1a7#1#h.O#c#h##anapbQbjaD#r",
".5.k#e#e#j.M.k.Y#N.Gb3aA.H.Ba8.r.r.9araN.r#h#h#c.OaxbCbRbgbQaran",
".5#e#e#e#j.g#lbsbtbT#0aX.Hbx.9bx#QbC.c#5a8#h.JaX#1#1bRauapbQapa7",
".5aM#e#e.Mayaybs.GbT#0bH#1bx.6.6.nau.E.c#9aA#h#0#0#0bRbCapaCbu.9",
"aM.D.5.5bWay#SaO#DbH#c.t.aa0.6.6.6#Q.Eau#5.AaA#0#0#0#haCax.A.9.B",
".q.qa#a#bWakaK.H#0#caQaQbp.p.6.6.6.T.T.n.e#8.G#0#0#0#D.w.w#EaKbN",
".da#a#a#bWb.aO#0#DbHbY.7.6.T.T.T.Tb1.W.W.W#8.B#0#0#0aX#W.Paw.P#k",
".da#a#a#bma5#m.t#q.2bLbI.W.Ta2#C#C.F.W.W.W.WaxaXaXaX#F#D.Paw.0#T",
".q#4.h#j.g#b#0#0.ObYbpbcbc.ba2a2a2.N.W#V.W#8#E#0#0#0#xaG.ubFbdaW",
".h#4.X.S#obT#0#0#0.7#Z#p#L.m#Ca2a2.F#L#w.b#8.G#0#c#0#caH.0braaaa",
"af#4.L#H#G#t#0#0#0bt#n.C.C.ma2#C.mbbbc#S.baKaR#c#0#cb#.uava6aiaa",
"#4.h#H#saZa9aGaGbna9.Ybs#Sbs#C.W#I#p#S#S#S#P#x#0#0#camaTa6ac#uat",
".8aM#2#3aZ.P.I.2#JbN#n#l#S.b.pbJ#8#w#S#S#S#NaHbHaRaGavbl.yac#uaW",
".d#3#2.Z.ub##0#0b#bN#s.bbo#L#Y.6ab.pbc#S#SaK#c#0#D.IaHawbG#6aWaS",
"#2.Dbvbw#E#0#0#0.HbN#Lb4#w#Vababab#Pa5#pbea9#0#0#0#caLbG.Dbi.z#6",
".X.g.d#g.PbT#0#0bT#o.Qbo#Ibcabab.6.p.xa1#oaX#0#0#0bq#f#3#3aqbBaS",
"bv#2bvbo#ObT#DbnbH.wbb#w#p.C.W.W.e#Ia0#PbxaGaG#c.H.u#s#3aqaq#Xao",
"al#2.Mb2bZ#oaR.2#0aRa9b4bo#Iah.C.Ta5#P#y#W#0#F#E.laK#s#3aq#3.4#7",
".4.Sb2bV#U.U.l#0#0.H.w.Ca1ah#p#p#pbN#Zbp#0#0#E#Jb5.o.4#sbm.L.4#g",
"#ialbv.KbK.R.U.l#0b##qbP.QbN#K.p#oaQazbnaR#WbHb5.4.Lb2albwa5bw#N",
"#ial#i#Uby.L.RaT.uaX#c.Iaz.7.l#t#JaGbH#D#D#mbM#O#g#fbw.Z#P#P#o#N",
".obwb0b0bZ.DaT#7aEavbq#W#W#F.I#J.IaH#W#Db5avaP.l.0bKb.#P.x#PbI.a",
".Kaob0b0b0#7.za6#TaVavaIaHaHaYas#EbMbqaFaL.vaLby.4al#pb.#P#P#QbC",
"bU#ibZ#X.D#daaaaaabzaVasasaF.vaIaIaEbz.vaWbGbz.0#O.4al#P#P.T#5au",
"by#U.D.Kbr.zaiaiaiai..bzbAbz#zbzbz..#zaebSbdby.0a6#U#obPb1.aau.j",
"aPbU.D.z#.bd#zbk#zatbkbkbkbS#zaBaB#zaB.3.3aibd#O#O.oazbuau.s.f.j",
".K#M.z.zaeatatatatbS#A#A#A#A.ibSbS.3.3.3.3bd#.#MaEbU.7b1#9.j.s.f"
};
