/* XPM */
static char * nrxmail_s_xpm[] = {
/* width height num_colors chars_per_pixel */
"32 32 10 1",
/* colors */
" 	s none	c none",
".	c #5a5a5a",
"X	c #808080",
"o	c black",
"O	c #0031ce",
"+	c #949494",
"@	c red",
"#	c #f7f7f7",
"$	c #848484",
"%	c #00009c",
/* pixels */
"                                ",
"              .          Xo     ",
"           .  ..        o       ",
"           X. X.XXX    o  o     ",
"           XXXXXoXXXX.o Xo      ",
"            XXXXXXXXX..o        ",
"         XXXXXXXX...o.          ",
"        XXXXXXX....o            ",
"        XXXXX.... o o           ",
"       XXXXX...  o o            ",
"      XXXX.....                 ",
"     XXX......                  ",
"     XX.OO++@@++OO++@@++OO++@@+ ",
"    XXX.+#####################+o",
"    XXX.+################@@@@#+o",
"    XX..@#$#$$$##########@@@@#%o",
"    XX..@################@@@@#%o",
"    XX..+#$$$#$$$########@@@@#+o",
"    XX..+################@@@@#+o",
"    XX..%#####################@o",
"     X..%#####################@o",
"     X..+########$$$#$$$######+o",
"    XX..+#####################+o",
"   $... @#########$#$$#$######%o",
"   $..  @#####################%o",
"   $.   +#####################+o",
"   ...  OO++@@++OO++@@++OO++@@+o",
"    ...  ooooooooooooooooooooooo",
"     .....                      ",
"       .........                ",
"         .....                  ",
"                                "};
