/* XPM */
static char * printButton_xpm[] = {
"16 16 5 1",
" 	s None	c None",
".	c #808080",
"X	c white",
"o	c #c0c0c0",
"O	c black",
"          ...   ",
"         .XXX.. ",
"        .XooXXXO",
"       .XXXXoXO ",
"     ...XXXXXO  ",
"   ..X.ooooXOo. ",
"  .X.O.O.oooOoo.",
" .X.O.O.O.oooo.O",
".XXo.O.O.ooo...O",
".oXXooO.oo.....O",
".oooXXooo......O",
"OOooo.Xo.....OO ",
"  OOooo....OO   ",
"    OOo..OO     ",
"      OOO       ",
"                "};
