/* XPM */
static char *searchIconData[] = {
/* width height num_colors chars_per_pixel */
"    32    32       10            1",
/* colors */
". c #000000",
"# c #000084",
"a c none s none",
"b c #848484",
"c c #a6a6a6",
"d c #c6c6c6",
"e c #d6d6d6",
"f c #0000ff",
"g c #00ffff",
"h c #ffffff",
/* pixels */  
"aaaaaaaaaaaaaaaaaaaaaaaaaaaaaaaa",
"aaaaaaaaaaaaaaaaaaaaaaaaaaaaaaaa",
"aaaaaaaaaaaaaaaaaaaaaaaaaaaaaaaa",
"aaaaaaaaaaaaaeeeaaaaaaaaaaaaaaaa",
"aaaaaaaaaaaaehe.bbbbaaaaaaaaaaaa",
"aaaaaaaaaaaeh..bhdhdbbaaaaaaaaaa",
"aaaaaaaaaaeh.hdhchchcdbeaaaaaaaa",
"aaaaaaaaaeh.hdedhchchcdbeeeaaaaa",
"aaaaaaaaehh.dhdhdhccchcbhhheeeaa",
"aaaaaaaehh.hhdedhdhccchdbhhhheee",
"aaaaaaeeee.ededhdhdcchcebeeeeae.",
"aaaaaa.ehh.hhdedhdedccedbhhhhe.a",
"aaaaaaa.eh.hdhdedhdhchchbhhhe.aa",
"aaaaaaaa.e.hhdhdhdedhchdbhhe.aaa",
"aaaaaaaaa.e.hhdhdhdhchdbhhe.aaaa",
"aaaaaaaaaa..hhhdhdedhdhbhe.aaaaa",
"aaaaaaaaaa.b.hhhdhdhdhbhe.aaaaaa",
"aaaaaaaaa.bbd..hhheh..he.aaaaaaa",
"aaaaaaaa.fbdhdb....bhhe.aaaaaaaa",
"aaaaaaa.ffghdb.ehhehhe.aaaaaaaaa",
"aaaaaa.ffggfbaa.ehehe.aaaaaaaaaa",
"aaaaa.ffggf#aaaa.eee.aaaaaaaaaaa",
"aaaa.ffggf#aaaaaa.e.aaaaaaaaaaaa",
"aaa.ffggf#aaaaaaaa.aaaaaaaaaaaaa",
"aa.ffggf#aaaaaaaaaaaaaaaaaaaaaaa",
"a.ffggf#aaaaaaaaaaaaaaaaaaaaaaaa",
"a.fggf#aaaaaaaaaaaaaaaaaaaaaaaaa",
"a.fgf#aaaaaaaaaaaaaaaaaaaaaaaaaa",
"aa...aaaaaaaaaaaaaaaaaaaaaaaaaaa",
"aaaaaaaaaaaaaaaaaaaaaaaaaaaaaaaa",
"aaaaaaaaaaaaaaaaaaaaaaaaaaaaaaaa",
"aaaaaaaaaaaaaaaaaaaaaaaaaaaaaaaa" 
};

