/* XPM */
static char * OnyxIcon_xpm[] = {
/* width height ncolors cpp [x_hot y_hot] */
"20 16 7 1 0 0",
/* colors */
" 	s iconColor1	m black	c black",
".	c cyan",
"X	c white",
"o	s iconColor4	m white	c green",
"O	s iconColor6	m white	c yellow",
"+	c #808000",
"@	c #c0c0c0",
/* pixels */
"                    ",
" .X.X.X.X.X.X.X.X.X ",
" X.X. .X.X.X.   .X. ",
" .X. o .X.X. OXO .X ",
" X.  o X.X.X XOX X. ",
" . o o .X.X. OXO .X ",
" X o o   X.X.   .X. ",
" . o o  o X.X.X.X.X ",
" X. oo  o .X.X.X.X. ",
"     o o            ",
" O+O oo O+O+O+O+O+O ",
" +O+ o O+  O+  O+O+ ",
" O+O o + @@ O+O+O+O ",
" +O    O     O+O  + ",
" O    O+O+O+O+O+O+O ",
"                    "};
