/* XPM */
static char * OnyxHScrollBar_xpm[] = {
"21 9 3 1",
" 	c white",
".	c #C0C0C0C0C0C0",
"X	c black",
"                     ",
" .......X. . .......X",
" ....X..X .  ..X....X",
" ...XX..X. . ..XX...X",
" ..XXX..X .  ..XXX..X",
" ...XX..X. . ..XX...X",
" ....X..X .  ..X....X",
" .......X. . .......X",
" XXXXXXXX    XXXXXXXX"};
