/* XPM */
static char * OnyxScreen_xpm[] = {
"16 16 6 1",
" 	s None	c None",
".	c #808080",
"X	c white",
"o	c black",
"O	c blue",
"+	c #c0c0c0",
"                ",
"  ............  ",
" .XXXXXXXXXXXXo ",
" .Xooooooooo.Xo ",
" .XoOOOOOOOO.Xo ",
" .XoOXOOOOOO.Xo ",
" .XoOOOOOOOO.Xo ",
" .XoOOOOOOOO.Xo ",
" .XoOOOOOOOO.Xo ",
" .XoOOOOOOOO.Xo ",
" .Xo.........Xo ",
" .XXXXXXXXXXXXo ",
"  oooooooooooo  ",
"    .XXXX+.o    ",
"  oooooooooooo  ",
"                "};
