/* XPM */
static char * OnyxMsgBox_xpm[] = {
"21 21 6 1",
" 	s None	c None",
".	c black",
"X	c #c0c0c0",
"o	c white",
"O	c #000080",
"+	c #808080",
"                     ",
"       ......        ",
"    ...XooooX...     ",
"   .XooooooooooX.    ",
"  .ooooooOOoooooo.   ",
"  .oooooooooooooo.   ",
" .ooooooOOOooooooo.  ",
" .oooooooOOooooooo.+ ",
" .oooooooOOooooooo.+ ",
"  .oooooOOOOooooo.++ ",
"  .XooooooooooooX.+  ",
"   .XooooooooooX.++  ",
"    ..oooooooo..++   ",
"     +..+ooo..+++    ",
"       +.ooo.++      ",
"         .oo.+       ",
"          .oo.       ",
"           .o.+      ",
"            ..+      ",
"             ++      ",
"                     "};
