/* XPM */
static char * OnyxLabel_xpm[] = {
"17 14 2 1",
" 	s None	m none	c None",
".	s iconColor1	m black	c black",
"        .        ",
"       ...       ",
"       ...       ",
"      . ...      ",
"      . ...      ",
"     .   ...     ",
"     .   ...     ",
"    .     ...    ",
"    .........    ",
"   .       ...   ",
"   .       ...   ",
"  .         ...  ",
" ..         .... ",
"....       ......"};
