/* XPM */
static char * OnyxVScrollBar_xpm[] = {
"9 21 3 1",
" 	c white",
".	c #C0C0C0C0C0C0",
"X	c black",
"         ",
" .......X",
" .......X",
" ...X...X",
" ..XXX..X",
" .XXXXX.X",
" .......X",
" .......X",
" XXXXXXXX",
" . . . . ",
"  . . .  ",
" . . . . ",
"         ",
" .......X",
" .......X",
" .XXXXX.X",
" ..XXX..X",
" ...X...X",
" .......X",
" .......X",
" XXXXXXXX"};
