/* XPM */
static char * OnyxTree_xpm[] = {
/* width height num_colors chars_per_pixel */
"14 21 3 1",
/* colors */
" 	s iconColor1	m black	c black",
".	s None	m none	c None",
"X	c white",
/* pixels */
"     .........",
" XXX .........",
" XXX .........",
"     .........",
".. ...........",
".. ......     ",
"..        XXX ",
".. ...... XXX ",
".. ......     ",
".. ...........",
".. ...........",
".. ......     ",
"..        XXX ",
".. ...... XXX ",
".. ......     ",
".. ...........",
".. ...........",
".. ......     ",
"..        XXX ",
"......... XXX ",
".........     "};
