/* XPM */
static char * OnyxTextBox_xpm[] = {
"21 17 4 1",
" 	c #808080",
".	c white",
"X	c black",
"o	c #c0c0c0",
"                    .",
" XXXXXXXXXXXXXXXXXXo.",
" X.................o.",
" X...............X.o.",
" X........X......X.o.",
" X........X......X.o.",
" X...XXX..XoXX...X.o.",
" X..Xo.oX.XX. X..X.o.",
" X......X.X...X..X.o.",
" X...XXXX.X...X..X.o.",
" X..Xo..X.X...X..X.o.",
" X..Xo..X.X.. X..X.o.",
" X...XXXX.XXXX...X.o.",
" X...............X.o.",
" X.................o.",
" ooooooooooooooooooo.",
"....................."};
