/* XPM */
static char * mini_seamonkey_xpm[] = {
"16 16 184 2",
"  	c None",
". 	c #1D1D96",
"+ 	c #2B2B9B",
"@ 	c #28289B",
"# 	c #27279B",
"$ 	c #1F1F95",
"% 	c #0E0E91",
"& 	c #30309E",
"* 	c #4040A6",
"= 	c #3E3EA5",
"- 	c #3A3AA3",
"; 	c #3737A2",
"> 	c #3434A1",
", 	c #30309F",
"' 	c #2A2A9B",
") 	c #151593",
"! 	c #3C3CA4",
"~ 	c #3939A3",
"{ 	c #3636A2",
"] 	c #3333A0",
"^ 	c #2F2F9E",
"/ 	c #6B73C1",
"( 	c #DCEBFD",
"_ 	c #DEEFFF",
": 	c #DDE6F7",
"< 	c #10108F",
"[ 	c #3838A3",
"} 	c #3535A1",
"| 	c #31319F",
"1 	c #2E2E9E",
"2 	c #2B2B9C",
"3 	c #4242A7",
"4 	c #E6F3FF",
"5 	c #BADCFF",
"6 	c #82C0FE",
"7 	c #B7B7DD",
"8 	c #171793",
"9 	c #07078B",
"0 	c #202098",
"a 	c #2D2D9D",
"b 	c #2A2A9C",
"c 	c #26269A",
"d 	c #232399",
"e 	c #8C9BD7",
"f 	c #DEEEFF",
"g 	c #91C7FE",
"h 	c #91C6FB",
"i 	c #F3F8FD",
"j 	c #0B0B8D",
"k 	c #29299B",
"l 	c #2C2C9D",
"m 	c #29299C",
"n 	c #25259A",
"o 	c #222298",
"p 	c #1F1F97",
"q 	c #1B1B95",
"r 	c #9BCDFF",
"s 	c #66B2FE",
"t 	c #88C0F9",
"u 	c #CCE3FB",
"v 	c #7373BE",
"w 	c #05058A",
"x 	c #030389",
"y 	c #3737A4",
"z 	c #242499",
"A 	c #212198",
"B 	c #1E1E96",
"C 	c #1A1A95",
"D 	c #8080C4",
"E 	c #D5EAFF",
"F 	c #7BBDFF",
"G 	c #59ABFE",
"H 	c #85BFFA",
"I 	c #C1DEF9",
"J 	c #8282C5",
"K 	c #121294",
"L 	c #2525A2",
"M 	c #4E4EC3",
"N 	c #9FA0FE",
"O 	c #9E9EFE",
"P 	c #9C9DFE",
"Q 	c #9B9CFE",
"R 	c #9A9BFE",
"S 	c #9899FE",
"T 	c #C7D1F9",
"U 	c #6BB5FE",
"V 	c #63B1FF",
"W 	c #6BB3FD",
"X 	c #88C0FA",
"Y 	c #A6CFF8",
"Z 	c #C2C2F7",
"` 	c #999AFE",
" .	c #7475E0",
"..	c #2020BD",
"+.	c #4444F1",
"@.	c #4747F1",
"#.	c #494AF1",
"$.	c #4747EF",
"%.	c #5959F3",
"&.	c #9292FC",
"*.	c #A1CEFF",
"=.	c #65B2FF",
"-.	c #73B9FE",
";.	c #61ADF9",
">.	c #A4CEFA",
",.	c #C3DEFB",
"'.	c #7979F5",
").	c #4B4BF6",
"!.	c #3E3EDC",
"~.	c #1010E5",
"{.	c #0D0DE5",
"].	c #0A0AE5",
"^.	c #0606E4",
"/.	c #0303E4",
"(.	c #B4C3FA",
"_.	c #76BAFF",
":.	c #60AFFE",
"<.	c #A4CFFB",
"[.	c #97C8FA",
"}.	c #B3D6F9",
"|.	c #CACEF9",
"1.	c #1E1EE7",
"2.	c #2323E7",
"3.	c #1A1AC9",
"4.	c #0707D2",
"5.	c #0505E4",
"6.	c #0202E4",
"7.	c #0101E4",
"8.	c #9397F5",
"9.	c #63B0FE",
"0.	c #6FB6FC",
"a.	c #6AB1F9",
"b.	c #B1D5FB",
"c.	c #CBE3FA",
"d.	c #C5CCF9",
"e.	c #2E2EE8",
"f.	c #2626E8",
"g.	c #2B2BE8",
"h.	c #1616B0",
"i.	c #0000B7",
"j.	c #5BACFD",
"k.	c #B1D5F9",
"l.	c #B2D5F9",
"m.	c #94C7FA",
"n.	c #CBDCFB",
"o.	c #999AF4",
"p.	c #3232E9",
"q.	c #2A2AE8",
"r.	c #2E2EE9",
"s.	c #2C2CD3",
"t.	c #0000C4",
"u.	c #737BF1",
"v.	c #6EB6FE",
"w.	c #C5D1FA",
"x.	c #C3CBF9",
"y.	c #A9A9F6",
"z.	c #8181F1",
"A.	c #3131E8",
"B.	c #2828E8",
"C.	c #2D2DE8",
"D.	c #3333E3",
"E.	c #1414A5",
"F.	c #AFCBF3",
"G.	c #A7D3FE",
"H.	c #B1C1F8",
"I.	c #1919E6",
"J.	c #2727E8",
"K.	c #2C2CE8",
"L.	c #3131E9",
"M.	c #3535E9",
"N.	c #2F2FD7",
"O.	c #0C0CA1",
"P.	c #FFFFFF",
"Q.	c #C3E1FE",
"R.	c #D7EBFF",
"S.	c #0C0CB2",
"T.	c #1C1CDB",
"U.	c #3030E9",
"V.	c #3434E9",
"W.	c #3535E3",
"X.	c #2727C7",
"Y.	c #1616B9",
"Z.	c #1A1AB9",
"`.	c #1C1CB9",
"          . + + @ # $           ",
"      % & * = - ; > , ' )       ",
"      ! ! ~ { ] ^ / ( _ : <     ",
"    ^ [ } | 1 2 3 4 5 6 7 8 9   ",
"  0 > , a b c d e f g h i a j   ",
"  k l m n o p q ( r s t u v w x ",
"  y z A B C 8 D E F G H I J K L ",
"M N O P Q R S T U V W X Y Z `  .",
"..+.@.#.$.%.&.*.=.-.;.>.,.'.).!.",
"  ~.{.].^./.(._.:.<.[.}.|.1.2.3.",
"  4.5.6.7.8.9.0.a.b.c.d.e.f.g.h.",
"  i.7.7.8.j.k.l.m.n.o.p.q.r.s.  ",
"    t.u.v.w.x.y.z.A.B.C.p.D.E.  ",
"    F.G.H.I.1.2.J.K.L.M.N.O.    ",
"P.Q.R.  S.T.f.g.U.V.W.X.        ",
"              Y.Z.`.            "};
