/* XPM */
static char * iceweasel_xpm[] = {
"16 16 148 2",
"  	c None",
". 	c #D3DDEC",
"+ 	c #CEDBEA",
"@ 	c #C8D6E7",
"# 	c #ADC1D9",
"$ 	c #D5DFEC",
"% 	c #DBE5EE",
"& 	c #DFE6F0",
"* 	c #E6ECF3",
"= 	c #FDFEFE",
"- 	c #FFFFFF",
"; 	c #F4F7FB",
"> 	c #FBFCFE",
", 	c #DDE5F0",
"' 	c #D3DEEC",
") 	c #F6F8FB",
"! 	c #F8FAFC",
"~ 	c #D1D7E8",
"{ 	c #CAD1E2",
"] 	c #CDD4E5",
"^ 	c #F3F6F9",
"/ 	c #878C91",
"( 	c #FCFDFE",
"_ 	c #E1E8EF",
": 	c #DEE6F0",
"< 	c #BABDDC",
"[ 	c #7C7BC7",
"} 	c #ADA8DD",
"| 	c #C6C2E6",
"1 	c #BFBBE1",
"2 	c #CED5E7",
"3 	c #F5F7FA",
"4 	c #A5AAAF",
"5 	c #E6E7E7",
"6 	c #C7D5E6",
"7 	c #E6ECF4",
"8 	c #6D6BB8",
"9 	c #928BD4",
"0 	c #9891D6",
"a 	c #AAA5DD",
"b 	c #A9A4DC",
"c 	c #9496C7",
"d 	c #CFD4D9",
"e 	c #DFE0E0",
"f 	c #EAF0F8",
"g 	c #C2D2E4",
"h 	c #E9EEF5",
"i 	c #8383BE",
"j 	c #9D96D9",
"k 	c #AEA8DF",
"l 	c #9089D4",
"m 	c #9088D4",
"n 	c #867ECD",
"o 	c #7E81A7",
"p 	c #9296B0",
"q 	c #5556BB",
"r 	c #3531B3",
"s 	c #D6DDED",
"t 	c #7C7FBB",
"u 	c #574BC0",
"v 	c #827AD0",
"w 	c #7C73CE",
"x 	c #7970CD",
"y 	c #685EC6",
"z 	c #574CBD",
"A 	c #8F88D1",
"B 	c #463ABE",
"C 	c #3737A6",
"D 	c #3021C3",
"E 	c #8089C9",
"F 	c #4E4DAE",
"G 	c #4539BC",
"H 	c #7067CB",
"I 	c #9992DA",
"J 	c #8178D1",
"K 	c #766DCD",
"L 	c #5B50C4",
"M 	c #6257C8",
"N 	c #2617B4",
"O 	c #342FAE",
"P 	c #2D1EC0",
"Q 	c #382ABD",
"R 	c #4034BE",
"S 	c #4B3EC1",
"T 	c #7167CE",
"U 	c #D7D5F1",
"V 	c #D4D1F0",
"W 	c #776ED0",
"X 	c #4639C0",
"Y 	c #4D41C4",
"Z 	c #2A1BBA",
"` 	c #322DAD",
" .	c #3021C4",
"..	c #3631BE",
"+.	c #4C76AF",
"@.	c #677BC1",
"#.	c #8584D4",
"$.	c #C3BEEB",
"%.	c #C2BDEB",
"&.	c #655ACC",
"*.	c #4639C3",
"=.	c #4C3FC7",
"-.	c #2E1EBF",
";.	c #3530B0",
">.	c #3B32C0",
",.	c #372BC5",
"'.	c #7695C2",
").	c #ACC0DA",
"!.	c #D5DEEC",
"~.	c #A9ADE0",
"{.	c #8C88D9",
"].	c #6C61D2",
"^.	c #4A3DC8",
"/.	c #4A3CCB",
"(.	c #3425C5",
"_.	c #3F44B7",
":.	c #3D3FAD",
"<.	c #6256D4",
"[.	c #9C9EE0",
"}.	c #CBD6E8",
"|.	c #FAFBFD",
"1.	c #E7EBF5",
"2.	c #A4A7E0",
"3.	c #8881DC",
"4.	c #6358D7",
"5.	c #3F36C8",
"6.	c #A0B0D8",
"7.	c #4C47C2",
"8.	c #8B82E1",
"9.	c #9D9BE0",
"0.	c #C6CAE1",
"a.	c #FDFDFE",
"b.	c #F8FAFD",
"c.	c #DEE6F2",
"d.	c #A9B0E3",
"e.	c #BBC7E6",
"f.	c #6C6CC0",
"g.	c #A7A0EA",
"h.	c #BAB6EB",
"i.	c #B6B9D8",
"j.	c #C4CBDE",
"k.	c #C7D2E5",
"l.	c #BFCEE3",
"m.	c #B9CCDE",
"n.	c #858BB2",
"o.	c #A5A8CA",
"p.	c #9DA3C3",
"q.	c #7377A2",
"                  . + @ #       ",
"          $ % & * = - ; > , '   ",
"        ) ! ~ { ] ^ / ( _ ( ;   ",
"      : < [ } | 1 2 3 - 4 5 6   ",
"      7 8 9 0 a b c d e f g     ",
"      h i j k l m n o p q       ",
"    r s t u v w x y z A B C     ",
"    D E F G H I J K L M N O     ",
"    P Q R S T U V W X Y Z `     ",
"     ...+.@.#.$.%.&.*.=.-.;.    ",
"    >.,.'.).!.~.{.].^./.(._.    ",
"    :.<.[.}.|.- 1.2.3.4.5.6.    ",
"      7.8.9.0.( a.b.c.d.e.      ",
"        f.g.h.i.j.k.l.m.        ",
"            n.o.p.q.            ",
"                                "};
