/* XPM */
static char * mini_firefox_xpm[] = {
"16 16 183 2",
"  	c None",
". 	c #3E8383",
"+ 	c #497B80",
"@ 	c #097DA6",
"# 	c #00CFFA",
"$ 	c #00FFFF",
"% 	c #0EFFFF",
"& 	c #5EFBE8",
"* 	c #78EFBF",
"= 	c #55C0B3",
"- 	c #3C644F",
"; 	c #323835",
"> 	c #0765B4",
", 	c #0383CC",
"' 	c #629D7E",
") 	c #2FAFA6",
"! 	c #00D4FB",
"~ 	c #0BB7CD",
"{ 	c #D4CD37",
"] 	c #FFFE0F",
"^ 	c #FFFF0A",
"/ 	c #E7E000",
"( 	c #923C00",
"_ 	c #D5771E",
": 	c #B9752D",
"< 	c #CF881F",
"[ 	c #C88614",
"} 	c #0096C1",
"| 	c #00C5F7",
"1 	c #00B9EE",
"2 	c #44938B",
"3 	c #FECD19",
"4 	c #FFF604",
"5 	c #FFFF00",
"6 	c #BC4D00",
"7 	c #FF7203",
"8 	c #FF8700",
"9 	c #FF8A00",
"0 	c #DA7F10",
"a 	c #6C7E6C",
"b 	c #348E9C",
"c 	c #00ACE1",
"d 	c #13A5DC",
"e 	c #5C8682",
"f 	c #B09234",
"g 	c #F3C718",
"h 	c #FFFC06",
"i 	c #F3E900",
"j 	c #F86A09",
"k 	c #F77D0C",
"l 	c #F57B05",
"m 	c #F26A00",
"n 	c #FF931E",
"o 	c #EEAB63",
"p 	c #457D8A",
"q 	c #0093D3",
"r 	c #0D9AD3",
"s 	c #2C9ED6",
"t 	c #1A7AB8",
"u 	c #61705B",
"v 	c #FCD117",
"w 	c #FFFF01",
"x 	c #7F2C06",
"y 	c #FC6A0B",
"z 	c #F27107",
"A 	c #F06B06",
"B 	c #EE5D05",
"C 	c #F67B0E",
"D 	c #547E75",
"E 	c #0079C4",
"F 	c #108EC9",
"G 	c #218FC7",
"H 	c #3298CA",
"I 	c #1C84C9",
"J 	c #617B62",
"K 	c #FFDE0E",
"L 	c #8C8302",
"M 	c #802C07",
"N 	c #FC5F07",
"O 	c #F06706",
"P 	c #EE6206",
"Q 	c #C23411",
"R 	c #392D50",
"S 	c #16467C",
"T 	c #026DBC",
"U 	c #117FC7",
"V 	c #258AC3",
"W 	c #2A8ABF",
"X 	c #1C6BA4",
"Y 	c #C4AE26",
"Z 	c #FFF500",
"` 	c #9B9401",
" .	c #863203",
"..	c #FB5C05",
"+.	c #EF6408",
"@.	c #E55507",
"#.	c #BB150A",
"$.	c #462B4C",
"%.	c #003287",
"&.	c #3C6B79",
"*.	c #879961",
"=.	c #3C7C9B",
"-.	c #1471B7",
";.	c #255B84",
">.	c #F6CB0E",
",.	c #FFF300",
"'.	c #8A7E00",
").	c #671E00",
"!.	c #F85204",
"~.	c #ED5D08",
"{.	c #EA680D",
"].	c #D93306",
"^.	c #EB5001",
"/.	c #EB6A07",
"(.	c #F08108",
"_.	c #BE6B1D",
":.	c #405B72",
"<.	c #0051AA",
"[.	c #3F595C",
"}.	c #FED706",
"|.	c #FFE900",
"1.	c #FFE300",
"2.	c #E13F03",
"3.	c #EB4E04",
"4.	c #F27B12",
"5.	c #F37E19",
"6.	c #D25427",
"7.	c #7E2934",
"8.	c #331654",
"9.	c #002B86",
"0.	c #003F95",
"a.	c #435F5C",
"b.	c #DBAD0D",
"c.	c #FFCE00",
"d.	c #FFD000",
"e.	c #F0AC00",
"f.	c #991B00",
"g.	c #EA4103",
"h.	c #ED5F0A",
"i.	c #F9921B",
"j.	c #F99F27",
"k.	c #BA6F30",
"l.	c #704C3F",
"m.	c #5B4642",
"n.	c #8E6E25",
"o.	c #F8B802",
"p.	c #FFB800",
"q.	c #FFAC00",
"r.	c #FFA500",
"s.	c #875700",
"t.	c #BF1E01",
"u.	c #D32D01",
"v.	c #E05307",
"w.	c #EE760D",
"x.	c #FE8E0C",
"y.	c #FF8D0A",
"z.	c #FF9A06",
"A.	c #FFAE01",
"B.	c #FFB703",
"C.	c #FCA304",
"D.	c #FF7F00",
"E.	c #C57000",
"F.	c #370600",
"G.	c #AF1400",
"H.	c #BE1400",
"I.	c #B51400",
"J.	c #C63201",
"K.	c #D14102",
"L.	c #D33A01",
"M.	c #DE4101",
"N.	c #EE5902",
"O.	c #FE6700",
"P.	c #BB6400",
"Q.	c #781500",
"R.	c #AD1A00",
"S.	c #B61700",
"T.	c #C31F00",
"U.	c #CF2C00",
"V.	c #DA4000",
"W.	c #CA5500",
"X.	c #724200",
"Y.	c #511E00",
"Z.	c #512200",
"              . +               ",
"        @ # $ % & * = -         ",
"    ; > , ' ) ! ~ { ] ^ /       ",
"  ( _ : < [ } | 1 2 3 4 5 5     ",
"  6 7 8 9 0 a b c d e f g h i   ",
"  j k l m n o p q r s t u v w   ",
"x y z A B C D E F G H I J K w L ",
"M N O P Q R S T U V W X Y Z 5 ` ",
" ...+.@.#.$.%.&.*.=.-.;.>.,.5 '.",
").!.~.{.].^./.(._.:.<.[.}.|.1.  ",
"  2.3.4.5.6.7.8.9.0.a.b.c.d.e.  ",
"  f.g.h.i.j.k.l.m.n.o.p.q.r.s.  ",
"    t.u.v.w.x.y.z.A.B.C.D.E.    ",
"    F.G.H.I.J.K.L.M.N.O.P.      ",
"        Q.R.S.T.U.V.W.X.        ",
"              Y.Z.              "};
