/* XPM */
static char * apm_full_xpm[] = {
/* width height num_colors chars_per_pixel */
"16 16 9 1",
/* colors */
" 	s None	c None",
".	c #808080",
"X	c black",
"o	c white",
"O	c #c0c0c0",
"+	c #000080",
"@	c cyan",
"#	c blue",
"$	c red",
/* pixels */
"     ...X       ",
"  ...oO.XXX     ",
" ..O....XO+X    ",
" .@#.....#+X    ",
" .@#######+X    ",
" .@###$###+X    ",
" .@##$$$##+X    ",
" .@###$###+X    ",
" .@#######+X    ",
" .@#######+X    ",
" .@#######+X    ",
" .@#######+X    ",
" .@##$$$##+X    ",
" .@#######+X    ",
"  .+#####XX     ",
"   .XXXXX.      "};
