/* XPM */
static char * apm_empty_xpm[] = {
/* width height num_colors chars_per_pixel */
"16 16 6 1",
/* colors */
" 	s None	c None",
".	c #808080",
"X	c black",
"o	c white",
"O	c #c0c0c0",
"+	c red",
/* pixels */
"     ...X       ",
"  ...oO.XXX     ",
"++..O...XO.++   ",
" ++O.....O++    ",
" .++OOOOO++X    ",
" .o++OOO++.X    ",
" .oO++O++O.X    ",
" .oOO+++OO.X    ",
" .oOO+++OO.X    ",
" .oO++O++O.X    ",
" .o++OOO++.X    ",
" .++OOOOO++X    ",
" ++OOOOOOO++    ",
"++OOOOOOOO.++   ",
"  ..OOOOOXX     ",
"   .XXXXX.      "};
