/* XPM */
static char * apm_online_xpm[] = {
/* width height num_colors chars_per_pixel */
"16 16 7 1",
/* colors */
" 	s None	c None",
".	c #808080",
"X	c black",
"o	c #808000",
"O	c yellow",
"+	c white",
"@	c #c0c0c0",
/* pixels */
"       .Xo .Xo  ",
"       oOo oOo  ",
"       oOo oOo  ",
"       oO..oO.X ",
"      .........X",
"     .+@@@@@@@.X",
"      .XXXXXXXX ",
"       .+++@@.X ",
"       .+@@@@.X ",
"       .+@@@@.X ",
"        X+@@.X  ",
"         XXXX   ",
"  ....   .+X    ",
"..++++...+@X    ",
"++XXX@+++@X     ",
"XX   XXXXX      "};
