/* XPM */
static char * nl_chanop_xpm[] = {
"14 14 7 1",
" 	s None	m none	c None",
".	s iconColor1	m black	c black",
"X	c #808080",
"o	c #808000",
"O	s iconColor6	m white	c yellow",
"+	s iconColor2	m white	c white",
"@	c #c0c0c0",
"              ",
"      .       ",
"      .       ",
"     XoX      ",
".    .O.    . ",
"..   .O.   .. ",
"XX. XoOoX .oX ",
" .+..OOO..o.  ",
" .O+.+O@.oO.  ",
" XXO+OOO@OoX  ",
"  .+O+O@O@.   ",
"  .O+OOO@O.   ",
"  .........   ",
"              "};
