/* XPM */
static char * nl_ignored_xpm[] = {
"16 16 2 1",
" 	s None	m none	c None",
".	s iconColor1	m black	c black",
"                ",
"  .         .   ",
" ...       ...  ",
"  ...     ...   ",
"   ...   ...    ",
"    ... ...     ",
"     .....      ",
"      ...       ",
"     .....      ",
"    ... ...     ",
"   ...   ...    ",
"  ...     ...   ",
" ...       ...  ",
"  .         .   ",
"                ",
"                "};
