/* XPM */
static char *tb_conn[] = {
"16 16 5 1",
" 	c None s None",
".	c black",
"X	c #808080",
"o	c red",
"O	c yellow",
"                ",
"                ",
"          .     ",
"       X .X     ",
"      XooX  .   ",
"     Xoooo .X   ",
"    XooooooX    ",
"    XooooooX    ",
"    XoooooX.    ",
"    XooooX.     ",
"   XOXXXX.      ",
"  XOXX...       ",
" XOXX           ",
"  XX            ",
"  X             ",
"                "};
