/* XPM */
static char * tb_ircop[] = {
"16 16 8 1",
" 	s None	m none	c None",
".	s iconColor1	m black	c black",
"X	c #808080",
"o	c #808000",
"O	s iconColor6	m white	c yellow",
"+	c #008000",
"@	s iconColor2	m white	c white",
"#	c #c0c0c0",
"       .        ",
" .    XoX    .  ",
" ..   .O.   ..  ",
"  +. X.O.X .+   ",
"  .@..OOO..o.   ",
"  .O@.@O#.oO.   ",
"  XXO@OOO#O+X   ",
"   .@O@O#O#.    ",
"   .........    ",
"                ",
" ... ....   ... ",
"  .  .   . .    ",
"  .  ....  .    ",
"  .  .  .  .    ",
" ... .   .  ... ",
"                "};
