/* XPM */
static char * tb_srvmsgs[] = {
"16 16 6 1",
" 	s None	c None",
".	c #808080",
"X	c black",
"o	c white",
"O	c #c0c0c0",
"+	c green",
"     .XXXXXX    ",
"    .oOOOO..X   ",
"   .oooooo..X   ",
"   .OOOOOO..X   ",
"   .OOOO++..X   ",
" X .OOOOOO..X X ",
" X .OOOOOO..X X ",
"X  .OOOOOO..X  X",
"X  .OOOOOO..X  X",
" X .O....O..X X ",
" X .OOOOOO..X X ",
"   .O....O..X   ",
"   .OOOOOO..X   ",
"   .OOOOOO.X    ",
"    XXXXXXX     ",
"                "};
