/* XPM */
static char *tb_setup[] = {
"16 16 4 1",
" 	c None s None",
".	c black",
"o	c white",
"O	c #808080",
"                ",
"   .. .....     ",
"  .oo.ooooo.    ",
"  .ooooooooo.   ",
"  .oO.oooo..o.  ",
"   .. ....O ..  ",
"       ...   .  ",
"       ...      ",
"       ...      ",
"       ...      ",
"       ...      ",
"       ...      ",
"       ...      ",
"       ...      ",
"                ",
"                "};
