/* XPM */
static char * tb_wallops[] = {
"16 16 4 1",
" 	s None	c None",
".	c black",
"X	c white",
"o	c #808080",
"   .            ",
"  ...           ",
" . . .   ....   ",
"   .       ..   ",
"   .      . .   ",
"   .     .  .   ",
"        .       ",
" ....  .        ",
" .XX..          ",
" .XX...         ",
" .XXXX.o    .   ",
" .XXXX.o     .  ",
" .XXXX.o ...... ",
" .XXXX.o     .  ",
" ......o    .   ",
"  oooooo        "};
