/* XPM */
static char * ptb_point_xpm[] = {
"18 18 5 1",
" 	s None	c None",
".	c black",
"X	c white",
"o	c yellow",
"O	c #808080",
"                  ",
"                  ",
"            ..    ",
"           .Xo.   ",
"          .Xooo.  ",
"         .XoooO.  ",
"        .XoooO.   ",
"       .XoooO.    ",
"      .XoooO.     ",
"     .XoooO.      ",
"    ..oooO.       ",
"    .X.OO.        ",
"   .XXX..         ",
"   .XX..          ",
"  ....            ",
"  ..              ",
"  .....           ",
"                  "};
