/* XPM */
static char * ptb_fcircle_xpm[] = {
"18 18 3 1",
" 	s None	c None",
".	c black",
"X	c white",
"                  ",
"       .....      ",
"     ..XXXXX..    ",
"    .XXXXXXXXX.   ",
"   .XXXXXXXXXXX.  ",
"   .XXXXXXXXXXX.  ",
"  .XXXXXXXXXXXXX. ",
"  .XXXXXXXXXXXXX. ",
"  .XXXXXXXXXXXXX. ",
"  .XXXXXXXXXXXXX. ",
"  .XXXXXXXXXXXXX. ",
"   .XXXXXXXXXXX.  ",
"   .XXXXXXXXXXX.  ",
"    .XXXXXXXXX.   ",
"     ..XXXXX..    ",
"       .....      ",
"                  ",
"                  "};
