/* XPM */
static char * ptb_circle_xpm[] = {
"18 18 2 1",
" 	s None	c None",
".	c black",
"                  ",
"       .....      ",
"     ..     ..    ",
"    .         .   ",
"   .           .  ",
"   .           .  ",
"  .             . ",
"  .             . ",
"  .             . ",
"  .             . ",
"  .             . ",
"   .           .  ",
"   .           .  ",
"    .         .   ",
"     ..     ..    ",
"       .....      ",
"                  ",
"                  "};
