#define weave_width 8
#define weave_height 8
static char weave_bits[] = {
 0x77,0xdd,0xbb,0xee,0x77,0xdd,0xbb,0xee};
