/* XPM */
static char * b1_xpm[] = {
/* width height num_colors chars_per_pixel */
"59 42 7 1",
/* colors */
" 	s None	c None",
".	c #0000ff",
"X	c #000080",
"o	c black",
"O	c #c0c0c0",
"+	c white",
"@	c #808080",
/* pixels */
"                                                           ",
"                                                           ",
"                                                           ",
"                                                           ",
"                                                           ",
"                       ...          XXX                    ",
"                     ... .         XX  X                   ",
"                   ...   .         XX  X                   ",
"                 ...   ...          X X                    ",
"                 .   ... .          X X                    ",
"                 . ...   .          XX                     ",
"                 ...     .         XX                      ",
"                 .       .        XX X                     ",
"                 .       .       XX  X                     ",
"                 .       .      XX   X                     ",
"                 .    ....     XX  XXXXX                   ",
"                 .   .....     XX  X X XX                  ",
"                 .   .....     X  XX X   X                 ",
"              ....    ...      X  XX X   X                 ",
"             ..... oooo        XX  X X   X                 ",
"             .....oO+O+o       XX    X   X                 ",
"              ...oO+O+O+ooooooooXXX  X  X                  ",
"                 o+O+O+O+O+O+O+O+OXXXXXX                   ",
"                 oO+O+O+O+O+O+O+O+o  X                     ",
"                 o+O+O+O+O+O+O+XXXX  X                     ",
"                 oO+O+O+Oooooooooooooooooo                 ",
"                 o+O+O+Oo@@@@@@@@@@@@@@@@o                 ",
"                 oO+O+Oo@@@@@@@@@@@@@@@@o                  ",
"                 o+O+Oo@@@@@@@@@@@@@@@@o                   ",
"                 oO+Oo@@@@@@@@@@@@@@@@o                    ",
"                 o+Oo@@@@@@@@@@@@@@@@o                     ",
"                 oOo@@@@@@@@@@@@@@@@o                      ",
"                 oo@@@@@@@@@@@@@@@@o                       ",
"                 oooooooooooooooooo                        ",
"                                                           ",
"                                                           ",
"                                                           ",
"                                                           ",
"                                                           ",
"                                                           ",
"                                                           ",
"                                                           "};
