/* XPM */
static char * bgnd_xpm[] = {
"139 88 2 1",
" 	c #ffffc0",
".	c #ffffff",
"                                                                                                                                           ",
"                                                                                                                                           ",
"                                                                                                                                           ",
"                                                                                                                                           ",
"                                                                                                                                           ",
"                                                                                                                                           ",
"                                                                                                                                           ",
"                                                                                                                                           ",
"                                                                                                                                           ",
"                                                                                                                                           ",
"                                                                                                                                           ",
"                                                                                                                                           ",
"                                                                                                                                           ",
"          .....                                                                                                                            ",
"    ....  .....                                                                                   .......        .....      ....  .....    ",
"    ...   .....                                                                                 ...........      .....     ....   .....    ",
"   ....   ....                                                                                ..............      .....   ....    .....    ",
"   ...                                                                                       ......    ......     .....  ....      ....    ",
"  ....   .....       .....     ....    ....    ....                                         .....       .....      .........       ....    ",
"  ...    .....     ........    ....    ....    ...                                          ....        .....      ........        .....   ",
" ...     ....     ..........   ....   .....   ....                                         .....        .....      .......         .....   ",
"....     ....    ....   ....   ....   .....   ...                                          ....         .....       ......         .....   ",
"...      ....   ....   ....    ....  ....... ....                                         .....         .....       .....          .....   ",
"...     .....   ...........    ....  ....... ...                                          .....         .....      .......          ....  .",
"..      .....  ..........      .... ... ........                                          .....        .....       .......          ....  .",
"..      ....   ........        .... ... .......                                           .....        .....      ... ....          .......",
".       ....   .....       .   .......  .......                                           .....       .....      .... .....         .......",
".       ....   .....     ...   .......  ......                                             .....    ......      ....  .....         .......",
"       .....   .............   ......   ......                                             ..............      ....    .....         ......",
"       .....    ...........    ......   .....                                               ...........       ....     .....         ..... ",
"       .....      ......       .....    .....                                                 .......        ....      ......        ..... ",
"                                                                                                                                           ",
"                                                                                                                                           ",
"                                                                                                                                           ",
"                                                                                                                                           ",
"                                                                                                                                           ",
"                                                                                                                                           ",
"                                                                                                                                           ",
"                                                                                                                                           ",
"                                                                                                                                           ",
"                                                                                                                                           ",
"                                                                                                                                           ",
"                                                                                                                                           ",
"                                                                                                                                           ",
"                                                                                                                                           ",
"                                                                                                                                           ",
"                                                                                                                                           ",
"                                                                                                                                           ",
"                                                                                                                                           ",
"                                                                                                                                           ",
"                                                                                                                                           ",
"                                                                                                                                           ",
"                                                                                                                                           ",
"                                                                                                                                           ",
"                                                                                                                                           ",
"                                                                                                                                           ",
"                                                                                                                                           ",
"                                                                                .....                                                      ",
"                             .......        .....      ....  .....        ....  .....                                                      ",
"                           ...........      .....     ....   .....        ...   .....                                                      ",
"                         ..............      .....   ....    .....       ....   ....                                                       ",
"                        ......    ......     .....  ....      ....       ...                                                               ",
"                       .....       .....      .........       ....      ....   .....       .....     ....    ....    ....                  ",
"                       ....        .....      ........        .....     ...    .....     ........    ....    ....    ...                   ",
"                      .....        .....      .......         .....    ...     ....     ..........   ....   .....   ....                   ",
"                      ....         .....       ......         .....   ....     ....    ....   ....   ....   .....   ...                    ",
"                     .....         .....       .....          .....   ...      ....   ....   ....    ....  ....... ....                    ",
"                     .....         .....      .......          ....  ....     .....   ...........    ....  ....... ...                     ",
"                     .....        .....       .......          ....  ...      .....  ..........      .... ... ........                     ",
"                     .....        .....      ... ....          .........      ....   ........        .... ... .......                      ",
"                     .....       .....      .... .....         ........       ....   .....       .   .......  .......                      ",
"                      .....    ......      ....  .....         ........       ....   .....     ...   .......  ......                       ",
"                      ..............      ....    .....         ......       .....   .............   ......   ......                       ",
"                       ...........       ....     .....         .....        .....    ...........    ......   .....                        ",
"                         .......        ....      ......        .....        .....      ......       .....    .....                        ",
"                                                                                                                                           ",
"                                                                                                                                           ",
"                                                                                                                                           ",
"                                                                                                                                           ",
"                                                                                                                                           ",
"                                                                                                                                           ",
"                                                                                                                                           ",
"                                                                                                                                           ",
"                                                                                                                                           ",
"                                                                                                                                           ",
"                                                                                                                                           ",
"                                                                                                                                           ",
"                                                                                                                                           "};
