/* XPM */
static char * menu_file_xpm[] = {
"20 50 4 1",
" 	s None	c None",
".	c white",
"X	c #c0c0c0",
"o	c black",
"                    ",
"                    ",
"                    ",
"                    ",
"                    ",
"                    ",
"                    ",
"                    ",
"                    ",
"                    ",
"                    ",
"                    ",
"                    ",
"                    ",
"        ... ...     ",
"       ..XXX XXX    ",
"      ..XXXXo.XXo   ",
"      .XXXXXo.XXo   ",
"      .XXoXXo.XXo   ",
"      .XXoXX..XXo   ",
"      .XX.XX.XXXo   ",
"       XXXXXXXXoo   ",
"        XXXXXXXo    ",
"         XXXXXoo    ",
"          ooooo     ",
"   ............     ",
"   .XXXXXXXXXXXX    ",
"   .XXXXXXXXXXXXo   ",
"    XXXXXXXXXXXXo   ",
"     oooooooooooo   ",
"                    ",
"   ..  ........     ",
"   .XX .XXXXXXXX    ",
"   .XXo.XXXXXXXXo   ",
"    XXo XXXXXXXXo   ",
"     oo  oooooooo   ",
"   ..               ",
"   .XX  ..          ",
"   .XXo .XX         ",
"   .XXo .XXo        ",
"   .XXo .XXo        ",
"   .XX...XX....     ",
"   .XXXXXXXXXXXX    ",
"   .XXXXXXXXXXXXo   ",
"    XXXXXXXXXXXXo   ",
"     oooooooooooo   ",
"                    ",
"                    ",
"                    ",
"                    "};
