/* XPM */
static char * menu_test_xpm[] = {
"20 50 4 1",
" 	s None	c None",
".	c white",
"X	c #c0c0c0",
"o	c black",
"                    ",
"                    ",
"                    ",
"                    ",
"                    ",
"                    ",
"      ..     ..     ",
"      .XX    .XX    ",
"    ...XX.....XXo   ",
"    .XXXXXXXXXXXo   ",
"    .XXXXXXXXXXXo   ",
"     XXXXXXXXXXoo   ",
"      oXXooooooo    ",
"        oo          ",
"           ...      ",
"      ... ..XXX     ",
"      .XXo.XXXXo    ",
"      .XXo.XXXXX    ",
"      .XX..Xo.XXo   ",
"      .XX.XXo.XXo   ",
"      .XXXXXo.XXo   ",
"       XXXXXo.XXo   ",
"        XXXoo XXo   ",
"         ooo  ooo   ",
"        ...o...     ",
"       ..XXX XXX    ",
"      ..XXXXo.XXo   ",
"      .XXXXXo.XXo   ",
"      .XXoXXo.XXo   ",
"      .XXoXX..XXo   ",
"      .XX.XX.XXXo   ",
"       XXXXXXXXoo   ",
"        XXXXXXXo    ",
"         XXXXXoo    ",
"   ..     ooooo     ",
"   .XX              ",
"   .XXo             ",
"   .XXo             ",
"   .XX.........     ",
"   .XXXXXXXXXXXX    ",
"   .XXXXXXXXXXXXo   ",
"   .XXXXXXXXXXXXo   ",
"   .XXooooooooooo   ",
"   .XXo             ",
"   .XXo             ",
"    XXo             ",
"     oo             ",
"                    ",
"                    ",
"                    "};
