/* XPM */
static char * menu_help_xpm[] = {
"20 50 4 1",
" 	s None	c None",
".	c white",
"X	c #c0c0c0",
"o	c black",
"                    ",
"                    ",
"                    ",
"                    ",
"        .....       ",
"       ..XXXXX      ",
"      ..XXXXXXX     ",
"      .XXXXXXXXX    ",
"      .XXXoooXXXo   ",
"      .XXoo  .XXo   ",
"       XXo   .XXo   ",
"      ..XX....X...  ",
"      .XXXXXXXXXXXX ",
"      .XXXXXXXXXXXXo",
"       XXXXXXXXXXXXo",
"        oooooooooooo",
"   ............     ",
"   .XXXXXXXXXXXX    ",
"   .XXXXXXXXXXXXo   ",
"    XXXXXXXXXXXXo   ",
"     oooooooooooo   ",
"        ... ...     ",
"       ..XXX XXX    ",
"      ..XXXXo.XXo   ",
"      .XXXXXo.XXo   ",
"      .XXoXXo.XXo   ",
"      .XXoXX..XXo   ",
"      .XX.XX.XXXo   ",
"       XXXXXXXXoo   ",
"        XXXXXXXo    ",
"         XXXXXoo    ",
"          ooooo     ",
"                    ",
"   ............     ",
"   .XXXXXXXXXXXX    ",
"   .XXXXXXXXXXXXo   ",
"    XXXXXXXXXXXXo   ",
"     ooo.XXoooooo   ",
"        .XXo        ",
"        .XXo        ",
"        .XXo        ",
"   ......XX....     ",
"   .XXXXXXXXXXXX    ",
"   .XXXXXXXXXXXXo   ",
"    XXXXXXXXXXXXo   ",
"     oooooooooooo   ",
"                    ",
"                    ",
"                    ",
"                    "};
