/* XPM */
static char * weave2_xpm[] = {
/* width height num_colors chars_per_pixel */
"8 8 2 1",
/* colors */
" 	c white",
".	c #808080",
/* pixels */
"   .   .",
" .   .  ",
"  .   . ",
".   .   ",
"   .   .",
" .   .  ",
"  .   . ",
".   .   "};
