/* XPM */
static char *xcd_play[] = {
/* width height num_colors chars_per_pixel */
"    62    16        2            1",
/* colors */
". c #000000",
"# c None s None",
/* pixels */
"##############################################################",
"##############################################################",
"##############################################################",
"##########################..##################################",
"##########################....################################",
"##########################......##############################",
"##########################........############################",
"##########################..........##########################",
"##########################........############################",
"##########################......##############################",
"##########################....################################",
"##########################..##################################",
"##############################################################",
"##############################################################",
"##############################################################",
"##############################################################"
};
