/* XPM */
static char * b2_xpm[] = {
/* width height num_colors chars_per_pixel */
"59 42 7 1",
/* colors */
" 	s None	c None",
".	c black",
"X	c white",
"o	c #c0c0c0",
"O	c #808080",
"+	c #00ffff",
"@	c #40c0a0",
/* pixels */
"                                                           ",
"                                                           ",
"                                                           ",
"                                                           ",
"                                                           ",
"                                  .....                    ",
"                            ..   .XoXoo.  ..               ",
"                            ......ooooo.....               ",
"                            ..   .oOoOo.  ..               ",
"                                  .....                    ",
"                ................   OoO                     ",
"               .oooooooooooooooo........                   ",
"               .................o........                  ",
"                               ..XoXoXoo.                  ",
"               ..............   .oOoOoOo.                  ",
"               .X+X+X+X+X+X++.  .........                  ",
"                ..@@@@@@@@@@@@.    Oo.                     ",
"                  .+++++++++++.   .....                    ",
"                 .+++++++++++.     oO.                     ",
"                .X+X+X+X+X+X.     .....                    ",
"                 .@@@@@@@@@@@.     Oo.                     ",
"                  .@@@@@@@@@@@.   .....                    ",
"                 .+++++++++++.     oO.                     ",
"                .@@@@@@@@@@@.     .....                    ",
"               .X+X+X+X+X+X.       Oo.                     ",
"                .@@@@@@@@@@@.     .....                    ",
"                 .@@@@@@@@@@@.     oO.                     ",
"                  .@@@@@@@@@@@.   .....                    ",
"                 .+++++++++++++.   Oo.                     ",
"                .X+X+X+X+X+X+X.  .......                   ",
"                ..............  .XoXoXoo.                  ",
"                                .oOoOoOo.                  ",
"               .................o........                  ",
"               .oooooooooooooooo........                   ",
"                .................  oO.                     ",
"                                  .....                    ",
"                                  .....                    ",
"                                                           ",
"                                                           ",
"                                                           ",
"                                                           ",
"                                                           "};
