/* XPM */
static char * trail4_xpm[] = {
/* width height num_colors chars_per_pixel */
"10 10 4 1",
/* colors */
" 	s None	c None",
".	c #3366cc",
"X	c #9999ff",
"o	c white",
/* pixels */
"       .  ",
"       X  ",
"     .XoX.",
"       X  ",
"       .  ",
"          ",
"          ",
"          ",
"          ",
"          "};
