/* XPM */
static char *login-bckgnd[] = {
/* width height num_colors chars_per_pixel */
"    73    64        2            1",
/* colors */
". c #d0d0d0",
"# c #c0c0c0",
/* pixels */
"#########################################################################",
"#####################################.....................###############",
"################################.............................############",
"#############################.................................###########",
"##########################....................................###########",
"########################......................................###########",
"######################........................................###########",
"####################...................#############..........###########",
"##################.................#####################.....############",
"#################.............###################...#######..############",
"################............#####################.......#################",
"##############............###################..##..#.#....###############",
"#############..........################...##....#.....#....##############",
"############..........################.....#....#.....#......############",
"###########.........##################..........#..#.#........###########",
"##########........#####################........##..............##########",
"#########........#############...#######.......#####............#########",
"#########......###############....##...##.....#########..........########",
"########......################....##...##......###########........#######",
"#######......#################....##...##......############........######",
"#######.....##################....##...#........#############......######",
"######.....##..###..#.....####....##...#........##############......#####",
"######.....#....#...#.......##....##...#....#....##############.....#####",
"#####.....##....#...#........#....#....#...##....##############......####",
"#####....###....#..##........##........#...###..################.....####",
"####.....###....#####........##........#..#######################....####",
"####....####....#...#....#....#........############..############.....###",
"####....####....#...#....#....##........###########....###########....###",
"####....####....#...#....##...##........###########....###########....###",
"###....#####....#...#...###...##....#...####..#####....###....#####...###",
"###....#####....#...#...###...#############....####...###......####....##",
"###....#####....#...#...###...#############....####...##.......####....##",
"###...######....#...#...####..##############...###....##...#...####....##",
"###...######....#...##..###############...#######.....##..#....####....##",
"###...######...##...##################....#...##......#........####....##",
"###...######...##..#####.############.....#...##......#.......#####...###",
"###...######...##..####...#..#######......#...#.......#......#.###....###",
"###...######...##..####...#.....####.....##...#...#...#....##...##....###",
"###....#####...########...#......###....###...#...#...#.........##....###",
"###....######..############.......##....###...#...#...#........###...####",
"###....######.#########...#........#.....##...#...#...##......###....####",
"####....##############....#........##.....#...#.......###....####....####",
"####....##############....#....#...###....#...#.......##########....#####",
"####....##############....#...##...###....#...#.......#########.....#####",
"#####....#############....#...##...###....#...##......#########....######",
"#####.....############....#...##...##.....#...######..########.....######",
"#####......###########....#...##...#......#...###############.....#######",
"######......##########....#...##...#.....###################.....########",
"#######......#########...##...##...#....###################......########",
"#######.......########...##..####..#...###################......#########",
"########.......#######...########..#####################.......##########",
"#########.......#######..#############################........###########",
"##########........###################################........############",
"###########.........###############################.........#############",
"############...........#########################...........##############",
"#############.............##################.............################",
"###############.................#######................##################",
"################.....................................####################",
"##################.................................######################",
"####################............................#########################",
"#######################......................############################",
"############################..............###############################",
"#########################################################################",
"#########################################################################"
};
SIMPLE  =                    T                                                  BITPIX  =                    8                                                  NAXIS   =                    2                                                  NAXIS1  =      
             73                                                  NAXIS2  =                   64                                                  HISTORY Written by XV 3.10                                                      END                           
                                                                                                                                                                                                                                                               
                                                                                                                                                                                                                                                               
                                                                                                                                                                                                                                                               
                                                                                                                                                                                                                                                               
                                                                                                                                                                                                                                                               
                                                                                                                                                                                                                                                               
                                                                                                                                                                                                                                                               
                                                                                                                                                                                                                                                               
                                                                                                                                                                                                                                                               
                                                                           ÿÿÿÿÿÿÿÿÿÿÿÿÿÿÿÿÿÿÿÿÿÿÿÿÿÿÿÿÿÿÿÿÿÿÿÿÿÿÿÿÿÿÿÿÿÿÿÿÿÿÿÿÿÿÿÿÿÿÿÿÿÿÿÿÿÿÿÿÿÿÿÿÿÿÿÿÿÿÿÿÿÿÿÿÿÿÿÿÿÿÿÿÿÿÿÿÿÿÿÿÿÿÿÿÿÿÿÿÿÿÿÿÿÿÿÿÿÿÿÿÿÿÿÿÿÿÿÿÿÿÿÿÿÿÿÿÿÿÿÿÿÿÿÿÿÿÿÿÿÿÿÿÿÿÿÿÿÿÿÿÿÿÿÿÿÿÿÿÿÿÿÿÿÿWWWWWW
WWWWWWWWÿÿÿÿÿÿÿÿÿÿÿÿÿÿÿÿÿÿÿÿÿÿÿÿÿÿÿÿÿÿÿÿÿÿÿÿÿÿÿÿÿÿÿÿÿÿÿÿÿÿÿÿÿÿWWWWWWWWWWWWWWWWWWWWWWÿÿÿÿÿÿÿÿÿÿÿÿÿÿÿÿÿÿÿÿÿÿÿÿÿÿÿÿÿÿÿÿÿÿÿÿÿÿÿÿÿÿÿÿÿÿÿÿWWWWWWWWWWWWWWWWWWWWWWWWWWWWÿÿÿÿÿÿÿÿÿÿÿÿÿÿÿÿÿÿÿÿÿÿÿÿÿÿÿÿÿÿÿÿÿÿÿÿÿÿÿÿÿÿÿWWWWWWWWWWWWWWWWWWWWWWWWWWWWWWWWWÿÿÿÿÿÿÿÿÿÿÿÿÿÿÿÿÿÿÿ
ÿÿÿÿÿÿÿÿÿÿÿÿÿÿÿÿÿÿÿWWWWWWWWWWWWWWWWWWWWWWWWWWWWWWWWWWWWWÿÿÿÿÿÿÿÿÿÿÿÿÿÿÿÿÿÿÿÿÿÿÿÿÿÿÿÿÿÿÿÿÿÿÿWWWWWWWWWWWWWWWWWÿÿÿÿÿÿÿWWWWWWWWWWWWWWWWÿÿÿÿÿÿÿÿÿÿÿÿÿÿÿÿÿÿÿÿÿÿÿÿÿÿÿÿÿÿÿWWWWWWWWWWWWWÿÿÿÿÿÿÿÿÿÿÿÿÿÿÿÿÿÿWWWWWWWWWWWWWÿÿÿÿÿÿÿÿÿÿÿÿÿÿÿÿÿÿÿÿÿÿÿÿÿÿÿÿWWWWWWWWWWWÿÿÿÿÿÿÿÿÿÿ
ÿÿÿÿÿÿÿÿÿÿÿÿÿÿÿWWWWWWWWWWWÿÿÿÿÿÿÿÿÿÿÿÿÿÿÿÿÿÿÿÿÿÿÿÿÿWWWWWWWWWÿÿÿÿÿÿÿÿÿÿÿÿÿÿÿÿÿÿÿÿÿÿÿÿÿÿÿÿÿÿÿWWWWWWWWWÿÿÿÿÿÿÿÿÿÿÿÿÿÿÿÿÿÿÿÿÿÿÿWWWWWWWWÿÿÿÿÿÿÿÿÿÿÿÿÿÿÿÿÿÿÿÿÿÿÿÿÿÿÿÿÿÿÿÿÿÿÿWWWWWWWWÿÿÿÿÿÿÿÿÿÿÿÿÿÿÿÿÿÿÿÿÿWWWWWWWÿÿÿÿÿÿÿWWÿÿÿÿÿÿÿÿÿÿÿÿÿÿÿÿÿÿÿÿÿÿÿÿÿÿÿÿÿWWWWWWWWÿÿÿÿÿÿÿ
ÿÿÿÿÿÿÿÿÿÿÿÿWWWWWWWÿÿÿÿÿÿÿWWWÿÿÿÿÿÿÿÿWWÿÿÿÿÿÿÿÿÿÿÿÿÿÿÿÿÿÿÿÿÿWWWWWWWÿÿÿÿÿÿÿÿÿÿÿÿÿÿÿÿÿWWWWWWWÿÿÿÿÿÿÿÿWWWÿÿWWÿÿÿÿWWÿWWWÿÿÿÿÿÿÿÿÿÿÿÿÿÿÿÿÿÿÿWWWWWWÿÿÿÿÿÿÿÿÿÿÿÿÿÿÿÿWWWWWWÿÿÿÿÿÿÿÿÿWWWÿÿWWWÿÿWWWÿWWWWÿÿÿÿÿÿÿÿÿÿÿÿÿÿÿÿÿÿÿWWWWWWÿÿÿÿÿÿÿÿÿÿÿÿÿÿWWWWWWÿÿÿÿÿÿÿÿÿÿWWWWÿWWWÿÿ
WWWÿWWWWWÿÿÿÿÿÿÿÿÿÿÿÿÿÿÿÿÿÿÿWWWWWÿÿÿÿÿÿÿÿÿÿÿÿÿWWWWWWÿÿÿÿÿÿÿÿÿÿÿWWWWÿWWWÿÿWWWÿWWWWWWÿWWWÿÿÿÿÿÿÿÿÿÿÿÿÿÿÿWWWWWÿÿÿÿÿÿÿÿÿÿÿÿWWWWWÿÿÿÿÿÿÿÿÿÿÿÿWWWWÿWWWÿÿWWWÿÿWWWWWÿWWWÿÿÿÿÿÿWWÿÿÿÿÿÿÿÿWWWWWÿÿÿÿÿÿÿÿÿÿÿWWWWÿÿÿÿÿÿÿÿÿÿÿÿÿWWWWÿWWWÿÿWWWÿÿÿWWWWÿWWWÿÿWWWWWWÿÿÿÿÿÿÿÿÿWWWWÿ
ÿÿÿÿÿÿÿÿÿWWWWÿÿÿÿÿÿÿÿÿÿÿÿÿÿWWWWÿWWWÿÿWWWÿÿÿWWWWÿWWWÿWWWWWWWÿÿÿÿÿÿÿÿÿWWWWWÿÿÿÿÿÿÿÿÿWWWWÿÿÿÿÿÿÿÿÿÿÿÿÿÿWWWWÿWWWWÿWWWÿÿÿWWWWÿWWWÿWWWWWWWÿÿÿÿÿÿÿÿÿÿWWWWÿÿÿÿÿÿÿÿÿWWWWÿÿÿÿÿÿÿÿÿÿÿÿÿÿWWWWÿWWWWWWWWÿÿWWWWWÿWWWÿWWWWWWWÿÿÿWWWWÿÿÿÿWWWWÿÿÿÿÿÿÿWWWWÿÿÿÿÿÿWÿÿÿÿÿÿÿÿÿWWWÿWWWW
WWWWÿWWWWWÿÿWWWÿWWWÿWWWÿÿWWWWWWÿÿÿWWWWÿÿÿÿÿÿÿWWWWÿÿÿÿÿÿWWÿÿÿÿÿÿÿÿÿÿÿÿWWWWWWWÿÿWWWWÿÿÿWWWÿWWWÿWWWÿWWWWWWWWÿÿÿWWWÿÿÿÿÿÿÿWWWWÿÿÿÿÿWWWÿÿÿÿÿÿÿÿWWWÿWWWWWWÿÿÿWWWWÿÿÿWWWÿWWWÿWWWÿWWWWWWWWWÿÿWWWWÿÿÿÿÿÿWWWÿÿÿÿÿÿWWWÿÿWWÿÿÿÿWWWÿWWWWWÿÿÿÿWWWWWÿÿWWWÿWWWÿWWWÿWWWWÿÿWWWÿÿW
WWWÿÿÿÿÿÿWWWÿÿÿÿÿÿWWWÿÿWWÿÿÿÿWWWÿWWÿÿÿÿÿÿÿWWWWWWÿWWWÿWWWWWWWÿWWWWWWÿWÿÿÿWWWWÿÿÿÿÿÿWWWÿÿÿÿÿÿWWWÿÿWWÿÿÿÿÿWÿÿÿÿÿÿÿÿÿÿÿÿWWWWWÿWWWÿÿWWWWWWÿWWWWWWWÿÿÿÿÿWWWÿÿÿÿÿÿWWWÿÿÿÿÿÿWWWÿÿWWWÿÿÿÿÿÿÿÿÿÿÿÿÿÿÿÿÿÿWWWWÿWWWÿÿWWWWWWÿWWWWWWWWÿÿÿÿWWWWÿÿÿÿÿWWWÿÿÿÿÿÿWWWWÿWWWÿÿWWÿÿÿÿÿÿ
ÿÿÿÿÿÿÿÿÿWWWÿÿÿÿÿÿÿWWWWWÿÿWWÿWWWWÿÿÿÿWWWWÿÿÿÿÿWWWÿÿÿÿÿÿWWWWÿWWWÿWWWÿÿÿÿWWÿÿÿÿÿÿÿÿÿÿÿÿÿÿWWWÿÿÿWWWWÿÿWWWÿWWWÿÿÿÿWWWWÿÿÿÿÿWWWWÿÿÿÿÿWWWWÿWWWÿWWWÿÿÿWWWÿÿÿÿÿÿÿÿÿÿÿÿÿWWWWÿÿÿÿWWWÿÿWWWWWWWÿÿÿÿWWWWÿÿÿÿÿWWWWÿÿÿÿÿWWWWÿWWWÿWWWÿÿÿWWWÿÿÿÿÿÿÿÿÿÿÿÿÿWWWWÿÿÿÿWWWÿÿÿWWWWWWÿÿÿ
ÿWWWWÿÿÿÿÿWWWWÿÿÿÿÿWWWWÿWWWÿWWWÿÿÿWWWÿÿWWWWÿWWWÿÿÿÿWWÿÿÿÿÿWWWWÿÿÿWWWWÿÿÿÿÿWWWÿÿÿÿÿÿÿWWWWÿÿÿÿWWWWÿWWWÿWWWWÿÿWWWÿÿWWWWWWWWÿÿÿÿÿÿÿÿÿÿÿWWWWÿÿÿÿÿÿÿÿÿÿÿWWWWÿÿÿÿÿÿÿWWWWÿÿÿÿWWWWÿWWWÿWWWWÿWWWWÿÿWWWWWWWWÿÿÿÿÿÿÿÿÿÿÿWWWWÿÿÿÿÿÿÿÿÿÿÿWWWWÿÿÿÿÿÿÿWWWWÿÿÿÿWWWWÿWWWÿWWWWÿWWW
WÿWWWWWWWWÿÿÿÿÿÿÿÿÿÿÿÿWWÿÿÿÿÿÿÿÿÿÿÿÿWWWWWÿÿÿÿÿÿÿWWWWWÿÿÿWWWWÿÿÿÿÿWWWWWWWWÿÿWWWWWWWWÿWWÿÿÿÿÿÿÿÿÿÿÿÿÿÿÿÿÿÿÿÿÿÿÿWWWWÿÿÿÿÿÿÿÿÿWWWWÿÿÿWWWWÿWWÿÿWWWWWWWWÿÿWWWWWWWWÿWWWÿÿÿWWÿÿÿÿÿÿÿÿÿÿÿÿÿÿÿÿWWWWWÿÿÿÿÿÿÿÿÿWWWWWÿÿWWWWÿWWWÿWWWWWWWWÿWWWWÿWWWWÿWWWÿÿWWWWÿÿÿÿÿÿÿÿÿÿÿÿÿÿWW
WWWWÿÿÿÿÿÿÿÿÿÿWWWWWÿWWWWÿWWWÿWWWWWWWÿÿWWWWÿÿWWWÿWWWWÿWWWWÿÿÿÿÿÿÿÿÿÿÿÿÿÿWWWWWÿÿÿÿÿÿÿÿÿÿÿWWWWWÿÿWWÿÿÿWWÿWWWWWÿÿÿÿWWWWÿÿWWWÿWWWWWWWWÿÿÿÿÿÿÿÿÿÿÿÿÿÿWWWWWWÿÿÿÿÿÿÿÿÿÿÿÿWWWWWÿÿÿÿÿÿÿÿÿÿÿÿÿÿÿÿÿÿWWWWÿÿWWWÿWWWWWWWWÿÿÿÿÿÿÿÿÿÿÿÿÿWWWWWWÿÿÿÿÿÿÿÿÿÿÿÿÿWWWWWWÿÿÿÿÿÿÿÿÿÿÿÿÿÿÿ
ÿÿWWWWÿÿWWWÿÿWWWWWWÿÿÿÿÿÿÿÿÿÿÿÿWWWWWWWWÿÿÿÿÿÿÿÿÿÿÿÿÿÿWWWWWWÿÿÿÿÿÿÿÿÿÿÿÿÿÿÿÿWWWWÿÿWWWÿÿWWWWWWÿÿÿÿÿÿÿÿÿÿÿWWWWWWWWÿÿÿÿÿÿÿÿÿÿÿÿÿÿÿÿWWWWWWÿÿÿÿÿÿÿÿÿÿÿÿÿÿÿWWWWÿÿWWWÿÿWWWWWÿÿÿÿÿÿÿÿÿWWWWWWWWWWÿÿÿÿÿÿÿÿÿÿÿÿÿÿÿÿÿWWWWWWWWÿÿÿÿÿÿÿÿÿÿÿÿÿWWWÿÿÿÿÿÿÿWWWWWWWÿÿÿÿÿWWWWWWWWWWWW
ÿÿÿÿÿÿÿÿÿÿÿÿÿÿÿÿÿÿÿWWWWWWWWÿÿÿÿÿÿÿÿÿÿÿÿÿÿÿÿÿÿÿÿÿWWWWWWWWÿÿWWWWWWWWWWWWWWÿÿÿÿÿÿÿÿÿÿÿÿÿÿÿÿÿÿÿÿÿWWWWWWWWWÿÿÿÿÿÿÿÿÿÿÿÿÿÿÿÿÿÿWWWWWWWWWWÿWWÿWÿWWWWWWWWÿÿÿÿÿÿÿÿÿÿÿÿÿÿÿÿÿÿÿÿÿÿÿWWWWWWWWWWÿÿÿÿÿÿÿÿÿÿÿÿÿÿÿÿWWWWWÿWWWWÿWWWWWÿWWWWWWÿÿÿÿÿÿÿÿÿÿÿÿÿÿÿÿÿÿÿÿÿÿÿÿÿWWWWWWWWWWÿÿÿÿ
ÿÿÿÿÿÿÿÿÿÿÿÿWWWÿÿWWWWÿWWWWWÿWWWWÿÿÿÿÿÿÿÿÿÿÿÿÿÿÿÿÿÿÿÿÿÿÿÿÿÿÿÿWWWWWWWWWWWWÿÿÿÿÿÿÿÿÿÿÿÿÿÿÿÿÿÿÿWWÿÿWWÿWÿWWWWÿÿÿÿÿÿÿÿÿÿÿÿÿÿÿÿÿÿÿÿÿÿÿÿÿÿÿÿÿÿÿWWWWWWWWWWWWÿÿÿÿÿÿÿÿÿÿÿÿÿÿÿÿÿÿÿÿÿWWWWWWWÿÿÿÿÿÿÿÿÿÿÿÿÿÿÿÿÿÿÿÿÿÿÿÿÿÿÿÿÿÿÿÿÿÿWWWWWWWWWWWWWÿÿÿÿÿÿÿÿÿÿÿÿÿÿÿÿÿÿÿWWWÿÿÿÿÿÿÿWWÿÿ
ÿÿÿÿÿÿÿÿÿÿÿÿÿÿÿÿÿÿÿÿÿÿÿÿÿÿÿÿWWWWWWWWWWWWWWWWWÿÿÿÿÿÿÿÿÿÿÿÿÿÿÿÿÿÿÿÿÿWWWWWÿÿÿÿÿÿÿÿÿÿÿÿÿÿÿÿÿÿÿÿÿÿÿÿÿÿÿÿÿÿÿÿWWWWWWWWWWWWWWWWWWWÿÿÿÿÿÿÿÿÿÿÿÿÿWWWWWWWWWWÿÿÿÿÿÿÿÿÿÿÿÿÿÿÿÿÿÿÿÿÿÿÿÿÿÿÿÿÿÿÿÿÿWWWWWWWWWWWWWWWWWWWWWWWWWWWWWWWWWWWWWWWWÿÿÿÿÿÿÿÿÿÿÿÿÿÿÿÿÿÿÿÿÿÿÿÿÿÿÿÿÿÿÿÿÿÿÿWW
WWWWWWWWWWWWWWWWWWWWWWWWWWWWWWWWWWWWÿÿÿÿÿÿÿÿÿÿÿÿÿÿÿÿÿÿÿÿÿÿÿÿÿÿÿÿÿÿÿÿÿÿÿÿÿWWWWWWWWWWWWWWWWWWWWWWWWWWWWWWWWWWWWÿÿÿÿÿÿÿÿÿÿÿÿÿÿÿÿÿÿÿÿÿÿÿÿÿÿÿÿÿÿÿÿÿÿÿÿÿÿÿÿWWWWWWWWWWWWWWWWWWWWWWWWWWWWWWWWWÿÿÿÿÿÿÿÿÿÿÿÿÿÿÿÿÿÿÿÿÿÿÿÿÿÿÿÿÿÿÿÿÿÿÿÿÿÿÿÿÿÿÿWWWWWWWWWWWWWWWWWWWWWWWWWWWWWÿ
ÿÿÿÿÿÿÿÿÿÿÿÿÿÿÿÿÿÿÿÿÿÿÿÿÿÿÿÿÿÿÿÿÿÿÿÿÿÿÿÿÿÿÿÿÿÿÿÿWWWWWWWWWWWWWWWWWWWWWÿÿÿÿÿÿÿÿÿÿÿÿÿÿÿÿÿÿÿÿÿÿÿÿÿÿÿÿÿÿÿÿÿÿÿÿÿÿÿÿÿÿÿÿÿÿÿÿÿÿÿÿÿÿÿÿÿÿÿÿÿÿÿÿÿÿÿÿÿÿÿÿÿÿÿÿÿÿÿÿÿÿÿÿÿÿÿÿ




