/* XPM */
static char * login_key_xpm[] = {
/* width height num_colors chars_per_pixel */
"48 48 7 1",
/* colors */
" 	s None	c None",
".	c black",
"X	c #808080",
"o	c #c0c0c0",
"O	c white",
"+	c #808000",
"@	c #ffff00",
/* pixels */
"            ...  XXXXXXXXXXXXX                  ",
"          ..XXX.XooooooooooooX.                 ",
"         .X    XoOOOOOOOOOOOOoX.                ",
"        .X    XoOOOOOOOOOOOOOOoX.               ",
"       .X    XoOOXXXOOOOOOOOOOOoX.              ",
"       X++++++++. XXXOOOOOOOOOOOoX.             ",
"     ++OOOOOOOOO++.X.OOOOOOOOOOOOoX.            ",
"   ++OO@@@@@@@@@@@+X.OOOOOOOOOOOOOoX.           ",
"  ++O@@@@@+++@@@@@@X.XOOOOOOOOOOOOOoX.          ",
"  +O@@@@@+XXX+@@@@@.+.oOOOOOOOOOOOOOoX.         ",
" +O@@@@@+X XoO+@@@X.@+.OOOOOOOOOOOOOOoX.        ",
" oO@@@@@+X XoO+O@X.@@o.oOOOOOOOOOOOOOOoX.       ",
"+O@@@@@@+X XoO+XX.@@@@+.OOOOOOOOOOOOOOOoX.      ",
"+O@@@@@@@+..XXX..@@@@@+.OOOOOOOOOOOOOOOOoX.     ",
"+O@@@@@@@@++...@@@@@@@+.OOOOOOOOOOOOOOOOOoX.    ",
"+O@@@@@@@@@OO@@@@@@@@@+.OOOOOOOOOOOOOOOOOOoX.   ",
" o@@@@@@@@@@@@@@@@@@@o.oOOOOOOOOOOOOOOOOOOOX.   ",
" +O@@@@@@@@@@@@@@@@@@+.OOOOOOOOOOOOOOOOOOOoX.   ",
"  +O@@@@@@@@@@@@@@@@+.oOOOOOOOOOOOOOOOOOOoX.    ",
"   +O@@@@@@@@@@@@@@+.OOOOOOOOOOOOOOOOOOOoX.     ",
"    +O@@@@@@@@@@@@+.OOOOOOOOOOOOOOOOOOOoX.      ",
"     +O@@@@@@@@@@+.OOOOOOOOOOOOOOOOOOOoX.       ",
"      +O@@@@@@@@+.OOOOOOOOOOOOOOOOOOOoX.        ",
"       +O@@@o+@..OOOOOOOOOOOOOOOOOOOoX.         ",
"        +O@o+X@.XoOOOOOOOOOOOOOOOOOoX.          ",
"       +O@@o+X@. XoOOOOOOOOOOOOOOOoX.           ",
"      +O@@@o+X@.  XoOOOOOOOOOOOOOoX.            ",
"       ..+@o+X@.   XoOOOOOOOOOOOoX.             ",
"         +@o+X@.    XoOOOOOOOOOoX.              ",
"        +@@o+X@.     XoOOOOOOOoX.               ",
"        +@@o+X@.      XoOOOOOoX.                ",
"       +@@@o+X@.       XoOOOoX.                 ",
"       +@@@o+X@.        XoooX.                  ",
"        .@@o+X@.         XXX.                   ",
"         +@o+X@.                                ",
"         +@o+X@.                                ",
"        +@@o+X@.                                ",
"        .@@o+X@.                                ",
"         .@o+X@.                                ",
"         +@o+X@.                                ",
"        +@@o+X@.                                ",
"       +@@@o+X@.                                ",
"       +@@@o+X@.                                ",
"        +@@o+X@.                                ",
"        .+@o+X+.                                ",
"         .+@+X.                                 ",
"          .++X.                                 ",
"           ...                                  "};
