/* XPM */
static char *applicationrun3232[] = {
/* width height num_colors chars_per_pixel */
"    32    32        6            1",
/* colors */
". c #000000",
"# c #000080",
"a c #808080",
"b c #ff0000",
"c c None",
"d c #ffffff",
/* pixels */
"cccccccccccccccccccccccccccccccc",
"cccccccccccccccccccccccccccccccc",
"cccccccccccccccccccccccccccccccc",
"cccccccccccccccccccccccccccccccc",
"................................",
".##########################.aaa.",
".##########################.aaa.",
"................................",
".dddddddddddddddddddddddddddddd.",
".dddddddddddddddbbbbddddddddddd.",
".ddddddddddddddddbbbbdddddddddd.",
".dddddddddddddddddbbbbddddddddd.",
".ddddddddddddddddddbbbbdddddddd.",
".dddddddddddddddddddbbbbddddddd.",
".ddddddddddddddddddddbbbbdddddd.",
".dddddddddddddddddddddbbbbddddd.",
".ddbbbbbbbbbbbbbbbbbbbbbbbbdddd.",
".ddbbbbbbbbbbbbbbbbbbbbbbbbbddd.",
".ddbbbbbbbbbbbbbbbbbbbbbbbbdddd.",
".dddddddddddddddddddddbbbbddddd.",
".ddddddddddddddddddddbbbbdddddd.",
".dddddddddddddddddddbbbbddddddd.",
".ddddddddddddddddddbbbbdddddddd.",
".dddddddddddddddddbbbbddddddddd.",
".ddddddddddddddddbbbbdddddddddd.",
".dddddddddddddddbbbbddddddddddd.",
".dddddddddddddddddddddddddddddd.",
"................................",
"cccccccccccccccccccccccccccccccc",
"cccccccccccccccccccccccccccccccc",
"cccccccccccccccccccccccccccccccc",
"cccccccccccccccccccccccccccccccc"
};
SIMPLE  =                    T                                                  BITPIX  =                    8                                                  NAXIS   =                    2                                                  NAXIS1  =      
             32                                                  NAXIS2  =                   32                                                  HISTORY Written by XV 3.10a                                                     END                           
                                                                                                                                                                                                                                                               
                                                                                                                                                                                                                                                               
                                                                                                                                                                                                                                                               
                                                                                                                                                                                                                                                               
                                                                                                                                                                                                                                                               
                                                                                                                                                                                                                                                               
                                                                                                                                                                                                                                                               
                                                                                                                                                                                                                                                               
                                                                                                                                                                                                                                                               
                                                                           
ÿÿÿÿÿÿÿÿÿÿÿ
WWWWWWWWÿÿÿÿ
WWWÿÿÿÿÿÿÿÿÿÿ








