/* XPM */
static char *applicationrun1616[] = {
/* width height num_colors chars_per_pixel */
"    16    16        6            1",
/* colors */
". c #000000",
"# c #000080",
"a c #808080",
"b c #ff0000",
"c c None",
"d c #ffffff",
/* pixels */
"cccccccccccccccc",
"cccccccccccccccc",
"................",
".#############aa",
".ddddddddddddddd",
".ddddddddbbddddd",
".dddddddddbbdddd",
".ddddddddddbbddd",
".dbbbbbbbbbbbbdd",
".dbbbbbbbbbbbbdd",
".ddddddddddbbddd",
".dddddddddbbdddd",
".ddddddddbbddddd",
".ddddddddddddddd",
"cccccccccccccccc",
"cccccccccccccccc"
};
SIMPLE  =                    T                                                  BITPIX  =                    8                                                  NAXIS   =                    2                                                  NAXIS1  =      
             16                                                  NAXIS2  =                   16                                                  HISTORY Written by XV 3.10a                                                     END                           
                                                                                                                                                                                                                                                               
                                                                                                                                                                                                                                                               
                                                                                                                                                                                                                                                               
                                                                                                                                                                                                                                                               
                                                                                                                                                                                                                                                               
                                                                                                                                                                                                                                                               
                                                                                                                                                                                                                                                               
                                                                                                                                                                                                                                                               
                                                                                                                                                                                                                                                               
                                                                           ¿¿¿¿¿¿¿¿¿¿¿¿¿¿¿¿¿¿¿¿¿¿¿¿¿¿¿¿¿¿¿¿
ÿÿÿÿÿÿÿÿÿÿÿÿ










