/* XPM */
static char * help_prev_xpm[] = {
"24 24 7 1",
" 	s None	m none	c None",
".	c green",
"X	c #808080",
"o	c white",
"O	c #008000",
"+	c #c0c0c0",
"@	s iconColor1	m black	c black",
"                        ",
"                        ",
"                        ",
"         .X             ",
"        .oO             ",
"       .o+O             ",
"      .o+.O             ",
"     .o+.+O             ",
"    .o+.+.OOOOOOOOOOO+  ",
"   .o+.+.+.+.+.+.+.+.O  ",
"  .o+.+.+.+.+.+.+.+.+O  ",
" Xo+.+.+.+.+.+.+.+.+.O  ",
" XOOXXXXXXXXXXXXXXXXX@  ",
"  OXOXOXOOOOOOOOOOOOO@  ",
"   OXOXOOOOOOOOOOOOOO@  ",
"    OXOXOO@@@@@@@@@@@X  ",
"     OXOOO@             ",
"      OXOO@             ",
"       OXO@             ",
"        OX@             ",
"         O@             ",
"                        ",
"                        ",
"                        "};
