/* XPM */
static char * home1_t_xpm[] = {
"16 16 5 1",
" 	s None	c None",
".	c black",
"X	c white",
"o	c #c0c0c0",
"O	c #808080",
"       . ...    ",
"      .X..X.    ",
"     .Xoo.X.    ",
"    .Xo.ooX.    ",
"   .Xo.O.oo.    ",
"  .Xo.Ooo.oo.   ",
" .Xo.Ooooo.oo.  ",
"....Ooooooo.... ",
"  .Ooooooooo.   ",
"  .Xoo...ooo.   ",
"  .Xoo.o.Xoo.   ",
"  .Xoo.o.Xoo.   ",
"  .Xoo.o.Xoo.   ",
"  .....O.....   ",
"                ",
"                "};
