/* XPM */
static char * key1_xpm[] = {
/* width height num_colors chars_per_pixel */
"48 48 7 1",
/* colors */
" 	s None	c None",
".	c #808080",
"X	c #c0c0c0",
"o	c black",
"O	c white",
"+	c #808000",
"@	c #ffff00",
/* pixels */
"                 .............                  ",
"                .XXXXXXXXXXXX.o                 ",
"               .XOOOOOOOOOOOOX.o                ",
"             ..XOOX.XOOOOOOOOOX.o               ",
"            o.XOO.oo..OOOOOOOOOX.o              ",
"       .++++++++o   oo.OOOOOOOOOX.o             ",
"     ++OOOOOOOOO++o   o.OOOOOOOOOX.o            ",
"   ++OO@@@@@@@@@@@++o.Oo.OOOOOOOOOX.o           ",
"  ++O@@@@@+++@@@@@@.+.OOoOOOOOOOOOOX.o          ",
"  +O@@@@@+...+@@@@@@+oXO..OOOOOOOOOOX.o         ",
" +O@@@@@+o .XO+@@@@@@+oOOoXOOOOOOOOOOX.o        ",
" XO@@@@@+o .XO+O@@@@@XoXOo.OOOOOOOOOOOX.o       ",
"+O@@@@@@+o .XO+O@@@@@@+oOo.OOOOOOOOOOOOX.o      ",
"+O@@@@@@@o .X+O@@@@@@@+oOo.OOOOOOOOOOOOOX.o     ",
"+O@@@@@@@@o++O@@@@@@@@+o..XOOOOOOOOOOOOOOX.o    ",
"+O@@@@@@@@oOO@@@@@@@@@+oo.OOOOOOOOOOOOOOOOX.o   ",
" X@@@@@@@@Xo@@@@@@@@@Xoo.OOOOOOOOOOOOOOOOOO.o   ",
" +O@@@@@@@@.o@@@@@@@@+o.OOOOOOOOOOOOOOOOOOX.o   ",
"  +O@@@@@@@@.o.@@@@@oo.OOOOOOOOOOOOOOOOOOX.o    ",
"   +O@@@@@@@@..ooooo..OOOOOOOOOOOOOOOOOOX.o     ",
"    +O@@@@@@@@@.....OOOOOOOOOOOOOOOOOOOX.o      ",
"     +O@@@@@@@@@@+oOOOOOOOOOOOOOOOOOOOX.o       ",
"      +O@@@@@@@@+oOOOOOOOOOOOOOOOOOOOX.o        ",
"       +O@@@X+@ooOOOOOOOOOOOOOOOOOOOX.o         ",
"        +O@X+.@o.XOOOOOOOOOOOOOOOOOX.o          ",
"       +O@@X+.@o .XOOOOOOOOOOOOOOOX.o           ",
"      +O@@@X+.@o  .XOOOOOOOOOOOOOX.o            ",
"       oo+@X+.@o   .XOOOOOOOOOOOX.o             ",
"         +@X+.@o    .XOOOOOOOOOX.o              ",
"        +@@X+.@o     .XOOOOOOOX.o               ",
"        +@@X+.@o      .XOOOOOX.o                ",
"       +@@@X+.@o       .XOOOX.o                 ",
"       +@@@X+.@o        .XXX.o                  ",
"        o@@X+.@o         ...o                   ",
"         +@X+.@o                                ",
"         +@X+.@o                                ",
"        +@@X+.@o                                ",
"        o@@X+.@o                                ",
"         o@X+.@o                                ",
"         +@X+.@o                                ",
"        +@@X+.@o                                ",
"       +@@@X+.@o                                ",
"       +@@@X+.@o                                ",
"        +@@X+.@o                                ",
"        o+@X+.+o                                ",
"         o+@+.o                                 ",
"          o++.o                                 ",
"           ooo                                  "};
