/* XPM */
static char * login_bckgnd_xpm[] = {
/* width height num_colors chars_per_pixel */
"122 104 2 1",
/* colors */
" 	c #c0c0c0",
".	c #d0d0d0",
/* pixels */
"                                                                       ........                                   ........",
"                                     .....................              .........                               ......... ",
"                                .............................            ...........                         ...........  ",
"                             .................................            .............                  .............    ",
"                          ....................................              .................       ................      ",
"                        ......................................               .....................................        ",
"                      ........................................                 .................................          ",
"                    ...................             ..........                   ............................             ",
"                  .................                     .....                       ......................                ",
"                 .............                   ...       ..                            ..............                   ",
"                ............                     .......                                                                  ",
"              ............                   ..  .. . ....                                                                ",
"             ..........                ...  .... ..... ....                                                               ",
"            ..........                ..... .... ..... ......                                                             ",
"           .........                  .......... .. . ........                                                            ",
"          ........                     ........  ..............                                                           ",
"         ........             ...       .......     ............                                                          ",
"         ......               ....  ...  .....         ..........                                                         ",
"        ......                ....  ...  ......           ........                                                        ",
"       ......                 ....  ...  ......            ........                                                       ",
"       .....                  ....  ... ........             ......                                                       ",
"      .....  ..   .. .....    ....  ... ........              ......                                                      ",
"      ..... .... ... .......  ....  ... .... ....              .....                                                      ",
"     .....  .... ... ........ .... .... ...  ....              ......                                                     ",
"     ....   .... ..  ........  ........ ...   ..                .....                                                     ",
"    .....   ....     ........  ........ ..                       ....                                                     ",
"    ....    .... ... .... .... ........            ..            .....                                                    ",
"    ....    .... ... .... ....  ........           ....           ....                                                    ",
"    ....    .... ... ....  ...  ........           ....           ....                                                    ",
"   ....     .... ... ...   ...  .... ...    ..     ....   ....     ...                                                    ",
"   ....     .... ... ...   ...             ....    ...   ......    ....                                                   ",
"   ....     .... ... ...   ...             ....    ...  .......    ....                                                   ",
"   ...      .... ... ...    ..              ...   ....  ... ...    ....                                                   ",
"   ...      .... ...  ..               ...       .....  .. ....    ....                                                   ",
"   ...      ...  ...                  .... ...  ...... ........    ....                                                   ",
"   ...      ...  ..     .            ..... ...  ...... .......     ...                                                    ",
"   ...      ...  ..    ... ..       ...... ... ....... ...... .   ....                                                    ",
"   ...      ...  ..    ... .....    .....  ... ... ... ....  ...  ....                                                    ",
"   ....     ...        ... ......   ....   ... ... ... .........  ....                                                    ",
"   ....      ..            .......  ....   ... ... ... ........   ...                                                     ",
"   ....      .         ... ........ .....  ... ... ...  ......   ....                                                     ",
"    ....              .... ........  ..... ... .......   ....    ....                                                     ",
"    ....              .... .... ...   .... ... .......          ....                                                      ",
"    ....              .... ...  ...   .... ... .......         .....                                                      ",
"     ....             .... ...  ...   .... ...  ......         ....                                                       ",
"     .....            .... ...  ...  ..... ...      ..        .....                                                       ",
"     ......           .... ...  ... ...... ...               .....                                                        ",
"      ......          .... ...  ... .....                   .....                                                         ",
"       ......         ...  ...  ... ....                   ......                                                         ",
"       .......        ...  ..    .. ...                   ......                                                          ",
"        .......       ...        ..                     .......                                                           ",
"         .......       ..                             ........                                                            ",
"          ........                                   ........                                                             ",
"           .........                               .........                                      .....................   ",
"            ...........                         ...........                                  .............................",
".            .............                  .............                                 ................................",
".              .................       ................                                ...................................",
".               .....................................                                .....................................",
".                 .................................                                .......................................",
".                   ............................                                 ...................             .........",
"                       ......................                                  .................                     .....",
"                            ..............                                    .............                   ...       ..",
"                                                                             ............                     .......     ",
"                                                                           ............                   ..  .. . ....   ",
"                                                                          ..........                ...  .... ..... ....  ",
"                                                                         ..........                ..... .... ..... ......",
".                                                                       .........                  .......... .. . .......",
"..                                                                     ........                     ........  ............",
"...                                                                   ........             ...       .......     .........",
"....                                                                  ......               ....  ...  .....         ......",
".....                                                                ......                ....  ...  ......           ...",
"......                                                              ......                 ....  ...  ......            ..",
"......                                                              .....                  ....  ... ........             ",
" ......                                                            .....  ..   .. .....    ....  ... ........             ",
"  .....                                                            ..... .... ... .......  ....  ... .... ....            ",
"  ......                                                          .....  .... ... ........ .... .... ...  ....            ",
"   .....                                                          ....   .... ..  ........  ........ ...   ..             ",
"    ....                                                         .....   ....     ........  ........ ..                   ",
"    .....                                                        ....    .... ... .... .... ........            ..        ",
"     ....                                                        ....    .... ... .... ....  ........           ....      ",
"     ....                                                        ....    .... ... ....  ...  ........           ....      ",
".     ...                                                       ....     .... ... ...   ...  .... ...    ..     ....   ...",
"..    ....                                                      ....     .... ... ...   ...             ....    ...   ....",
"..    ....                                                      ....     .... ... ...   ...             ....    ...  .....",
"..    ....                                                      ...      .... ... ...    ..              ...   ....  ... .",
"..    ....                                                      ...      .... ...  ..               ...       .....  .. ..",
"..    ....                                                      ...      ...  ...                  .... ...  ...... ......",
".     ...                                                       ...      ...  ..     .            ..... ...  ...... ......",
" .   ....                                                       ...      ...  ..    ... ..       ...... ... ....... ......",
"...  ....                                                       ...      ...  ..    ... .....    .....  ... ... ... ....  ",
"...  ....                                                       ....     ...        ... ......   ....   ... ... ... ......",
"..   ...                                                        ....      ..            .......  ....   ... ... ... ......",
".   ....                                                        ....      .         ... ........ .....  ... ... ...  .....",
"    ....                                                         ....              .... ........  ..... ... .......   ....",
"   ....                                                          ....              .... .... ...   .... ... .......       ",
"  .....                                                          ....              .... ...  ...   .... ... .......       ",
"  ....                                                            ....             .... ...  ...   .... ...  ......       ",
" .....                                                            .....            .... ...  ...  ..... ...      ..       ",
".....                                                             ......           .... ...  ... ...... ...               ",
"....                                                               ......          .... ...  ... .....                   .",
"....                                                                ......         ...  ...  ... ....                   ..",
"...                                                                 .......        ...  ..    .. ...                   ...",
"..                                                                   .......       ...        ..                     .....",
".                                                                     .......       ..                             ......."};
