/* XPM */
static char *Make3232[] = {
/* width height num_colors chars_per_pixel */
"    32    32        3            1",
/* colors */
". c #000000",
"# c #804000",
"a c None",
/* pixels */
"aaaaaaaaaaaaaaaaaaaaaaaaaaaaaaaa",
"aaaaaaaaaaaaaaaaaaaaaaaaaaaaaaaa",
"aaaaaaaaaaaaa..aaaaaaaaaaaaaaaaa",
"aaaaaaaaaaaa....aaaaaaaaaaaaaaaa",
"aaaaaaaaaaa......aaaaaaaaaaaaaaa",
"aaaaaaaaaa........aaaaaaaaaaaaaa",
"aaaaaaaaa........aaaaaaaaaaaaaaa",
"aaaaaaaa........aaaaaaaaaaaaaaaa",
"aaaaaaa........aaaaaaaaaaaaaaaaa",
"aaaaaa........aaaaaaaaaaaaaaaaaa",
"aaaaa........aaaaaaaaaaaaaaaaaaa",
"aaaa........##aaaaaaaaaaaaaaaaaa",
"aaa........####aaaaaaaaaaaaaaaaa",
"aa........a#####aaaaaaaaaaaaaaaa",
"a........aaa#####aaaaaaaaaaaaaaa",
"aa......aaaaa#####aaaaaaaaaaaaaa",
"aaa....aaaaaaa#####aaaaaaaaaaaaa",
"aaaa..aaaaaaaaa#####aaaaaaaaaaaa",
"aaaaaaaaaaaaaaaa#####aaaaaaaaaaa",
"aaaaaaaaaaaaaaaaa#####aaaaaaaaaa",
"aaaaaaaaaaaaaaaaaa#####aaaaaaaaa",
"aaaaaaaaaaaaaaaaaaa#####aaaaaaaa",
"aaaaaaaaaaaaaaaaaaaa#####aaaaaaa",
"aaaaaaaaaaaaaaaaaaaaa#####aaaaaa",
"aaaaaaaaaaaaaaaaaaaaaa#####aaaaa",
"aaaaaaaaaaaaaaaaaaaaaaa#####aaaa",
"aaaaaaaaaaaaaaaaaaaaaaaa#####aaa",
"aaaaaaaaaaaaaaaaaaaaaaaaa#####aa",
"aaaaaaaaaaaaaaaaaaaaaaaaaa####aa",
"aaaaaaaaaaaaaaaaaaaaaaaaaaa###aa",
"aaaaaaaaaaaaaaaaaaaaaaaaaaaaaaaa",
"aaaaaaaaaaaaaaaaaaaaaaaaaaaaaaaa"
};
SIMPLE  =                    T                                                  BITPIX  =                    8                                                  NAXIS   =                    2                                                  NAXIS1  =      
             32                                                  NAXIS2  =                   32                                                  HISTORY Written by XV 3.10a                                                     END                           
                                                                                                                                                                                                                                                               
                                                                                                                                                                                                                                                               
                                                                                                                                                                                                                                                               
                                                                                                                                                                                                                                                               
                                                                                                                                                                                                                                                               
                                                                                                                                                                                                                                                               
                                                                                                                                                                                                                                                               
                                                                                                                                                                                                                                                               
                                                                                                                                                                                                                                                               
                                                                           ÿÿÿÿÿÿÿÿÿÿÿÿÿÿÿÿÿÿÿÿÿÿÿÿÿÿÿÿÿÿÿÿÿÿÿÿÿÿÿÿÿÿÿÿÿÿÿÿÿÿÿÿÿÿÿÿÿÿÿÿÿÿÿÿÿÿÿÿÿÿÿÿÿÿÿÿÿÿÿÿÿÿÿÿÿÿÿÿÿÿÿLLLÿÿÿÿÿÿÿÿÿÿÿÿÿÿÿÿÿÿÿÿÿÿÿÿÿÿÿÿLLLLÿÿÿÿÿÿÿÿÿÿÿÿÿÿÿÿÿÿÿÿÿÿÿÿÿÿÿLLLLLÿÿÿÿÿÿÿÿÿÿÿÿÿÿÿÿÿÿÿÿÿÿ
ÿÿÿÿLLLLLÿÿÿÿÿÿÿÿÿÿÿÿÿÿÿÿÿÿÿÿÿÿÿÿÿÿLLLLLÿÿÿÿÿÿÿÿÿÿÿÿÿÿÿÿÿÿÿÿÿÿÿÿÿÿLLLLLÿÿÿÿÿÿÿÿÿÿÿÿÿÿÿÿÿÿÿÿÿÿÿÿÿÿLLLLLÿÿÿÿÿÿÿÿÿÿÿÿÿÿÿÿÿÿÿÿÿÿÿÿÿÿLLLLLÿÿÿÿÿÿÿÿÿÿÿÿÿÿÿÿÿÿÿÿÿÿÿÿÿÿLLLLLÿÿÿÿÿÿÿÿÿÿÿÿÿÿÿÿÿÿÿÿÿÿÿÿÿÿLLLLLÿÿÿÿÿÿÿÿÿÿÿÿÿÿÿÿÿÿÿÿÿÿÿÿÿÿLLLLLÿÿÿÿÿÿÿÿÿÿÿÿÿÿÿÿÿÿÿÿÿÿÿÿÿÿLLL
LLÿÿÿÿÿÿÿÿÿÿÿÿÿÿÿ
ÿÿÿÿÿÿÿÿÿÿÿÿÿÿÿÿÿÿÿÿ
ÿÿÿÿÿÿÿÿÿÿÿÿÿÿÿÿÿÿÿÿÿÿÿÿÿÿÿÿÿÿÿÿÿÿÿÿÿÿÿÿÿÿÿÿÿÿÿÿÿÿÿÿÿÿÿÿÿÿÿÿÿÿÿÿÿÿÿÿÿÿÿÿÿÿÿÿÿÿÿ







