/* XPM */
static char *netscape[] = {
/* width height num_colors chars_per_pixel */
"    32    32        9            1",
/* colors */
". c #000000",
"# c #000080",
"a c #0000ff",
"b c #008000",
"c c #008080",
"d c #00ffff",
"e c #808080",
"f c #c0c0c0",
"g c #ffffff",
/* pixels */
"eeeeeeeeeeeeeeeeeeeeeeeeeeeeeee.",
"e.c.c.c.c.c.c.c.c.c.c.c.c.c.c.c.",
"ec.c.c.c.c.c.c.c.c.c.c.c.c.c.c..",
"e.c.c.c.c.c.c.c.c.c.c.c.c.c.c.c.",
"ec.c.c.c.c.c.c.c.c.c.c.c.c.c.c..",
"e.c.c.c.c.c.c.c.c.c.c.c.c.c.c.c.",
"ec.c.c.c#c.c#c#c#c#c#c.c.c.c.c..",
"e.c#c#c.c#c#c#c#c#c#c#c#c.c#c.c.",
"ec.c.c#c#c#c#c#c#c#c#c#c#c.c#c..",
"e.c#c#c#c#cacac#cac#c#c#c#c#c#c.",
"ec.c#c#cacacac#fd.acacacac#c#c..",
"e.c#c#cacacac.cgge#acacacac#c#c.",
"ebababababababcfcf..abababac#c#.",
"eababababababaefcf..cababacac#c.",
"ebababababababedef..abababacac#.",
"eacacababababacdcc..cabababacac.",
"edecabacacacacafcc#.ababababffe.",
"eefde.bacacacaegcc.#.acacacegfe.",
"edccge.caccedgdfecffecacabaddcc.",
"ecdccd..eedfcccececcdfdecadgcec.",
"eecdecdddcccecececececcdfcgcec#.",
"eaecdecdcecececececececcdffec#c.",
"ecaecdececececececececececfe#c..",
"ea.adccececec..ecc..cccececfe.#.",
"e.acdcececce...fec...decececfe..",
"e.#efecececd...fcc...gcecececf..",
"e.efccecccfcg..dec..gcecececece.",
"e.efcecce.cfcd.dce.gcec..ececec.",
"ecdcecec...cegedecfcec....ecece.",
"ecfecece....cegccecec.....cecec.",
"ecgffffdfdfdfdfdecedcfgddcecece.",
"................................"
};
