/* XPM */
static char * onewin_dlg_xpm[] = {
"40 40 6 1",
" 	c None s None",
".	c #808080",
"X	c black",
"o	c #c0c0c0",
"O	c #000080",
"+	c white",
"                                        ",
"                                        ",
"                                        ",
"                                        ",
"                                        ",
"                                        ",
" ......................................X",
" .oooooooooooooooooooooooooooooooooooo.X",
" .oOOOOOOOOOOOOOOOOOOOOOOOOOOOOOOOOOOO.X",
" .oOOOOOOOOOOOOOOOOOOOOOOOOOOOOOOOOooX.X",
" .oOOOOOOOOOOOOOOOOOOOOOOOOOOOOOOOOooX.X",
" .oOOOOOOOOOOOOOOOOOOOOOOOOOOOOOOOOXXX.X",
" .oooooooooooooooooooooooooooooooooooo.X",
" .oXXXXXXXXXXXXooooXooXooXooXooooooooo.X",
" .oX+++++++++++ooooXooXooXooXooooooooo.X",
" .oX+++++++++++ooXXXXXXXXXXXXooooooooo.X",
" .oooooooooooooooooooooooooooooooooooo.X",
" .o..................................o.X",
" .o.+++++++++++++++++++++++++++++++++o.X",
" .o.+++++++++++++++++++++++++++++++++o.X",
" .o.+++++++++++++++++++++++++++++++++o.X",
" .o.+++++++++++++++++++++++++++++++++o.X",
" .o.+++++++++++++++++++++++++++++++++o.X",
" .o.+++++++++++++++++++++++++++++++++o.X",
" .o.+++++++++++++++++++++++++++++++++o.X",
" .o.+++++++++++++++++++++++++++++++++o.X",
" .o.+++++++++++++++++++++++++++++++++o.X",
" .o.+++++++++++++++++++++++++++++++++o.X",
" .o.+++++++++++++++++++++++++++++++++o.X",
" .o.+++++++++++++++++++++++++++++++++o.X",
" .o.+++++++++++++++++++++++++++++++++o.X",
" .o.+++++++++++++++++++++++++++++++++o.X",
" .oooooooooooooooooooooooooooooooooooo.X",
" ......................................X",
" XXXXXXXXXXXXXXXXXXXXXXXXXXXXXXXXXXXXXXX",
"                                        ",
"                                        ",
"                                        ",
"                                        ",
"                                        "};
