/* XPM */
static char *PExplorer1616[] = {
/* width height num_colors chars_per_pixel */
"    16    16        5            1",
/* colors */
". c #000000",
"# c #00ffff",
"a c #804000",
"b c #ffff00",
"c c None",
/* pixels */
"cccccccccccccccc",
"cccccccccccccccc",
"......cccccccccc",
".bbbbbcccccccccc",
".bbbbb..........",
".bbbbbbbbbbbbbbb",
".bbbb###bbbbbbbb",
".bbb#####bbbbbbb",
".bbb#####bbbbbbb",
".bbb.###.bbbbbbb",
".bbbb...aabbbbbb",
".bbbbbbbbaabbbbb",
".bbbbbbbbbaabbbb",
".bbbbbbbbbbbbbbb",
"cccccccccccccccc",
"cccccccccccccccc"
};
SIMPLE  =                    T                                                  BITPIX  =                    8                                                  NAXIS   =                    2                                                  NAXIS1  =      
             16                                                  NAXIS2  =                   16                                                  HISTORY Written by XV 3.10a                                                     END                           
                                                                                                                                                                                                                                                               
                                                                                                                                                                                                                                                               
                                                                                                                                                                                                                                                               
                                                                                                                                                                                                                                                               
                                                                                                                                                                                                                                                               
                                                                                                                                                                                                                                                               
                                                                                                                                                                                                                                                               
                                                                                                                                                                                                                                                               
                                                                                                                                                                                                                                                               
                                                                           真真真真真真真真真真真真真真真真
忻










