/* XPM */
static char *POINT[] = {
/* width height num_colors chars_per_pixel */
"    16    16        4            1",
/* colors */
". c #000000",
"# c #808080",
"a c #c0c0c0",
"b c None",
/* pixels */
"bbbb.bbbbbbbbbbb",
"bbbb..bbbbbbbbbb",
"bbbb...bbbbbbbbb",
"bbbb....bbbbbbbb",
"bbbb.....bbbbbbb",
"bbbb......bbbbbb",
"bbbb.......bbbbb",
"bbbb........bbbb",
"bbbb.........bbb",
"bbbb......bbbbbb",
"bbbb..b#..abbbbb",
"bbbb.bb#..abbbbb",
"bbbbbbbb#..abbbb",
"bbbbbbbb#..abbbb",
"bbbbbbbbb#..abbb",
"bbbbbbbbb##bbbbb"
};
SIMPLE  =                    T                                                  BITPIX  =                    8                                                  NAXIS   =                    2                                                  NAXIS1  =      

             16                                                  NAXIS2  =                   16                                                  HISTORY Written by XV 3.10a                                                     END                           

                                                                                                                                                                                                                                                               

                                                                                                                                                                                                                                                               

                                                                                                                                                                                                                                                               

                                                                                                                                                                                                                                                               

                                                                                                                                                                                                                                                               

                                                                                                                                                                                                                                                               

                                                                                                                                                                                                                                                               

                                                                                                                                                                                                                                                               

                                                                                                                                                                                                                                                               

                                                                           ÿÿÿÿÿÿÿÿÿ€€ÿÿÿÿÿÿÿÿÿÿÿÿÿ€











