/* XPM */
static char *PROP[] = {
/* width height num_colors chars_per_pixel */
"    16    16        5            1",
/* colors */
". c #000000",
"# c #000080",
"a c #c0c0c0",
"b c #ffffff",
"c c None",
/* pixels */
"cccccccccccccccc",
"ccccccc......c##",
"cccccc.aaaaaa.##",
"ccccc.a.aaaaaa##",
".....a.a.aaaaa##",
".bb.a.a.a.aaa.##",
".b.a.b.a.a...c##",
".b..bbb.a.b.cccc",
".bbbbbbb.bb.cccc",
".bbbbbbbbbb.cccc",
".b..b.....b.cccc",
".bbbbbbbbbb.cccc",
".b..b.....b.cccc",
".bbbbbbbbbb.cccc",
"............cccc",
"cccccccccccccccc"
};
SIMPLE  =                    T                                                  BITPIX  =                    8                                                  NAXIS   =                    2                                                  NAXIS1  =      

             16                                                  NAXIS2  =                   16                                                  HISTORY Written by XV 3.10a                                                     END                           

                                                                                                                                                                                                                                                               

                                                                                                                                                                                                                                                               

                                                                                                                                                                                                                                                               

                                                                                                                                                                                                                                                               

                                                                                                                                                                                                                                                               

                                                                                                                                                                                                                                                               

                                                                                                                                                                                                                                                               

                                                                                                                                                                                                                                                               

                                                                                                                                                                                                                                                               

                                                                           응응응응응응응응











