/* XPM */
static char * ps_xpm[] = {
"32 32 5 1",
" 	s None	c None",
".	c #808080",
"X	c white",
"o	c #c0c0c0",
"O	c black",
"    ...................         ",
"    .XXXXXoXXXXXXXXXXX.O        ",
"    .XXXXooo.XXXXXXXXX..O       ",
"    .XXXOoooO.XXXXXXXX.o.O      ",
"    .XXXXOoO...XXXXXXX.Xo.O     ",
"    .XoXXXO...oXXXXXXX.XXo.O    ",
"    .ooo.XXX.ooo.XXXXX.OOOOOO   ",
"    OoooO.XXOoooO.XXXXXXXXXoO   ",
"    .OoO...XXOoO...XXXXXXXXoO   ",
"  o .XO...oXXXO...oXXXXXXXXoO   ",
" ooo.XXX.ooo.XXX.ooo.XXXXXXoO   ",
"OoooO.XXOoooO.XXOoooO.XXXXXoO   ",
" OoO...XXOoO...XXOoO...XXXXoO   ",
"  Oo..oXXXO...oXXXO...XXXXXoO   ",
"    .ooo.XXX.ooo.XXX.XXXXXXoO   ",
"    OoooO.XXOoooO.XXXXXXXXXoO   ",
"    .OoO...XXOoO...XXXXXXXXoO   ",
"    .XO...oXXXO...XXXXXXXXXoO   ",
"    .XXX.ooo.XXX.XXXXXXXXXXoO   ",
"    .XXXOoooO.XXXXXXXXXXXXXoO   ",
"    .XXXXOoO...XXXXXXXXXXXXoO   ",
"    .XXXXXO...XXXXXXXXXXXXXoO   ",
"    .XXXXXXX.XXOOOOOXXXOOOXoO   ",
"    .XXXXXXXXXOXXOXOXXOXXOXoO   ",
"    .XXXXXXXXXOXOXXOXXOXXXXoO   ",
"    .XXXXXXXXXXXOOOXXXXOXXXoO   ",
"    .XXXXXXXXXXXOXXXXXXXOXXoO   ",
"    .XXXXXXXXXXOXXXXOXXXOXXoO   ",
"    .XXXXXXXXXOOOXXXXOOOXXXoO   ",
"    .XXXXXXXXXXXXXXXXXXXXXXoO   ",
"    .oooooooooooooooooooooooO   ",
"    OOOOOOOOOOOOOOOOOOOOOOOOO   "};
