/* XPM */
static char *xcd_volume[] = {
/* width height ncolors cpp [x_hot y_hot] */
"16 16 2 1 0 0",
/* colors */
" 	s none	m none	c none",
".	c #000080",
/* pixels */
"                ",
"                ",
"                ",
"                ",
"              ..",
"            ....",
"          ......",
"        ........",
"      ..........",
"    ............",
"  ..............",
"................",
"                ",
"                ",
"                ",
"                "};
