/* XPM */
static char * xv_xpm[] = {
/* width height num_colors chars_per_pixel */
"32 32 5 1",
/* colors */
" 	s None	c None",
"X	c #000000",
".	c #ffffff",
"o	c #808080",
"O	c #c0c0c0",
/* pixels */
"                                ",
"                                ",
"                                ",
"                                ",
"                                ",
"                                ",
"                     ..    ...  ",
"       ...     ...  .XX.  .oXX. ",
"      .XXO.   ..XX..XXX. .XXXX. ",
"      .XXX. ..oXX.XXXXX..XXXXo. ",
"      .XXX...XXX. .OXXo.oXOoX.  ",
"      .XXX..XXX.  .oXX..XXoXo.  ",
"      .XXX.XXX.   OXXo..XXXX. . ",
"      .XXXXXX.   .XXX. .oXX...X.",
"      .XXXXX.   .XXXo. .OXXXXXX.",
"      .XXXX.   .XXXo.  .XXXXXo. ",
"      .XXX.   .XXXX.  .oXX....  ",
"     .XXXX.  .XXXXo. .OXXO.     ",
"    .XXXXX. .XXXXX.  .XXX.      ",
"   .XXXXXX..XXXXXX. .XXX.       ",
"  .XXX.XXXXXXX.XXX..XXXo.       ",
" .XXX..XXXXXX..XXXXXXXX.        ",
".XXX. .XXXXX. .XXXXXXX.         ",
".XX.  .OXXo.   .XXXXo.          ",
" ..    ....     .....           ",
"                                ",
"                                ",
"                                ",
"                                ",
"                                ",
"                                ",
"                                "};
