/* XPM */
static char * df_center_xpm[] = {
"16 16 5 1",
" 	s None	c None",
".	c black",
"X	c #808080",
"o	c white",
"O	c #c0c0c0",
"                ",
".....           ",
".....           ",
"                ",
"......     .X   ",
"          .o.   ",
"...      .ooX.X.",
"        .oOOooo.",
"...... .oOOOOOO.",
"......  .oOOOOO.",
"         .oO....",
"..        .O.   ",
"           .X   ",
"....            ",
"                ",
"                "};
