/* XPM */
static char * df_dodiff_xpm[] = {
"16 16 8 1",
" 	c gray81",
".	s None	c None",
"X	c white",
"o	c #808080",
"O	c black",
"+	c red",
"@	c #0000B6DA0000",
"#	c blue",
"      ...      .",
" XXXX o.. XXXX o",
" XOOX+++++XXOO o",
" XXXX o.. XXXX o",
" XXOO o.. XOOX o",
" XXXX o.. XXXX o",
" XOXO@@@@@XOOX o",
" XXXX o.. XXXX o",
" XOXO o.. XOOX o",
" XXXX o.. XXXX o",
" XXXX o.. XXXX o",
" XOOX#####XOOX o",
" XXXX o.. XXXX o",
"      o..      o",
".oooooo...oooooo",
"................"};
