/* XPM */
static char * df_next_xpm[] = {
"16 16 4 1",
" 	s None	c None",
".	c black",
"X	c white",
"o	c #808080",
"                ",
"   .      ......",
"  .X. .o  ......",
" .X X.X.        ",
".X   XX.  ......",
" .    X.        ",
"  .   X.  ..... ",
" .     .        ",
" o......  ......",
"          ......",
"                ",
"          ....  ",
"                ",
"          ......",
"                ",
"                "};
