/* XPM */
static char * df_undodiff_xpm[] = {
"16 16 5 1",
" 	c gray81",
".	s None	c None",
"X	c white",
"o	c #808080",
"O	c black",
"      ...      .",
" XXXX o.. XXXX o",
" XOOX o.. XXOO o",
" XXXX o.. XXXX o",
" XXOO o.. XOOX o",
" XXXX o.. XXXX o",
" XOXO o.. XOOX o",
" XXXX o.. XXXX o",
" XOXO o.. XOOX o",
" XXXX o.. XXXX o",
" XXXX o.. XXXX o",
" XOOX o.. XOOX o",
" XXXX o.. XXXX o",
"      o..      o",
".oooooo...oooooo",
"................"};
