/* XPM */
static char * date_xpm[] = {
"46 30 7 1",
" 	s None	c None",
".	c black",
"X	c White",
"o	c red",
"O	c #CECE55552929",
"+	c #c0c0c0",
"@	c #808080",
"          .............................       ",
"         .XXXXXXXXXXXXX.XXXXXXXXXXXXX..       ",
"         .XXXXXXXXXXXXX.XXXXXXXXXXXXX..       ",
"         .XoooooooooooX.XoooooooooooX..       ",
"         .XXXXXXXXXXXXX.XXXXXXXXXXXXX..       ",
"         .XXXXXXXXXXX..X..XXXXXXXXXXX..       ",
"         .XXXXXoooXXX.....XXXooooXXXX..       ",
"         .XXXXooooXXXXX.XXXXooooooXXX..       ",
"         .XXXoooOOXXXXX.XXXooXXoooXXX..       ",
"         .XXXoXoooXXXXX.XXXXXXXoooXXX..       ",
"         .XXXXXoooXXXXX.XXXXXXooooXXX..       ",
"         .XXX................ooooXXXX..       ",
"         .XXX.+++++++++++++++.ooXXXXX..       ",
"         .XXX.+.............+.@XXXXXX..       ",
"         .XXX.+.XXXXXXXXXXX@+.@XXXXXX..       ",
"         .XXX.+.XXXXX.XXXXX@+.@XXXXXX..       ",
"         .XXX.+.XXXXX.XXXXX@+.@oooXXX..       ",
"         .XXX.+.XXXXX.XXXXX@+.@oooXXX..       ",
"         .XXX.+.XXXXX.XXXXX@+.@XXXXXX..       ",
"         .XXX.+.XXXXX....XX@+.@XXXXXX..       ",
"         .XXX.+.XXXXoXXXXXX@+.@XXXXXX..       ",
"         .XXX.+.XXXoXXXXXXX@+.@XXXXXX..       ",
"         .....+.XXoXXXXXXXX@+.........        ",
"             .+.XXXXXXXXXXX@+.@               ",
"             .+.XXXXXXXXXXX@+.@               ",
"             .+.@@@@@@@@@@@@+.@               ",
"             .+++++++++++++++.@               ",
"             .................@               ",
"              @@@@@@@@@@@@@@@@@               ",
"                                              "};
