/* XPM */
static char * knob_xpm[] = {
/* width height num_colors chars_per_pixel */
"113 113 5 1",
/* colors */
" 	s None	c None",
".	c #404040",
"X	c white",
"o	c #808080",
"O	c #c0c0c0",
/* pixels */
"                                                 ...............                                                 ",
"                                            .....XXXXXXXXXXXXXXX.....                                            ",
"                                        ....XXXXXXXXXXXXXXXXXXXXXXXXX....                                        ",
"                                     ...XXXXXXXXXoooooooooooooooXXXXXXXXX...                                     ",
"                                  ...XXXXXXXoooooooooooooooooooooooooXXXXXXX...                                  ",
"                                ..XXXXXXoooooooooooooooooooooooooooooooooXXXXXX..                                ",
"                              ..XXXXXoooooooooooooooooooooooooooooooooooooooXXXXX..                              ",
"                            ..XXXXXoooooooooooooooooooooooooooooooooooooooooooXXXXX..                            ",
"                           .XXXXXoooooooooooooooooooooooooooooooooooooooooooooooXXXXX.                           ",
"                         ..XXXXoooooooooooooooooooooooooooooooooooooooooooooooooooXXXX..                         ",
"                        .XXXXoooooooooooooooooooooooooooooooooooooooooooooooooooooooXXXX.                        ",
"                      ..XXXXoooooooooooooooooooooooooooooooooooooooooooooooooooooooooXXXX..                      ",
"                     .XXXXoooooooooooooooooooooooooooooooooooooooooooooooooooooooooooooXXXX.                     ",
"                    .XXXXoooooooooooooooooooooooooooooooooooooooooooooooooooooooooooooooXXXX.                    ",
"                   .XXXoooooooooooooooooooooooooooooooooooooooooooooooooooooooooooooooooooXXX.                   ",
"                  .XXXoooooooooooooooooooooooooooooooooooooooooooooooooooooooooooooooooooooXXX.                  ",
"                 .XXXoooooooooooooooooooooooooooooooooooooooooooooooooooooooooooooooooooooooXOO.                 ",
"                .XXXoooooooooooooooooooooooooooooooooooooooooooooooooooooooooooooooooooooooooOOO.                ",
"               .XXXoooooooooooooooooooooooooooooooooooooooooooooooooooooooooooooooooooooooooooO...               ",
"              .XXXooooooooooooooooooooooooooooooooooooooooooooooooooooooooooooooooooooooooooooo....              ",
"             .XXXooooooooooooooooooooooooooooooooooooooooooooooooooooooooooooooooooooooooooooooo....             ",
"            .XXXooooooooooooooooooooooooooooooooooooooooooooooooooooooooooooooooooooooooooooooooo....            ",
"           .XXXooooooooooooooooooooooooooooooooooooooooooooooooooooooooooooooooooooooooooooooooooo....           ",
"           .XXooooooooooooooooooooooooooooooooooooooooooooooooooooooooooooooooooooooooooooooooooooo...           ",
"          .XXXooooooooooooooooooooooooooooooooooooooooooooooooooooooooooooooooooooooooooooooooooooo....          ",
"         .XXXooooooooooooooooooooooooooooooooooooooooooooooooooooooooooooooooooooooooooooooooooooooo....         ",
"         .XXooooooooooooooooooooooooooooooooooooooooooooooooooooooooooooooooooooooooooooooooooooooooo...         ",
"        .XXXooooooooooooooooooooooooooooooooooooooooooooooooooooooooooooooooooooooooooooooooooooooooo....        ",
"       .XXXooooooooooooooooooooooooooooooooooooooooooooooooooooooooooooooooooooooooooooooooooooooooooo....       ",
"       .XXooooooooooooooooooooooooooooooooooooooooooooooooooooooooooooooooooooooooooooooooooooooooooooo...       ",
"      .XXXooooooooooooooooooooooooooooooooooooooooooooooooooooooooooooooooooooooooooooooooooooooooooooo....      ",
"      .XXooooooooooooooooooooooooooooooooooooooooooooooooooooooooooooooooooooooooooooooooooooooooooooooo...      ",
"     .XXXooooooooooooooooooooooooooooooooooooooooooooooooooooooooooooooooooooooooooooooooooooooooooooooo....     ",
"     .XXooooooooooooooooooooooooooooooooooooooooooooooooooooooooooooooooooooooooooooooooooooooooooooooooo...     ",
"    .XXXooooooooooooooooooooooooooooooooooooooooooooooooooooooooooooooooooooooooooooooooooooooooooooooooo....    ",
"    .XXooooooooooooooooooooooooooooooooooooooooooooooooooooooooooooooooooooooooooooooooooooooooooooooooooo...    ",
"    .XXooooooooooooooooooooooooooooooooooooooooooooooooooooooooooooooooooooooooooooooooooooooooooooooooooo...    ",
"   .XXooooooooooooooooooooooooooooooooooooooooooooooooooooooooooooooooooooooooooooooooooooooooooooooooooooo...   ",
"   .XXooooooooooooooooooooooooooooooooooooooooooooooooooooooooooooooooooooooooooooooooooooooooooooooooooooo...   ",
"   .XXooooooooooooooooooooooooooooooooooooooooooooooooooooooooooooooooooooooooooooooooooooooooooooooooooooo...   ",
"  .XXooooooooooooooooooooooooooooooooooooooooooooooooooooooooooooooooooooooooooooooooooooooooooooooooooooooo...  ",
"  .XXooooooooooooooooooooooooooooooooooooooooooooooooooooooooooooooooooooooooooooooooooooooooooooooooooooooo...  ",
"  .XXooooooooooooooooooooooooooooooooooooooooooooooooooooooooooooooooooooooooooooooooooooooooooooooooooooooo...  ",
"  .XXooooooooooooooooooooooooooooooooooooooooooooooooooooooooooooooooooooooooooooooooooooooooooooooooooooooo...  ",
" .XXooooooooooooooooooooooooooooooooooooooooooooooooooooooooooooooooooooooooooooooooooooooooooooooooooooooooo... ",
" .XXooooooooooooooooooooooooooooooooooooooooooooooooooooooooooooooooooooooooooooooooooooooooooooooooooooooooo... ",
" .XXooooooooooooooooooooooooooooooooooooooooooooooooooooooooooooooooooooooooooooooooooooooooooooooooooooooooo... ",
" .XXooooooooooooooooooooooooooooooooooooooooooooooooooooooooooooooooooooooooooooooooooooooooooooooooooooooooo... ",
" .XXooooooooooooooooooooooooooooooooooooooooooooooooooooooooooooooooooooooooooooooooooooooooooooooooooooooooo... ",
".XXooooooooooooooooooooooooooooooooooooooooooooooooooooooooooooooooooooooooooooooooooooooooooooooooooooooooooo...",
".XXooooooooooooooooooooooooooooooooooooooooooooooooooooooooooooooooooooooooooooooooooooooooooooooooooooooooooo...",
".XXooooooooooooooooooooooooooooooooooooooooooooooooooooooooooooooooooooooooooooooooooooooooooooooooooooooooooo...",
".XXooooooooooooooooooooooooooooooooooooooooooooooooooooooooooooooooooooooooooooooooooooooooooooooooooooooooooo...",
".XXooooooooooooooooooooooooooooooooooooooooooooooooooooooooooooooooooooooooooooooooooooooooooooooooooooooooooo...",
".XXooooooooooooooooooooooooooooooooooooooooooooooooooooooooooooooooooooooooooooooooooooooooooooooooooooooooooo...",
".XXooooooooooooooooooooooooooooooooooooooooooooooooooooooooooooooooooooooooooooooooooooooooooooooooooooooooooo...",
".XXooooooooooooooooooooooooooooooooooooooooooooooooooooooooooooooooooooooooooooooooooooooooooooooooooooooooooo...",
".XXooooooooooooooooooooooooooooooooooooooooooooooooooooooooooooooooooooooooooooooooooooooooooooooooooooooooooo...",
".XXooooooooooooooooooooooooooooooooooooooooooooooooooooooooooooooooooooooooooooooooooooooooooooooooooooooooooo...",
".XXooooooooooooooooooooooooooooooooooooooooooooooooooooooooooooooooooooooooooooooooooooooooooooooooooooooooooo...",
".XXooooooooooooooooooooooooooooooooooooooooooooooooooooooooooooooooooooooooooooooooooooooooooooooooooooooooooo...",
".XXooooooooooooooooooooooooooooooooooooooooooooooooooooooooooooooooooooooooooooooooooooooooooooooooooooooooooo...",
".XXooooooooooooooooooooooooooooooooooooooooooooooooooooooooooooooooooooooooooooooooooooooooooooooooooooooooooo...",
".XXooooooooooooooooooooooooooooooooooooooooooooooooooooooooooooooooooooooooooooooooooooooooooooooooooooooooooo...",
" .XXooooooooooooooooooooooooooooooooooooooooooooooooooooooooooooooooooooooooooooooooooooooooooooooooooooooooo... ",
" .XXooooooooooooooooooooooooooooooooooooooooooooooooooooooooooooooooooooooooooooooooooooooooooooooooooooooooo... ",
" .XXooooooooooooooooooooooooooooooooooooooooooooooooooooooooooooooooooooooooooooooooooooooooooooooooooooooooo... ",
" .XXooooooooooooooooooooooooooooooooooooooooooooooooooooooooooooooooooooooooooooooooooooooooooooooooooooooooo... ",
" .XXooooooooooooooooooooooooooooooooooooooooooooooooooooooooooooooooooooooooooooooooooooooooooooooooooooooooo... ",
"  .XXooooooooooooooooooooooooooooooooooooooooooooooooooooooooooooooooooooooooooooooooooooooooooooooooooooooo...  ",
"  .XXooooooooooooooooooooooooooooooooooooooooooooooooooooooooooooooooooooooooooooooooooooooooooooooooooooooo...  ",
"  .XXooooooooooooooooooooooooooooooooooooooooooooooooooooooooooooooooooooooooooooooooooooooooooooooooooooooo...  ",
"  .XXooooooooooooooooooooooooooooooooooooooooooooooooooooooooooooooooooooooooooooooooooooooooooooooooooooooo...  ",
"   .XXooooooooooooooooooooooooooooooooooooooooooooooooooooooooooooooooooooooooooooooooooooooooooooooooooooo...   ",
"   .XXooooooooooooooooooooooooooooooooooooooooooooooooooooooooooooooooooooooooooooooooooooooooooooooooooooo...   ",
"   .XXooooooooooooooooooooooooooooooooooooooooooooooooooooooooooooooooooooooooooooooooooooooooooooooooooooo...   ",
"    .XXooooooooooooooooooooooooooooooooooooooooooooooooooooooooooooooooooooooooooooooooooooooooooooooooooo...    ",
"    .XXooooooooooooooooooooooooooooooooooooooooooooooooooooooooooooooooooooooooooooooooooooooooooooooooooo...    ",
"    .XXXooooooooooooooooooooooooooooooooooooooooooooooooooooooooooooooooooooooooooooooooooooooooooooooooo....    ",
"     .XXooooooooooooooooooooooooooooooooooooooooooooooooooooooooooooooooooooooooooooooooooooooooooooooooo...     ",
"     .XXXooooooooooooooooooooooooooooooooooooooooooooooooooooooooooooooooooooooooooooooooooooooooooooooo....     ",
"      .XXooooooooooooooooooooooooooooooooooooooooooooooooooooooooooooooooooooooooooooooooooooooooooooooo...      ",
"      .XXXooooooooooooooooooooooooooooooooooooooooooooooooooooooooooooooooooooooooooooooooooooooooooooo....      ",
"       .XXooooooooooooooooooooooooooooooooooooooooooooooooooooooooooooooooooooooooooooooooooooooooooooo...       ",
"       .XXXooooooooooooooooooooooooooooooooooooooooooooooooooooooooooooooooooooooooooooooooooooooooooo....       ",
"        .XXXooooooooooooooooooooooooooooooooooooooooooooooooooooooooooooooooooooooooooooooooooooooooo....        ",
"         .XXooooooooooooooooooooooooooooooooooooooooooooooooooooooooooooooooooooooooooooooooooooooooo...         ",
"         .XXXooooooooooooooooooooooooooooooooooooooooooooooooooooooooooooooooooooooooooooooooooooooo....         ",
"          .XXXooooooooooooooooooooooooooooooooooooooooooooooooooooooooooooooooooooooooooooooooooooo....          ",
"           .XXooooooooooooooooooooooooooooooooooooooooooooooooooooooooooooooooooooooooooooooooooooo...           ",
"           .XXXooooooooooooooooooooooooooooooooooooooooooooooooooooooooooooooooooooooooooooooooooo....           ",
"            .XXXooooooooooooooooooooooooooooooooooooooooooooooooooooooooooooooooooooooooooooooooo....            ",
"             .XXXooooooooooooooooooooooooooooooooooooooooooooooooooooooooooooooooooooooooooooooo....             ",
"              .XOOooooooooooooooooooooooooooooooooooooooooooooooooooooooooooooooooooooooooooooo....              ",
"               .OOOooooooooooooooooooooooooooooooooooooooooooooooooooooooooooooooooooooooooooo....               ",
"                .O..ooooooooooooooooooooooooooooooooooooooooooooooooooooooooooooooooooooooooo....                ",
"                 ....ooooooooooooooooooooooooooooooooooooooooooooooooooooooooooooooooooooooo....                 ",
"                  ....ooooooooooooooooooooooooooooooooooooooooooooooooooooooooooooooooooooo....                  ",
"                   ....ooooooooooooooooooooooooooooooooooooooooooooooooooooooooooooooooooo....                   ",
"                    .....ooooooooooooooooooooooooooooooooooooooooooooooooooooooooooooooo.....                    ",
"                     .....ooooooooooooooooooooooooooooooooooooooooooooooooooooooooooooo.....                     ",
"                      ......ooooooooooooooooooooooooooooooooooooooooooooooooooooooooo......                      ",
"                        .....ooooooooooooooooooooooooooooooooooooooooooooooooooooooo.....                        ",
"                         ......ooooooooooooooooooooooooooooooooooooooooooooooooooo......                         ",
"                           ......ooooooooooooooooooooooooooooooooooooooooooooooo......                           ",
"                            .......ooooooooooooooooooooooooooooooooooooooooooo.......                            ",
"                              .......ooooooooooooooooooooooooooooooooooooooo.......                              ",
"                                ........ooooooooooooooooooooooooooooooooo........                                ",
"                                  ..........ooooooooooooooooooooooooo..........                                  ",
"                                     ............ooooooooooooooo............                                     ",
"                                        .................................                                        ",
"                                            .........................                                            ",
"                                                 ...............                                                 "};
