/* XPM */
static char * tb_erase_xpm[] = {
"16 16 3 1",
" 	s None	c None",
".	c black",
"X	c #808080",
"                ",
" ...         .  ",
" ....      .. X ",
"  ....    ..XX  ",
"   X...  ..XX   ",
"     .....XX    ",
"      ...XX     ",
"     .....      ",
"    ...XX..     ",
"   ...XX  ..    ",
"  ...XX    .    ",
" ....X      .   ",
" ...X        X  ",
"  .XX        .  ",
"   X          X ",
"                "};
